AnekGujarati-ExpandedExtraBold.ufo
<glyph name="germandbls" format="2">
  <advance width="1492"/>
  <unicode hex="00DF"/>
  <anchor x="721" y="0" name="bottom"/>
  <anchor x="721" y="963" name="top"/>
  <outline>
    <contour>
      <point x="118" y="916" type="curve" smooth="yes"/>
      <point x="118" y="0" type="line"/>
      <point x="515" y="0" type="line"/>
      <point x="515" y="909" type="line" smooth="yes"/>
      <point x="515" y="993"/>
      <point x="543" y="1050"/>
      <point x="675" y="1050" type="curve" smooth="yes"/>
      <point x="766" y="1050"/>
      <point x="809" y="1020"/>
      <point x="809" y="973" type="curve"/>
      <point x="809" y="872"/>
      <point x="591" y="848"/>
      <point x="591" y="643" type="curve" smooth="yes"/>
      <point x="591" y="638" type="line" smooth="yes"/>
      <point x="591" y="484"/>
      <point x="684" y="410"/>
      <point x="918" y="385" type="curve" smooth="yes"/>
      <point x="1011" y="375"/>
      <point x="1046" y="369"/>
      <point x="1046" y="322" type="curve"/>
      <point x="1046" y="321" type="line"/>
      <point x="1046" y="282"/>
      <point x="993" y="266"/>
      <point x="884" y="266" type="curve" smooth="yes"/>
      <point x="812" y="266"/>
      <point x="689" y="284"/>
      <point x="599" y="304" type="curve"/>
      <point x="639" y="11" type="line"/>
      <point x="726" y="-9"/>
      <point x="846" y="-19"/>
      <point x="931" y="-19" type="curve" smooth="yes"/>
      <point x="1227" y="-19"/>
      <point x="1436" y="75"/>
      <point x="1436" y="312" type="curve" smooth="yes"/>
      <point x="1436" y="315" type="line"/>
      <point x="1436" y="548"/>
      <point x="1303" y="611"/>
      <point x="1112" y="641" type="curve" smooth="yes"/>
      <point x="985" y="661"/>
      <point x="969" y="671"/>
      <point x="968" y="706" type="curve"/>
      <point x="968" y="708" type="line"/>
      <point x="968" y="782"/>
      <point x="1184" y="812"/>
      <point x="1184" y="1013" type="curve" smooth="yes"/>
      <point x="1184" y="1269"/>
      <point x="935" y="1349"/>
      <point x="663" y="1349" type="curve" smooth="yes"/>
      <point x="261" y="1349"/>
      <point x="118" y="1207"/>
    </contour>
  </outline>
</glyph>
<glyph name="Danda.gj" format="2">
  <advance width="648"/>
  <unicode hex="0964"/>
  <anchor x="280" y="-69" name="Bottom"/>
  <anchor x="260" y="1264" name="Top"/>
  <anchor x="324" y="1264" name="Top2"/>
  <outline>
    <contour>
      <point x="128" y="422" type="line"/>
      <point x="520" y="422" type="line"/>
      <point x="520" y="1187" type="line"/>
      <point x="128" y="1187" type="line"/>
    </contour>
    <contour>
      <point x="128" y="0" type="line"/>
      <point x="520" y="0" type="line"/>
      <point x="520" y="507" type="line"/>
      <point x="128" y="507" type="line"/>
    </contour>
  </outline>
</glyph>
<glyph name="Doubledanda.gj" format="2">
  <advance width="1296"/>
  <unicode hex="0965"/>
  <guideline x="925" y="2360" angle="90"/>
  <guideline x="1381" y="2360" angle="90"/>
  <anchor x="928" y="-69" name="Bottom"/>
  <anchor x="908" y="1264" name="Top"/>
  <anchor x="972" y="1264" name="Top2"/>
  <outline>
    <contour>
      <point x="128" y="422" type="line"/>
      <point x="520" y="422" type="line"/>
      <point x="520" y="1187" type="line"/>
      <point x="128" y="1187" type="line"/>
    </contour>
    <contour>
      <point x="128" y="0" type="line"/>
      <point x="520" y="0" type="line"/>
      <point x="520" y="507" type="line"/>
      <point x="128" y="507" type="line"/>
    </contour>
    <contour>
      <point x="776" y="422" type="line"/>
      <point x="1168" y="422" type="line"/>
      <point x="1168" y="1187" type="line"/>
      <point x="776" y="1187" type="line"/>
    </contour>
    <contour>
      <point x="776" y="0" type="line"/>
      <point x="1168" y="0" type="line"/>
      <point x="1168" y="507" type="line"/>
      <point x="776" y="507" type="line"/>
    </contour>
  </outline>
</glyph>
<glyph name="Chandrabindu.gj" format="2">
  <unicode hex="0A81"/>
  <guideline x="805" y="1485" angle="90"/>
  <guideline x="609" y="1485" angle="90"/>
  <guideline x="176" y="1485" angle="90"/>
  <guideline x="1052" y="1264" angle="0"/>
  <guideline x="550" y="1759" angle="0"/>
  <guideline x="413" y="1485" angle="90"/>
  <anchor x="609" y="1264" name="_Top2"/>
  <outline>
    <contour>
      <point x="609" y="1324" type="curve" smooth="yes"/>
      <point x="948" y="1324"/>
      <point x="1118" y="1452"/>
      <point x="1118" y="1687" type="curve" smooth="yes"/>
      <point x="1118" y="1699"/>
      <point x="1118" y="1716"/>
      <point x="1114" y="1744" type="curve"/>
      <point x="837" y="1744" type="line"/>
      <point x="837" y="1728" type="line" smooth="yes"/>
      <point x="837" y="1620"/>
      <point x="761" y="1559"/>
      <point x="609" y="1559" type="curve" smooth="yes"/>
      <point x="450" y="1559"/>
      <point x="381" y="1624"/>
      <point x="381" y="1728" type="curve" smooth="yes"/>
      <point x="381" y="1744" type="line"/>
      <point x="104" y="1744" type="line"/>
      <point x="100" y="1716"/>
      <point x="100" y="1699"/>
      <point x="100" y="1687" type="curve" smooth="yes"/>
      <point x="100" y="1452"/>
      <point x="262" y="1324"/>
    </contour>
    <contour>
      <point x="609" y="1623" type="curve" smooth="yes"/>
      <point x="714" y="1623"/>
      <point x="764" y="1685"/>
      <point x="764" y="1770" type="curve" smooth="yes"/>
      <point x="764" y="1777" type="line" smooth="yes"/>
      <point x="764" y="1863"/>
      <point x="714" y="1925"/>
      <point x="609" y="1925" type="curve" smooth="yes"/>
      <point x="504" y="1925"/>
      <point x="454" y="1863"/>
      <point x="454" y="1777" type="curve" smooth="yes"/>
      <point x="454" y="1770" type="line" smooth="yes"/>
      <point x="454" y="1685"/>
      <point x="504" y="1623"/>
    </contour>
  </outline>
</glyph>
<glyph name="Bindu.gj" format="2">
  <unicode hex="0A82"/>
  <anchor x="336" y="1264" name="_Top2"/>
  <outline>
    <contour>
      <point x="336" y="1324" type="curve" smooth="yes"/>
      <point x="502" y="1324"/>
      <point x="572" y="1401"/>
      <point x="572" y="1515" type="curve" smooth="yes"/>
      <point x="572" y="1522" type="line" smooth="yes"/>
      <point x="572" y="1638"/>
      <point x="495" y="1712"/>
      <point x="336" y="1712" type="curve" smooth="yes"/>
      <point x="177" y="1712"/>
      <point x="100" y="1633"/>
      <point x="100" y="1522" type="curve" smooth="yes"/>
      <point x="100" y="1515" type="line" smooth="yes"/>
      <point x="100" y="1401"/>
      <point x="172" y="1324"/>
    </contour>
  </outline>
</glyph>
<glyph name="Visarga.gj" format="2">
  <advance width="672"/>
  <unicode hex="0A83"/>
  <anchor x="336" y="76" name="_Top2"/>
  <outline>
    <contour>
      <point x="336" y="136" type="curve" smooth="yes"/>
      <point x="502" y="136"/>
      <point x="572" y="213"/>
      <point x="572" y="327" type="curve" smooth="yes"/>
      <point x="572" y="334" type="line" smooth="yes"/>
      <point x="572" y="450"/>
      <point x="495" y="524"/>
      <point x="336" y="524" type="curve" smooth="yes"/>
      <point x="177" y="524"/>
      <point x="100" y="445"/>
      <point x="100" y="334" type="curve" smooth="yes"/>
      <point x="100" y="327" type="line" smooth="yes"/>
      <point x="100" y="213"/>
      <point x="172" y="136"/>
    </contour>
    <contour>
      <point x="336" y="705" type="curve" smooth="yes"/>
      <point x="502" y="705"/>
      <point x="572" y="782"/>
      <point x="572" y="896" type="curve" smooth="yes"/>
      <point x="572" y="903" type="line" smooth="yes"/>
      <point x="572" y="1019"/>
      <point x="495" y="1093"/>
      <point x="336" y="1093" type="curve" smooth="yes"/>
      <point x="177" y="1093"/>
      <point x="100" y="1014"/>
      <point x="100" y="903" type="curve" smooth="yes"/>
      <point x="100" y="896" type="line" smooth="yes"/>
      <point x="100" y="782"/>
      <point x="172" y="705"/>
    </contour>
  </outline>
</glyph>
<glyph name="VowelA.gj" format="2">
  <advance width="2249"/>
  <unicode hex="0A85"/>
  <guideline x="3768" y="2281" angle="90"/>
  <anchor x="1881" y="-69" name="Bottom"/>
  <anchor x="1861" y="1264" name="Top"/>
  <anchor x="1925" y="1264" name="Top2"/>
  <outline>
    <contour>
      <point x="886" y="27" type="curve" smooth="yes"/>
      <point x="1283" y="27"/>
      <point x="1496" y="208"/>
      <point x="1496" y="536" type="curve" smooth="yes"/>
      <point x="1496" y="1020" type="line"/>
      <point x="1105" y="1020" type="line"/>
      <point x="1105" y="545" type="line" smooth="yes"/>
      <point x="1105" y="415"/>
      <point x="1028" y="344"/>
      <point x="886" y="344" type="curve" smooth="yes"/>
      <point x="743" y="344"/>
      <point x="665" y="409"/>
      <point x="656" y="529" type="curve" smooth="yes"/>
      <point x="653" y="568" type="line"/>
      <point x="256" y="541" type="line"/>
      <point x="259" y="500" type="line" smooth="yes"/>
      <point x="281" y="194"/>
      <point x="478" y="27"/>
    </contour>
    <contour>
      <point x="330" y="347" type="line"/>
      <point x="342" y="415" type="line"/>
      <point x="514" y="415" type="line"/>
      <point x="763" y="415"/>
      <point x="930" y="562"/>
      <point x="930" y="797" type="curve" smooth="yes"/>
      <point x="930" y="815" type="line" smooth="yes"/>
      <point x="930" y="1093"/>
      <point x="734" y="1226"/>
      <point x="430" y="1226" type="curve" smooth="yes"/>
      <point x="307" y="1226"/>
      <point x="202" y="1205"/>
      <point x="135" y="1178" type="curve"/>
      <point x="104" y="883" type="line"/>
      <point x="177" y="902"/>
      <point x="263" y="920"/>
      <point x="357" y="920" type="curve" smooth="yes"/>
      <point x="469" y="920"/>
      <point x="533" y="886"/>
      <point x="533" y="806" type="curve" smooth="yes"/>
      <point x="533" y="796" type="line" smooth="yes"/>
      <point x="533" y="712"/>
      <point x="457" y="678"/>
      <point x="336" y="678" type="curve" smooth="yes"/>
      <point x="72" y="678" type="line"/>
      <point x="72" y="406" type="line"/>
    </contour>
    <contour>
      <point x="1729" y="422" type="line"/>
      <point x="2121" y="422" type="line"/>
      <point x="2121" y="1187" type="line"/>
      <point x="1729" y="1187" type="line"/>
    </contour>
    <contour>
      <point x="1729" y="0" type="line"/>
      <point x="2121" y="0" type="line"/>
      <point x="2121" y="507" type="line"/>
      <point x="1729" y="507" type="line"/>
    </contour>
    <contour>
      <point x="1351" y="443" type="line"/>
      <point x="1916" y="443" type="line"/>
      <point x="1886" y="757" type="line"/>
      <point x="1351" y="757" type="line"/>
    </contour>
  </outline>
</glyph>
<glyph name="VowelIi.gj" format="2">
  <advance width="1747"/>
  <unicode hex="0A88"/>
  <anchor x="689" y="1264" name="Top2"/>
  <outline>
    <contour>
      <point x="1241" y="790" type="line"/>
      <point x="1633" y="790" type="line"/>
      <point x="1633" y="1251" type="line" smooth="yes"/>
      <point x="1633" y="1374"/>
      <point x="1674" y="1423"/>
      <point x="1776" y="1423" type="curve" smooth="yes"/>
      <point x="1813" y="1423"/>
      <point x="1843" y="1420"/>
      <point x="1877" y="1414" type="curve"/>
      <point x="1847" y="1697" type="line"/>
      <point x="1784" y="1715"/>
      <point x="1727" y="1722"/>
      <point x="1637" y="1722" type="curve" smooth="yes"/>
      <point x="1376" y="1722"/>
      <point x="1241" y="1573"/>
      <point x="1241" y="1286" type="curve" smooth="yes"/>
    </contour>
    <contour>
      <point x="805" y="-36" type="curve" smooth="yes"/>
      <point x="1354" y="-36"/>
      <point x="1633" y="184"/>
      <point x="1633" y="613" type="curve" smooth="yes"/>
      <point x="1633" y="846" type="line"/>
      <point x="1241" y="846" type="line"/>
      <point x="1241" y="629" type="line" smooth="yes"/>
      <point x="1241" y="393"/>
      <point x="1093" y="274"/>
      <point x="805" y="274" type="curve" smooth="yes"/>
      <point x="574" y="274"/>
      <point x="501" y="303"/>
      <point x="501" y="379" type="curve" smooth="yes"/>
      <point x="501" y="383" type="line" smooth="yes"/>
      <point x="501" y="433"/>
      <point x="540" y="461"/>
      <point x="667" y="465" type="curve" smooth="yes"/>
      <point x="966" y="472" type="line"/>
      <point x="966" y="755" type="line"/>
      <point x="661" y="764" type="line" smooth="yes"/>
      <point x="535" y="767"/>
      <point x="501" y="790"/>
      <point x="501" y="835" type="curve" smooth="yes"/>
      <point x="501" y="837" type="line" smooth="yes"/>
      <point x="501" y="897"/>
      <point x="583" y="920"/>
      <point x="750" y="920" type="curve" smooth="yes"/>
      <point x="866" y="920"/>
      <point x="960" y="906"/>
      <point x="1040" y="886" type="curve"/>
      <point x="1005" y="1178" type="line"/>
      <point x="918" y="1205"/>
      <point x="788" y="1226"/>
      <point x="649" y="1226" type="curve" smooth="yes"/>
      <point x="298" y="1226"/>
      <point x="88" y="1123"/>
      <point x="88" y="897" type="curve" smooth="yes"/>
      <point x="88" y="895" type="line" smooth="yes"/>
      <point x="88" y="724"/>
      <point x="186" y="643"/>
      <point x="423" y="621" type="curve"/>
      <point x="423" y="614" type="line"/>
      <point x="195" y="595"/>
      <point x="88" y="511"/>
      <point x="88" y="347" type="curve" smooth="yes"/>
      <point x="88" y="336" type="line" smooth="yes"/>
      <point x="88" y="99"/>
      <point x="311" y="-36"/>
    </contour>
  </outline>
</glyph>
<glyph name="VowelUu.gj" format="2">
  <advance width="2385"/>
  <unicode hex="0A8A"/>
  <guideline x="1402" y="1722" angle="0"/>
  <guideline x="1233" y="1770" angle="0"/>
  <guideline x="1568" y="-36" angle="0"/>
  <anchor x="1192" y="1770" name="Top2"/>
  <outline>
    <contour>
      <point x="1865" y="0" type="line"/>
      <point x="2257" y="0" type="line"/>
      <point x="2257" y="796" type="line" smooth="yes"/>
      <point x="2257" y="1408"/>
      <point x="1841" y="1722"/>
      <point x="1182" y="1722" type="curve" smooth="yes"/>
      <point x="493" y="1722"/>
      <point x="96" y="1404"/>
      <point x="96" y="791" type="curve" smooth="yes"/>
      <point x="96" y="779" type="line"/>
      <point x="509" y="779" type="line"/>
      <point x="509" y="791" type="line" smooth="yes"/>
      <point x="509" y="1201"/>
      <point x="739" y="1412"/>
      <point x="1182" y="1412" type="curve" smooth="yes"/>
      <point x="1621" y="1412"/>
      <point x="1865" y="1200"/>
      <point x="1865" y="787" type="curve" smooth="yes"/>
    </contour>
    <contour>
      <point x="999" y="-36" type="curve" smooth="yes"/>
      <point x="1460" y="-36"/>
      <point x="1670" y="99"/>
      <point x="1670" y="336" type="curve" smooth="yes"/>
      <point x="1670" y="347" type="line" smooth="yes"/>
      <point x="1670" y="511"/>
      <point x="1558" y="595"/>
      <point x="1321" y="614" type="curve"/>
      <point x="1321" y="621" type="line"/>
      <point x="1558" y="643"/>
      <point x="1656" y="724"/>
      <point x="1656" y="895" type="curve" smooth="yes"/>
      <point x="1656" y="897" type="line" smooth="yes"/>
      <point x="1656" y="1123"/>
      <point x="1453" y="1226"/>
      <point x="1113" y="1226" type="curve" smooth="yes"/>
      <point x="965" y="1226"/>
      <point x="832" y="1200"/>
      <point x="752" y="1169" type="curve"/>
      <point x="721" y="876" type="line"/>
      <point x="805" y="901"/>
      <point x="903" y="920"/>
      <point x="1011" y="920" type="curve" smooth="yes"/>
      <point x="1166" y="920"/>
      <point x="1243" y="897"/>
      <point x="1243" y="837" type="curve" smooth="yes"/>
      <point x="1243" y="835" type="line" smooth="yes"/>
      <point x="1243" y="790"/>
      <point x="1206" y="768"/>
      <point x="1065" y="764" type="curve" smooth="yes"/>
      <point x="778" y="755" type="line"/>
      <point x="778" y="472" type="line"/>
      <point x="1060" y="465" type="line" smooth="yes"/>
      <point x="1213" y="461"/>
      <point x="1257" y="433"/>
      <point x="1257" y="382" type="curve" smooth="yes"/>
      <point x="1257" y="378" type="line" smooth="yes"/>
      <point x="1257" y="304"/>
      <point x="1195" y="274"/>
      <point x="999" y="274" type="curve" smooth="yes"/>
      <point x="666" y="274"/>
      <point x="509" y="442"/>
      <point x="509" y="773" type="curve" smooth="yes"/>
      <point x="509" y="788" type="line"/>
      <point x="96" y="788" type="line"/>
      <point x="96" y="773" type="line" smooth="yes"/>
      <point x="96" y="237"/>
      <point x="391" y="-36"/>
    </contour>
  </outline>
</glyph>
<glyph name="VowelRu.gj" format="2">
  <advance width="2359"/>
  <unicode hex="0A8B"/>
  <guideline x="162" y="1508" angle="264.1176"/>
  <guideline x="2855" y="425" angle="276.7492"/>
  <anchor x="1166" y="-69" name="Bottom"/>
  <anchor x="1146" y="1264" name="Top"/>
  <anchor x="1210" y="1264" name="Top2"/>
  <outline>
    <contour>
      <point x="1885" y="52" type="curve" smooth="yes"/>
      <point x="2152" y="52"/>
      <point x="2291" y="153"/>
      <point x="2291" y="360" type="curve" smooth="yes"/>
      <point x="2291" y="361" type="line" smooth="yes"/>
      <point x="2291" y="506"/>
      <point x="2216" y="628"/>
      <point x="2010" y="732" type="curve"/>
      <point x="1723" y="598" type="line"/>
      <point x="1853" y="546"/>
      <point x="1892" y="481"/>
      <point x="1892" y="425" type="curve" smooth="yes"/>
      <point x="1892" y="424" type="line" smooth="yes"/>
      <point x="1892" y="372"/>
      <point x="1841" y="340"/>
      <point x="1762" y="340" type="curve" smooth="yes"/>
      <point x="1707" y="340"/>
      <point x="1650" y="351"/>
      <point x="1600" y="367" type="curve"/>
      <point x="1634" y="84" type="line"/>
      <point x="1709" y="62"/>
      <point x="1798" y="52"/>
    </contour>
    <contour>
      <point x="326" y="441" type="curve"/>
      <point x="684" y="482" type="line"/>
      <point x="671" y="539" type="line"/>
      <point x="772" y="590"/>
      <point x="842" y="648"/>
      <point x="842" y="771" type="curve" smooth="yes"/>
      <point x="842" y="775" type="line" smooth="yes"/>
      <point x="842" y="944"/>
      <point x="724" y="1059"/>
      <point x="470" y="1059" type="curve" smooth="yes"/>
      <point x="336" y="1059"/>
      <point x="215" y="1031"/>
      <point x="142" y="999" type="curve"/>
      <point x="110" y="696" type="line"/>
      <point x="167" y="723"/>
      <point x="237" y="744"/>
      <point x="312" y="744" type="curve" smooth="yes"/>
      <point x="408" y="744"/>
      <point x="449" y="696"/>
      <point x="449" y="619" type="curve" smooth="yes"/>
      <point x="449" y="616" type="line" smooth="yes"/>
      <point x="449" y="546"/>
      <point x="415" y="490"/>
    </contour>
    <contour>
      <point x="100" y="69" type="line"/>
      <point x="1064" y="352" type="line"/>
      <point x="1064" y="659" type="line"/>
      <point x="831" y="582" type="line" smooth="yes"/>
      <point x="765" y="560"/>
      <point x="694" y="536"/>
      <point x="618" y="507" type="curve"/>
      <point x="611" y="532" type="line"/>
      <point x="100" y="393" type="line"/>
    </contour>
    <contour>
      <point x="1349" y="423" type="line"/>
      <point x="1956" y="619" type="line"/>
      <point x="1873" y="883" type="line"/>
      <point x="1349" y="720" type="line"/>
    </contour>
    <contour>
      <point x="1689" y="636" type="line"/>
      <point x="2070" y="689" type="line"/>
      <point x="2177" y="801" type="line"/>
      <point x="2159" y="894"/>
      <point x="2116" y="987"/>
      <point x="2052" y="1061" type="curve"/>
      <point x="1689" y="1061" type="line"/>
    </contour>
    <contour>
      <point x="1014" y="422" type="line"/>
      <point x="1406" y="422" type="line"/>
      <point x="1406" y="1187" type="line"/>
      <point x="1014" y="1187" type="line"/>
    </contour>
    <contour>
      <point x="1014" y="0" type="line"/>
      <point x="1406" y="0" type="line"/>
      <point x="1406" y="507" type="line"/>
      <point x="1014" y="507" type="line"/>
    </contour>
  </outline>
</glyph>
<glyph name="VowelChadraE.gj" format="2">
  <advance width="2249"/>
  <unicode hex="0A8D"/>
  <anchor x="1881" y="-69" name="Bottom"/>
  <anchor x="1861" y="1264" name="Top"/>
  <anchor x="1925" y="1264" name="Top2"/>
  <outline>
    <contour>
      <point x="886" y="27" type="curve" smooth="yes"/>
      <point x="1283" y="27"/>
      <point x="1496" y="208"/>
      <point x="1496" y="536" type="curve" smooth="yes"/>
      <point x="1496" y="1020" type="line"/>
      <point x="1105" y="1020" type="line"/>
      <point x="1105" y="545" type="line" smooth="yes"/>
      <point x="1105" y="415"/>
      <point x="1028" y="344"/>
      <point x="886" y="344" type="curve" smooth="yes"/>
      <point x="743" y="344"/>
      <point x="665" y="409"/>
      <point x="656" y="529" type="curve" smooth="yes"/>
      <point x="653" y="568" type="line"/>
      <point x="256" y="541" type="line"/>
      <point x="259" y="500" type="line" smooth="yes"/>
      <point x="281" y="194"/>
      <point x="478" y="27"/>
    </contour>
    <contour>
      <point x="330" y="347" type="line"/>
      <point x="342" y="415" type="line"/>
      <point x="514" y="415" type="line"/>
      <point x="763" y="415"/>
      <point x="930" y="562"/>
      <point x="930" y="797" type="curve" smooth="yes"/>
      <point x="930" y="815" type="line" smooth="yes"/>
      <point x="930" y="1093"/>
      <point x="734" y="1226"/>
      <point x="430" y="1226" type="curve" smooth="yes"/>
      <point x="307" y="1226"/>
      <point x="202" y="1205"/>
      <point x="135" y="1178" type="curve"/>
      <point x="104" y="883" type="line"/>
      <point x="177" y="902"/>
      <point x="263" y="920"/>
      <point x="357" y="920" type="curve" smooth="yes"/>
      <point x="469" y="920"/>
      <point x="533" y="886"/>
      <point x="533" y="806" type="curve" smooth="yes"/>
      <point x="533" y="796" type="line" smooth="yes"/>
      <point x="533" y="712"/>
      <point x="457" y="678"/>
      <point x="336" y="678" type="curve" smooth="yes"/>
      <point x="72" y="678" type="line"/>
      <point x="72" y="406" type="line"/>
    </contour>
    <contour>
      <point x="1729" y="422" type="line"/>
      <point x="2121" y="422" type="line"/>
      <point x="2121" y="1187" type="line"/>
      <point x="1729" y="1187" type="line"/>
    </contour>
    <contour>
      <point x="1729" y="0" type="line"/>
      <point x="2121" y="0" type="line"/>
      <point x="2121" y="507" type="line"/>
      <point x="1729" y="507" type="line"/>
    </contour>
    <contour>
      <point x="1351" y="443" type="line"/>
      <point x="1916" y="443" type="line"/>
      <point x="1886" y="757" type="line"/>
      <point x="1351" y="757" type="line"/>
    </contour>
    <contour>
      <point x="1959" y="1272" type="curve" smooth="yes"/>
      <point x="2069" y="1272"/>
      <point x="2148" y="1295"/>
      <point x="2205" y="1331" type="curve"/>
      <point x="2205" y="1640" type="line"/>
      <point x="2167" y="1617"/>
      <point x="2108" y="1589"/>
      <point x="2014" y="1589" type="curve" smooth="yes"/>
      <point x="1909" y="1589"/>
      <point x="1808" y="1632"/>
      <point x="1676" y="1721" type="curve" smooth="yes"/>
      <point x="1356" y="1938" type="line"/>
      <point x="1136" y="1609" type="line"/>
      <point x="1427" y="1446" type="line" smooth="yes"/>
      <point x="1656" y="1318"/>
      <point x="1806" y="1272"/>
    </contour>
  </outline>
</glyph>
<glyph name="Kha.gj" format="2">
  <advance width="2050"/>
  <unicode hex="0A96"/>
  <guideline x="2741" y="1340" angle="90"/>
  <guideline x="1530" y="824" angle="90"/>
  <guideline x="183" y="696" angle="270"/>
  <guideline x="-21" y="696" angle="270"/>
  <anchor x="1682" y="-69" name="Bottom"/>
  <anchor x="1662" y="1264" name="Top"/>
  <anchor x="1726" y="1264" name="Top2"/>
  <outline>
    <contour>
      <point x="183" y="749" type="line"/>
      <point x="575" y="749" type="line"/>
      <point x="575" y="858" type="line" smooth="yes"/>
      <point x="575" y="1098"/>
      <point x="469" y="1202"/>
      <point x="266" y="1202" type="curve" smooth="yes"/>
      <point x="175" y="1202"/>
      <point x="111" y="1191"/>
      <point x="56" y="1175" type="curve"/>
      <point x="32" y="895" type="line"/>
      <point x="56" y="899"/>
      <point x="79" y="902"/>
      <point x="102" y="902" type="curve" smooth="yes"/>
      <point x="162" y="902"/>
      <point x="183" y="867"/>
      <point x="183" y="805" type="curve" smooth="yes"/>
    </contour>
    <contour>
      <point x="715" y="84" type="curve" smooth="yes"/>
      <point x="1067" y="84"/>
      <point x="1251" y="249"/>
      <point x="1251" y="566" type="curve" smooth="yes"/>
      <point x="1251" y="1020" type="line"/>
      <point x="856" y="1020" type="line"/>
      <point x="856" y="559" type="line" smooth="yes"/>
      <point x="856" y="456"/>
      <point x="806" y="404"/>
      <point x="715" y="404" type="curve" smooth="yes"/>
      <point x="625" y="404"/>
      <point x="575" y="456"/>
      <point x="575" y="559" type="curve" smooth="yes"/>
      <point x="575" y="779" type="line"/>
      <point x="183" y="779" type="line"/>
      <point x="183" y="566" type="line" smooth="yes"/>
      <point x="183" y="249"/>
      <point x="365" y="84"/>
    </contour>
    <contour>
      <point x="1082" y="469" type="line"/>
      <point x="1710" y="469" type="line"/>
      <point x="1680" y="783" type="line"/>
      <point x="1082" y="783" type="line"/>
    </contour>
    <contour>
      <point x="1530" y="422" type="line"/>
      <point x="1922" y="422" type="line"/>
      <point x="1922" y="1187" type="line"/>
      <point x="1530" y="1187" type="line"/>
    </contour>
    <contour>
      <point x="1530" y="0" type="line"/>
      <point x="1922" y="0" type="line"/>
      <point x="1922" y="507" type="line"/>
      <point x="1530" y="507" type="line"/>
    </contour>
  </outline>
</glyph>
<glyph name="Gha.gj" format="2">
  <advance width="1714"/>
  <unicode hex="0A98"/>
  <guideline x="311" y="2379" angle="90"/>
  <guideline x="1346" y="-206" angle="90"/>
  <guideline x="1194" y="-206" angle="90"/>
  <guideline x="1586" y="-206" angle="90"/>
  <anchor x="1346" y="-69" name="Bottom"/>
  <anchor x="1326" y="1264" name="Top"/>
  <anchor x="1390" y="1264" name="Top2"/>
  <outline>
    <contour>
      <point x="660" y="36" type="curve" smooth="yes"/>
      <point x="983" y="36"/>
      <point x="1128" y="126"/>
      <point x="1183" y="261" type="curve"/>
      <point x="1218" y="261" type="line"/>
      <point x="1202" y="506" type="line"/>
      <point x="1174" y="424"/>
      <point x="1040" y="346"/>
      <point x="776" y="346" type="curve" smooth="yes"/>
      <point x="577" y="346"/>
      <point x="513" y="369"/>
      <point x="513" y="424" type="curve" smooth="yes"/>
      <point x="513" y="425" type="line" smooth="yes"/>
      <point x="513" y="468"/>
      <point x="546" y="488"/>
      <point x="648" y="491" type="curve" smooth="yes"/>
      <point x="911" y="498" type="line"/>
      <point x="911" y="776" type="line"/>
      <point x="643" y="785" type="line" smooth="yes"/>
      <point x="528" y="789"/>
      <point x="496" y="808"/>
      <point x="496" y="846" type="curve" smooth="yes"/>
      <point x="496" y="847" type="line" smooth="yes"/>
      <point x="496" y="899"/>
      <point x="564" y="920"/>
      <point x="714" y="920" type="curve" smooth="yes"/>
      <point x="826" y="920"/>
      <point x="918" y="906"/>
      <point x="997" y="886" type="curve"/>
      <point x="961" y="1178" type="line"/>
      <point x="876" y="1205"/>
      <point x="748" y="1226"/>
      <point x="612" y="1226" type="curve" smooth="yes"/>
      <point x="283" y="1226"/>
      <point x="84" y="1121"/>
      <point x="84" y="915" type="curve" smooth="yes"/>
      <point x="84" y="913" type="line" smooth="yes"/>
      <point x="84" y="740"/>
      <point x="174" y="662"/>
      <point x="402" y="643" type="curve"/>
      <point x="402" y="635" type="line"/>
      <point x="196" y="618"/>
      <point x="101" y="532"/>
      <point x="101" y="367" type="curve" smooth="yes"/>
      <point x="101" y="358" type="line" smooth="yes"/>
      <point x="101" y="157"/>
      <point x="285" y="36"/>
    </contour>
    <contour>
      <point x="1194" y="422" type="line"/>
      <point x="1586" y="422" type="line"/>
      <point x="1586" y="1187" type="line"/>
      <point x="1194" y="1187" type="line"/>
    </contour>
    <contour>
      <point x="1194" y="0" type="line"/>
      <point x="1586" y="0" type="line"/>
      <point x="1586" y="507" type="line"/>
      <point x="1194" y="507" type="line"/>
    </contour>
  </outline>
</glyph>
<glyph name="Ca.gj" format="2">
  <advance width="1752"/>
  <unicode hex="0A9A"/>
  <anchor x="1384" y="-69" name="Bottom"/>
  <anchor x="1364" y="1264" name="Top"/>
  <anchor x="1428" y="1264" name="Top2"/>
  <outline>
    <contour>
      <point x="932" y="382" type="curve" smooth="yes"/>
      <point x="745" y="382"/>
      <point x="657" y="428"/>
      <point x="650" y="509" type="curve" smooth="yes"/>
      <point x="647" y="548" type="line"/>
      <point x="250" y="533" type="line"/>
      <point x="253" y="493" type="line" smooth="yes"/>
      <point x="277" y="213"/>
      <point x="449" y="62"/>
      <point x="808" y="62" type="curve" smooth="yes"/>
      <point x="1075" y="62"/>
      <point x="1172" y="164"/>
      <point x="1221" y="283" type="curve"/>
      <point x="1248" y="283" type="line"/>
      <point x="1239" y="523" type="line"/>
      <point x="1203" y="450"/>
      <point x="1096" y="382"/>
    </contour>
    <contour>
      <point x="1232" y="422" type="line"/>
      <point x="1624" y="422" type="line"/>
      <point x="1624" y="1187" type="line"/>
      <point x="1232" y="1187" type="line"/>
    </contour>
    <contour>
      <point x="1232" y="0" type="line"/>
      <point x="1624" y="0" type="line"/>
      <point x="1624" y="507" type="line"/>
      <point x="1232" y="507" type="line"/>
    </contour>
    <contour>
      <point x="324" y="363" type="line"/>
      <point x="359" y="431" type="line"/>
      <point x="548" y="431" type="line"/>
      <point x="812" y="434"/>
      <point x="984" y="575"/>
      <point x="984" y="805" type="curve" smooth="yes"/>
      <point x="984" y="822" type="line" smooth="yes"/>
      <point x="984" y="1092"/>
      <point x="783" y="1226"/>
      <point x="461" y="1226" type="curve" smooth="yes"/>
      <point x="324" y="1226"/>
      <point x="200" y="1202"/>
      <point x="125" y="1177" type="curve"/>
      <point x="94" y="883" type="line"/>
      <point x="178" y="902"/>
      <point x="276" y="920"/>
      <point x="385" y="920" type="curve" smooth="yes"/>
      <point x="509" y="920"/>
      <point x="580" y="888"/>
      <point x="580" y="813" type="curve" smooth="yes"/>
      <point x="580" y="803" type="line" smooth="yes"/>
      <point x="580" y="726"/>
      <point x="497" y="694"/>
      <point x="363" y="694" type="curve" smooth="yes"/>
      <point x="62" y="694" type="line"/>
      <point x="62" y="422" type="line"/>
    </contour>
  </outline>
</glyph>
<glyph name="Ja.gj" format="2">
  <advance width="1942"/>
  <unicode hex="0A9C"/>
  <anchor x="1190" y="-69" name="Bottom"/>
  <anchor x="1454" y="1264" name="Top"/>
  <anchor x="1698" y="1264" name="Top2"/>
  <outline>
    <contour>
      <point x="1357" y="680" type="line"/>
      <point x="1948" y="1157" type="line"/>
      <point x="1948" y="1187" type="line"/>
      <point x="1460" y="1187" type="line"/>
      <point x="1077" y="846" type="line"/>
    </contour>
    <contour>
      <point x="489" y="306" type="line"/>
      <point x="489" y="783" type="line" smooth="yes"/>
      <point x="489" y="867"/>
      <point x="520" y="913"/>
      <point x="591" y="913" type="curve" smooth="yes"/>
      <point x="642" y="913"/>
      <point x="679" y="889"/>
      <point x="756" y="833" type="curve" smooth="yes"/>
      <point x="1077" y="598" type="line"/>
      <point x="1432" y="730" type="line"/>
      <point x="1038" y="1036" type="line" smooth="yes"/>
      <point x="880" y="1159"/>
      <point x="752" y="1226"/>
      <point x="550" y="1226" type="curve" smooth="yes"/>
      <point x="251" y="1226"/>
      <point x="98" y="1064"/>
      <point x="98" y="790" type="curve" smooth="yes"/>
      <point x="98" y="377" type="line"/>
    </contour>
    <contour>
      <point x="1180" y="-36" type="curve" smooth="yes"/>
      <point x="1538" y="-36"/>
      <point x="1742" y="87"/>
      <point x="1742" y="324" type="curve" smooth="yes"/>
      <point x="1742" y="328" type="line" smooth="yes"/>
      <point x="1742" y="502"/>
      <point x="1654" y="598"/>
      <point x="1488" y="714" type="curve" smooth="yes"/>
      <point x="1428" y="756" type="line"/>
      <point x="1077" y="624" type="line"/>
      <point x="1192" y="546" type="line" smooth="yes"/>
      <point x="1285" y="483"/>
      <point x="1337" y="447"/>
      <point x="1337" y="379" type="curve" smooth="yes"/>
      <point x="1337" y="376" type="line" smooth="yes"/>
      <point x="1337" y="306"/>
      <point x="1281" y="271"/>
      <point x="1180" y="271" type="curve" smooth="yes"/>
      <point x="1073" y="271"/>
      <point x="1016" y="306"/>
      <point x="1016" y="376" type="curve" smooth="yes"/>
      <point x="1016" y="379" type="line" smooth="yes"/>
      <point x="1016" y="447"/>
      <point x="1071" y="490"/>
      <point x="1160" y="554" type="curve" smooth="yes"/>
      <point x="1306" y="660" type="line"/>
      <point x="1052" y="862" type="line"/>
      <point x="867" y="721" type="line" smooth="yes"/>
      <point x="707" y="599"/>
      <point x="610" y="506"/>
      <point x="610" y="333" type="curve" smooth="yes"/>
      <point x="610" y="329" type="line" smooth="yes"/>
      <point x="610" y="89"/>
      <point x="817" y="-36"/>
    </contour>
  </outline>
</glyph>
<glyph name="Jha.gj" format="2">
  <advance width="1907"/>
  <unicode hex="0A9D"/>
  <anchor x="1352" y="-69" name="Bottom"/>
  <anchor x="1361" y="1264" name="Top"/>
  <anchor x="1584" y="1264" name="Top2"/>
  <outline>
    <contour>
      <point x="455" y="88" type="curve" smooth="yes"/>
      <point x="821" y="88"/>
      <point x="1056" y="257"/>
      <point x="1056" y="650" type="curve" smooth="yes"/>
      <point x="1056" y="664" type="line" smooth="yes"/>
      <point x="1056" y="1056"/>
      <point x="821" y="1226"/>
      <point x="455" y="1226" type="curve" smooth="yes"/>
      <point x="339" y="1226"/>
      <point x="213" y="1202"/>
      <point x="120" y="1159" type="curve"/>
      <point x="90" y="844" type="line"/>
      <point x="175" y="879"/>
      <point x="273" y="906"/>
      <point x="373" y="906" type="curve" smooth="yes"/>
      <point x="554" y="906"/>
      <point x="643" y="826"/>
      <point x="643" y="664" type="curve" smooth="yes"/>
      <point x="643" y="651" type="line" smooth="yes"/>
      <point x="643" y="491"/>
      <point x="556" y="408"/>
      <point x="376" y="408" type="curve" smooth="yes"/>
      <point x="263" y="408"/>
      <point x="170" y="431"/>
      <point x="72" y="468" type="curve"/>
      <point x="106" y="167" type="line"/>
      <point x="191" y="120"/>
      <point x="320" y="88"/>
    </contour>
    <contour>
      <point x="1332" y="-36" type="curve" smooth="yes"/>
      <point x="1678" y="-36"/>
      <point x="1831" y="103"/>
      <point x="1831" y="374" type="curve" smooth="yes"/>
      <point x="1831" y="381" type="line" smooth="yes"/>
      <point x="1831" y="639"/>
      <point x="1655" y="783"/>
      <point x="1341" y="783" type="curve"/>
      <point x="1290" y="797" type="line"/>
      <point x="996" y="797" type="line"/>
      <point x="996" y="523" type="line"/>
      <point x="1243" y="523" type="line" smooth="yes"/>
      <point x="1368" y="523"/>
      <point x="1436" y="488"/>
      <point x="1436" y="399" type="curve" smooth="yes"/>
      <point x="1436" y="390" type="line" smooth="yes"/>
      <point x="1436" y="315"/>
      <point x="1386" y="271"/>
      <point x="1265" y="271" type="curve" smooth="yes"/>
      <point x="1195" y="271"/>
      <point x="1124" y="283"/>
      <point x="1062" y="301" type="curve"/>
      <point x="1097" y="0" type="line"/>
      <point x="1167" y="-23"/>
      <point x="1250" y="-36"/>
    </contour>
    <contour>
      <point x="1368" y="687" type="line"/>
      <point x="1453" y="739"/>
      <point x="1524" y="802"/>
      <point x="1585" y="876" type="curve" smooth="yes"/>
      <point x="1827" y="1166" type="line"/>
      <point x="1827" y="1187" type="line"/>
      <point x="1341" y="1187" type="line"/>
      <point x="1074" y="732" type="line"/>
    </contour>
  </outline>
</glyph>
<glyph name="Nya.gj" format="2">
  <advance width="1810"/>
  <unicode hex="0A9E"/>
  <guideline x="1349" y="765" angle="270"/>
  <guideline x="1290" y="775" angle="270"/>
  <anchor x="1442" y="-69" name="Bottom"/>
  <anchor x="1422" y="1264" name="Top"/>
  <anchor x="1486" y="1264" name="Top2"/>
  <outline>
    <contour>
      <point x="455" y="114" type="curve" smooth="yes"/>
      <point x="807" y="114"/>
      <point x="1032" y="271"/>
      <point x="1032" y="631" type="curve" smooth="yes"/>
      <point x="1032" y="645" type="line" smooth="yes"/>
      <point x="1032" y="1007"/>
      <point x="805" y="1163"/>
      <point x="452" y="1163" type="curve" smooth="yes"/>
      <point x="336" y="1163"/>
      <point x="210" y="1139"/>
      <point x="117" y="1096" type="curve"/>
      <point x="87" y="784" type="line"/>
      <point x="172" y="820"/>
      <point x="270" y="847"/>
      <point x="370" y="847" type="curve" smooth="yes"/>
      <point x="539" y="847"/>
      <point x="619" y="781"/>
      <point x="619" y="647" type="curve" smooth="yes"/>
      <point x="619" y="633" type="line" smooth="yes"/>
      <point x="619" y="501"/>
      <point x="542" y="434"/>
      <point x="377" y="434" type="curve" smooth="yes"/>
      <point x="263" y="434"/>
      <point x="170" y="457"/>
      <point x="72" y="494" type="curve"/>
      <point x="106" y="193" type="line"/>
      <point x="192" y="146"/>
      <point x="320" y="114"/>
    </contour>
    <contour>
      <point x="924" y="472" type="line"/>
      <point x="1420" y="472" type="line"/>
      <point x="1390" y="786" type="line"/>
      <point x="924" y="786" type="line"/>
    </contour>
    <contour>
      <point x="1290" y="422" type="line"/>
      <point x="1682" y="422" type="line"/>
      <point x="1682" y="1187" type="line"/>
      <point x="1290" y="1187" type="line"/>
    </contour>
    <contour>
      <point x="1290" y="0" type="line"/>
      <point x="1682" y="0" type="line"/>
      <point x="1682" y="507" type="line"/>
      <point x="1290" y="507" type="line"/>
    </contour>
  </outline>
</glyph>
<glyph name="Ttha.gj" format="2">
  <advance width="1554"/>
  <unicode hex="0AA0"/>
  <anchor x="839" y="-69" name="Bottom"/>
  <anchor x="951" y="1264" name="Top"/>
  <anchor x="777" y="1264" name="Top2"/>
  <outline>
    <contour>
      <point x="799" y="-36" type="curve" smooth="yes"/>
      <point x="1251" y="-36"/>
      <point x="1481" y="105"/>
      <point x="1481" y="370" type="curve" smooth="yes"/>
      <point x="1481" y="372" type="line" smooth="yes"/>
      <point x="1481" y="627"/>
      <point x="1327" y="767"/>
      <point x="861" y="780" type="curve" smooth="yes"/>
      <point x="720" y="783" type="line" smooth="yes"/>
      <point x="594" y="787"/>
      <point x="573" y="812"/>
      <point x="573" y="844" type="curve" smooth="yes"/>
      <point x="573" y="849" type="line" smooth="yes"/>
      <point x="573" y="899"/>
      <point x="635" y="931"/>
      <point x="849" y="931" type="curve" smooth="yes"/>
      <point x="1011" y="931"/>
      <point x="1180" y="901"/>
      <point x="1313" y="853" type="curve"/>
      <point x="1274" y="1145" type="line"/>
      <point x="1144" y="1191"/>
      <point x="966" y="1226"/>
      <point x="751" y="1226" type="curve" smooth="yes"/>
      <point x="364" y="1226"/>
      <point x="165" y="1098"/>
      <point x="165" y="878" type="curve" smooth="yes"/>
      <point x="165" y="870" type="line" smooth="yes"/>
      <point x="165" y="723"/>
      <point x="291" y="650"/>
      <point x="411" y="615" type="curve"/>
      <point x="362" y="511" type="line"/>
      <point x="417" y="508"/>
      <point x="460" y="504"/>
      <point x="512" y="502" type="curve"/>
      <point x="720" y="497" type="line" smooth="yes"/>
      <point x="1028" y="497"/>
      <point x="1073" y="450"/>
      <point x="1073" y="383" type="curve" smooth="yes"/>
      <point x="1073" y="381" type="line" smooth="yes"/>
      <point x="1073" y="310"/>
      <point x="986" y="274"/>
      <point x="777" y="274" type="curve" smooth="yes"/>
      <point x="577" y="274"/>
      <point x="488" y="315"/>
      <point x="488" y="393" type="curve" smooth="yes"/>
      <point x="488" y="395" type="line"/>
      <point x="80" y="360" type="line"/>
      <point x="80" y="356" type="line" smooth="yes"/>
      <point x="80" y="100"/>
      <point x="322" y="-36"/>
    </contour>
    <contour>
      <point x="80" y="360" type="line"/>
      <point x="488" y="395" type="line"/>
      <point x="488" y="397" type="line" smooth="yes"/>
      <point x="488" y="454"/>
      <point x="512" y="483"/>
      <point x="570" y="515" type="curve"/>
      <point x="402" y="661" type="line"/>
      <point x="185" y="635"/>
      <point x="80" y="530"/>
      <point x="80" y="361" type="curve" smooth="yes"/>
    </contour>
  </outline>
</glyph>
<glyph name="Dda.gj" format="2">
  <advance width="1438"/>
  <unicode hex="0AA1"/>
  <guideline x="2740" y="1315" angle="90"/>
  <guideline x="2411" y="1315" angle="90"/>
  <guideline x="2208" y="1765" angle="97.9269"/>
  <guideline x="228" y="383" angle="277.3738"/>
  <guideline x="106" y="1058" angle="90"/>
  <guideline x="773" y="-206" angle="90"/>
  <anchor x="773" y="-69" name="Bottom"/>
  <anchor x="909" y="1264" name="Top"/>
  <anchor x="734" y="1264" name="Top2"/>
  <outline>
    <contour>
      <point x="736" y="-36" type="curve" smooth="yes"/>
      <point x="1103" y="-36"/>
      <point x="1350" y="76"/>
      <point x="1350" y="357" type="curve" smooth="yes"/>
      <point x="1350" y="368" type="line" smooth="yes"/>
      <point x="1350" y="603"/>
      <point x="1209" y="721"/>
      <point x="818" y="749" type="curve" smooth="yes"/>
      <point x="677" y="759" type="line" smooth="yes"/>
      <point x="566" y="767"/>
      <point x="514" y="786"/>
      <point x="514" y="831" type="curve" smooth="yes"/>
      <point x="514" y="833" type="line" smooth="yes"/>
      <point x="514" y="879"/>
      <point x="571" y="913"/>
      <point x="763" y="913" type="curve" smooth="yes"/>
      <point x="933" y="913"/>
      <point x="1115" y="881"/>
      <point x="1257" y="831" type="curve"/>
      <point x="1215" y="1148" type="line"/>
      <point x="1088" y="1193"/>
      <point x="916" y="1226"/>
      <point x="709" y="1226" type="curve" smooth="yes"/>
      <point x="310" y="1226"/>
      <point x="106" y="1099"/>
      <point x="106" y="836" type="curve" smooth="yes"/>
      <point x="106" y="828" type="line" smooth="yes"/>
      <point x="106" y="600"/>
      <point x="253" y="480"/>
      <point x="611" y="457" type="curve" smooth="yes"/>
      <point x="736" y="449" type="line" smooth="yes"/>
      <point x="905" y="438"/>
      <point x="942" y="417"/>
      <point x="942" y="367" type="curve" smooth="yes"/>
      <point x="942" y="365" type="line" smooth="yes"/>
      <point x="942" y="308"/>
      <point x="866" y="281"/>
      <point x="675" y="281" type="curve" smooth="yes"/>
      <point x="463" y="281"/>
      <point x="255" y="340"/>
      <point x="100" y="401" type="curve"/>
      <point x="143" y="68" type="line"/>
      <point x="293" y="11"/>
      <point x="496" y="-36"/>
    </contour>
  </outline>
</glyph>
<glyph name="Ddha.gj" format="2">
  <advance width="1571"/>
  <unicode hex="0AA2"/>
  <guideline x="2828" y="1739" angle="90"/>
  <guideline x="2638" y="1774" angle="90"/>
  <guideline x="843" y="-206" angle="90"/>
  <anchor x="843" y="-69" name="Bottom"/>
  <anchor x="987" y="1264" name="Top"/>
  <anchor x="818" y="1264" name="Top2"/>
  <outline>
    <contour>
      <point x="823" y="-36" type="curve" smooth="yes"/>
      <point x="1234" y="-36"/>
      <point x="1501" y="60"/>
      <point x="1501" y="297" type="curve" smooth="yes"/>
      <point x="1501" y="312" type="line" smooth="yes"/>
      <point x="1501" y="473"/>
      <point x="1355" y="568"/>
      <point x="1058" y="568" type="curve" smooth="yes"/>
      <point x="757" y="568"/>
      <point x="609" y="495"/>
      <point x="609" y="374" type="curve" smooth="yes"/>
      <point x="609" y="372" type="line" smooth="yes"/>
      <point x="609" y="292"/>
      <point x="659" y="260"/>
      <point x="782" y="231" type="curve"/>
      <point x="782" y="205" type="line"/>
      <point x="997" y="210" type="line"/>
      <point x="961" y="223"/>
      <point x="937" y="242"/>
      <point x="937" y="271" type="curve" smooth="yes"/>
      <point x="937" y="272" type="line" smooth="yes"/>
      <point x="937" y="304"/>
      <point x="969" y="322"/>
      <point x="1034" y="322" type="curve" smooth="yes"/>
      <point x="1100" y="322"/>
      <point x="1132" y="306"/>
      <point x="1132" y="274" type="curve" smooth="yes"/>
      <point x="1132" y="272" type="line" smooth="yes"/>
      <point x="1132" y="237"/>
      <point x="1079" y="219"/>
      <point x="876" y="219" type="curve"/>
      <point x="862" y="224" type="line"/>
      <point x="839" y="223"/>
      <point x="807" y="221"/>
      <point x="776" y="221" type="curve" smooth="yes"/>
      <point x="569" y="221"/>
      <point x="461" y="281"/>
      <point x="461" y="396" type="curve" smooth="yes"/>
      <point x="461" y="408" type="line" smooth="yes"/>
      <point x="461" y="516"/>
      <point x="537" y="573"/>
      <point x="704" y="590" type="curve" smooth="yes"/>
      <point x="1024" y="622" type="line" smooth="yes"/>
      <point x="1261" y="646"/>
      <point x="1364" y="728"/>
      <point x="1364" y="911" type="curve" smooth="yes"/>
      <point x="1364" y="915" type="line" smooth="yes"/>
      <point x="1364" y="1118"/>
      <point x="1198" y="1226"/>
      <point x="767" y="1226" type="curve" smooth="yes"/>
      <point x="589" y="1226"/>
      <point x="441" y="1203"/>
      <point x="326" y="1169" type="curve"/>
      <point x="280" y="879" type="line"/>
      <point x="425" y="915"/>
      <point x="584" y="943"/>
      <point x="735" y="943" type="curve" smooth="yes"/>
      <point x="929" y="943"/>
      <point x="956" y="931"/>
      <point x="956" y="901" type="curve" smooth="yes"/>
      <point x="956" y="899" type="line" smooth="yes"/>
      <point x="956" y="870"/>
      <point x="927" y="862"/>
      <point x="856" y="856" type="curve" smooth="yes"/>
      <point x="582" y="832" type="line" smooth="yes"/>
      <point x="246" y="803"/>
      <point x="68" y="673"/>
      <point x="68" y="411" type="curve" smooth="yes"/>
      <point x="68" y="399" type="line" smooth="yes"/>
      <point x="68" y="126"/>
      <point x="343" y="-36"/>
    </contour>
  </outline>
</glyph>
<glyph name="Nna.gj" format="2">
  <advance width="2209"/>
  <unicode hex="0AA3"/>
  <guideline x="3703" y="2183" angle="90"/>
  <anchor x="1841" y="-69" name="Bottom"/>
  <anchor x="1821" y="1264" name="Top"/>
  <anchor x="1885" y="1264" name="Top2"/>
  <outline>
    <contour>
      <point x="1689" y="422" type="line"/>
      <point x="2081" y="422" type="line"/>
      <point x="2081" y="1187" type="line"/>
      <point x="1689" y="1187" type="line"/>
    </contour>
    <contour>
      <point x="1689" y="0" type="line"/>
      <point x="2081" y="0" type="line"/>
      <point x="2081" y="507" type="line"/>
      <point x="1689" y="507" type="line"/>
    </contour>
    <contour>
      <point x="1019" y="408" type="curve" smooth="yes"/>
      <point x="1325" y="408"/>
      <point x="1525" y="536"/>
      <point x="1525" y="812" type="curve" smooth="yes"/>
      <point x="1525" y="824" type="line" smooth="yes"/>
      <point x="1525" y="1098"/>
      <point x="1327" y="1226"/>
      <point x="1024" y="1226" type="curve" smooth="yes"/>
      <point x="915" y="1226"/>
      <point x="798" y="1207"/>
      <point x="711" y="1174" type="curve"/>
      <point x="683" y="881" type="line"/>
      <point x="762" y="907"/>
      <point x="853" y="927"/>
      <point x="946" y="927" type="curve" smooth="yes"/>
      <point x="1055" y="927"/>
      <point x="1121" y="899"/>
      <point x="1121" y="822" type="curve" smooth="yes"/>
      <point x="1121" y="815" type="line" smooth="yes"/>
      <point x="1121" y="735"/>
      <point x="1053" y="707"/>
      <point x="941" y="707" type="curve" smooth="yes"/>
      <point x="839" y="707"/>
      <point x="757" y="726"/>
      <point x="670" y="760" type="curve"/>
      <point x="702" y="479" type="line"/>
      <point x="781" y="436"/>
      <point x="896" y="408"/>
    </contour>
    <contour>
      <point x="868" y="-36" type="curve" smooth="yes"/>
      <point x="1065" y="-36"/>
      <point x="1270" y="-5"/>
      <point x="1402" y="39" type="curve"/>
      <point x="1436" y="342" type="line"/>
      <point x="1272" y="301"/>
      <point x="1081" y="274"/>
      <point x="935" y="274" type="curve" smooth="yes"/>
      <point x="647" y="274"/>
      <point x="510" y="363"/>
      <point x="510" y="583" type="curve" smooth="yes"/>
      <point x="510" y="1187" type="line"/>
      <point x="118" y="1187" type="line"/>
      <point x="118" y="547" type="line" smooth="yes"/>
      <point x="118" y="130"/>
      <point x="365" y="-36"/>
    </contour>
  </outline>
</glyph>
<glyph name="Ta.gj" format="2">
  <advance width="1493"/>
  <unicode hex="0AA4"/>
  <anchor x="1125" y="-69" name="Bottom"/>
  <anchor x="1105" y="1264" name="Top"/>
  <anchor x="1169" y="1264" name="Top2"/>
  <outline>
    <contour>
      <point x="973" y="422" type="line"/>
      <point x="1365" y="422" type="line"/>
      <point x="1365" y="1187" type="line"/>
      <point x="973" y="1187" type="line"/>
    </contour>
    <contour>
      <point x="973" y="0" type="line"/>
      <point x="1365" y="0" type="line"/>
      <point x="1365" y="507" type="line"/>
      <point x="973" y="507" type="line"/>
    </contour>
    <contour>
      <point x="223" y="0" type="curve"/>
      <point x="633" y="0" type="line"/>
      <point x="540" y="162"/>
      <point x="481" y="297"/>
      <point x="481" y="422" type="curve" smooth="yes"/>
      <point x="481" y="550"/>
      <point x="543" y="616"/>
      <point x="685" y="616" type="curve" smooth="yes"/>
      <point x="1168" y="616" type="line"/>
      <point x="1168" y="929" type="line"/>
      <point x="586" y="929" type="line" smooth="yes"/>
      <point x="223" y="929"/>
      <point x="68" y="757"/>
      <point x="68" y="468" type="curve" smooth="yes"/>
      <point x="68" y="290"/>
      <point x="131" y="139"/>
    </contour>
  </outline>
</glyph>
<glyph name="Tha.gj" format="2">
  <advance width="1752"/>
  <unicode hex="0AA5"/>
  <anchor x="1384" y="-69" name="Bottom"/>
  <anchor x="1364" y="1264" name="Top"/>
  <anchor x="1428" y="1264" name="Top2"/>
  <outline>
    <contour>
      <point x="731" y="34" type="curve" smooth="yes"/>
      <point x="1025" y="34"/>
      <point x="1167" y="136"/>
      <point x="1221" y="279" type="curve"/>
      <point x="1253" y="279" type="line"/>
      <point x="1240" y="519" type="line"/>
      <point x="1191" y="414"/>
      <point x="1047" y="340"/>
      <point x="803" y="340" type="curve" smooth="yes"/>
      <point x="535" y="340"/>
      <point x="456" y="436"/>
      <point x="456" y="554" type="curve" smooth="yes"/>
      <point x="456" y="570"/>
      <point x="456" y="584"/>
      <point x="456" y="600" type="curve"/>
      <point x="316" y="431" type="line"/>
      <point x="544" y="433" type="line" smooth="yes"/>
      <point x="925" y="436"/>
      <point x="1092" y="572"/>
      <point x="1092" y="823" type="curve" smooth="yes"/>
      <point x="1092" y="830" type="line" smooth="yes"/>
      <point x="1092" y="1087"/>
      <point x="917" y="1226"/>
      <point x="586" y="1226" type="curve" smooth="yes"/>
      <point x="269" y="1226"/>
      <point x="100" y="1105"/>
      <point x="100" y="910" type="curve" smooth="yes"/>
      <point x="100" y="859"/>
      <point x="113" y="816"/>
      <point x="134" y="782" type="curve"/>
      <point x="462" y="782" type="line"/>
      <point x="462" y="786"/>
      <point x="462" y="798"/>
      <point x="462" y="825" type="curve" smooth="yes"/>
      <point x="462" y="902"/>
      <point x="506" y="940"/>
      <point x="588" y="940" type="curve" smooth="yes"/>
      <point x="668" y="940"/>
      <point x="707" y="901"/>
      <point x="707" y="826" type="curve" smooth="yes"/>
      <point x="707" y="823" type="line" smooth="yes"/>
      <point x="707" y="735"/>
      <point x="649" y="686"/>
      <point x="462" y="686" type="curve" smooth="yes"/>
      <point x="98" y="686" type="line"/>
      <point x="92" y="648"/>
      <point x="88" y="606"/>
      <point x="88" y="550" type="curve" smooth="yes"/>
      <point x="88" y="210"/>
      <point x="305" y="34"/>
    </contour>
    <contour>
      <point x="1232" y="422" type="line"/>
      <point x="1624" y="422" type="line"/>
      <point x="1624" y="1187" type="line"/>
      <point x="1232" y="1187" type="line"/>
    </contour>
    <contour>
      <point x="1232" y="0" type="line"/>
      <point x="1624" y="0" type="line"/>
      <point x="1624" y="507" type="line"/>
      <point x="1232" y="507" type="line"/>
    </contour>
  </outline>
</glyph>
<glyph name="Dha.gj" format="2">
  <advance width="1636"/>
  <unicode hex="0AA7"/>
  <guideline x="1268" y="-206" angle="90"/>
  <guideline x="1116" y="-206" angle="90"/>
  <guideline x="1508" y="-206" angle="90"/>
  <anchor x="1268" y="-69" name="Bottom"/>
  <anchor x="1248" y="1264" name="Top"/>
  <anchor x="1312" y="1264" name="Top2"/>
  <outline>
    <contour>
      <point x="614" y="36" type="curve" smooth="yes"/>
      <point x="910" y="36"/>
      <point x="1039" y="128"/>
      <point x="1105" y="265" type="curve"/>
      <point x="1140" y="265" type="line"/>
      <point x="1123" y="505" type="line"/>
      <point x="1097" y="424"/>
      <point x="961" y="346"/>
      <point x="749" y="346" type="curve" smooth="yes"/>
      <point x="560" y="346"/>
      <point x="496" y="377"/>
      <point x="496" y="449" type="curve" smooth="yes"/>
      <point x="496" y="450" type="line" smooth="yes"/>
      <point x="496" y="509"/>
      <point x="533" y="538"/>
      <point x="644" y="541" type="curve" smooth="yes"/>
      <point x="936" y="548" type="line"/>
      <point x="936" y="826" type="line"/>
      <point x="635" y="835" type="line" smooth="yes"/>
      <point x="533" y="838"/>
      <point x="496" y="863"/>
      <point x="496" y="913" type="curve" smooth="yes"/>
      <point x="496" y="915" type="line" smooth="yes"/>
      <point x="496" y="1007"/>
      <point x="626" y="1105"/>
      <point x="828" y="1250" type="curve"/>
      <point x="828" y="1266" type="line"/>
      <point x="328" y="1266" type="line"/>
      <point x="151" y="1146"/>
      <point x="84" y="1056"/>
      <point x="84" y="933" type="curve" smooth="yes"/>
      <point x="84" y="931" type="line" smooth="yes"/>
      <point x="84" y="787"/>
      <point x="169" y="710"/>
      <point x="384" y="692" type="curve"/>
      <point x="384" y="685" type="line"/>
      <point x="178" y="666"/>
      <point x="84" y="575"/>
      <point x="84" y="401" type="curve" smooth="yes"/>
      <point x="84" y="392" type="line" smooth="yes"/>
      <point x="84" y="172"/>
      <point x="258" y="36"/>
    </contour>
    <contour>
      <point x="1116" y="422" type="line"/>
      <point x="1508" y="422" type="line"/>
      <point x="1508" y="1187" type="line"/>
      <point x="1116" y="1187" type="line"/>
    </contour>
    <contour>
      <point x="1116" y="0" type="line"/>
      <point x="1508" y="0" type="line"/>
      <point x="1508" y="507" type="line"/>
      <point x="1116" y="507" type="line"/>
    </contour>
  </outline>
</glyph>
<glyph name="Na.gj" format="2">
  <advance width="1497"/>
  <unicode hex="0AA8"/>
  <anchor x="1129" y="-69" name="Bottom"/>
  <anchor x="1109" y="1264" name="Top"/>
  <anchor x="1173" y="1264" name="Top2"/>
  <outline>
    <contour>
      <point x="977" y="422" type="line"/>
      <point x="1369" y="422" type="line"/>
      <point x="1369" y="1187" type="line"/>
      <point x="977" y="1187" type="line"/>
    </contour>
    <contour>
      <point x="977" y="0" type="line"/>
      <point x="1369" y="0" type="line"/>
      <point x="1369" y="507" type="line"/>
      <point x="977" y="507" type="line"/>
    </contour>
    <contour>
      <point x="213" y="183" type="curve"/>
      <point x="562" y="183" type="line"/>
      <point x="562" y="885" type="line"/>
      <point x="215" y="885" type="line"/>
      <point x="39" y="789" type="line"/>
      <point x="50" y="545"/>
      <point x="119" y="336"/>
    </contour>
    <contour>
      <point x="447" y="571" type="line"/>
      <point x="1105" y="571" type="line"/>
      <point x="1075" y="885" type="line"/>
      <point x="447" y="885" type="line"/>
    </contour>
  </outline>
</glyph>
<glyph name="Pa.gj" format="2">
  <advance width="1544"/>
  <unicode hex="0AAA"/>
  <guideline x="1176" y="-206" angle="90"/>
  <guideline x="1024" y="-206" angle="90"/>
  <guideline x="1416" y="1394" angle="90"/>
  <guideline x="31" y="1394" angle="90"/>
  <guideline x="818" y="1187" angle="0"/>
  <guideline x="829" y="0" angle="0"/>
  <anchor x="1176" y="-69" name="Bottom"/>
  <anchor x="1156" y="1264" name="Top"/>
  <anchor x="1220" y="1264" name="Top2"/>
  <outline>
    <contour>
      <point x="646" y="178" type="curve" smooth="yes"/>
      <point x="867" y="178"/>
      <point x="975" y="273"/>
      <point x="1013" y="401" type="curve"/>
      <point x="1037" y="401" type="line"/>
      <point x="1029" y="651" type="line"/>
      <point x="1009" y="570"/>
      <point x="926" y="502"/>
      <point x="787" y="502" type="curve" smooth="yes"/>
      <point x="645" y="502"/>
      <point x="574" y="577"/>
      <point x="574" y="724" type="curve" smooth="yes"/>
      <point x="574" y="805" type="line"/>
      <point x="182" y="799" type="line"/>
      <point x="182" y="667" type="line" smooth="yes"/>
      <point x="182" y="346"/>
      <point x="344" y="178"/>
    </contour>
    <contour>
      <point x="182" y="749" type="line"/>
      <point x="574" y="749" type="line"/>
      <point x="574" y="858" type="line" smooth="yes"/>
      <point x="574" y="1098"/>
      <point x="468" y="1202"/>
      <point x="265" y="1202" type="curve" smooth="yes"/>
      <point x="174" y="1202"/>
      <point x="110" y="1191"/>
      <point x="55" y="1175" type="curve"/>
      <point x="31" y="895" type="line"/>
      <point x="55" y="899"/>
      <point x="78" y="902"/>
      <point x="101" y="902" type="curve" smooth="yes"/>
      <point x="161" y="902"/>
      <point x="182" y="867"/>
      <point x="182" y="805" type="curve" smooth="yes"/>
    </contour>
    <contour>
      <point x="1024" y="422" type="line"/>
      <point x="1416" y="422" type="line"/>
      <point x="1416" y="1187" type="line"/>
      <point x="1024" y="1187" type="line"/>
    </contour>
    <contour>
      <point x="1024" y="0" type="line"/>
      <point x="1416" y="0" type="line"/>
      <point x="1416" y="507" type="line"/>
      <point x="1024" y="507" type="line"/>
    </contour>
  </outline>
</glyph>
<glyph name="Pha.gj" format="2">
  <advance width="1497"/>
  <unicode hex="0AAB"/>
  <guideline x="1803" y="485" angle="0"/>
  <guideline x="759" y="1058" angle="90"/>
  <guideline x="939" y="1058" angle="90"/>
  <guideline x="164" y="1003" angle="90"/>
  <guideline x="164" y="603" angle="90"/>
  <guideline x="772" y="-606" angle="90"/>
  <guideline x="869" y="-345" angle="0"/>
  <anchor x="869" y="-378" name="Bottom"/>
  <anchor x="939" y="1264" name="Top"/>
  <anchor x="739" y="1264" name="Top2"/>
  <outline>
    <contour>
      <point x="732" y="-36" type="curve" smooth="yes"/>
      <point x="1101" y="-36"/>
      <point x="1351" y="62"/>
      <point x="1351" y="283" type="curve" smooth="yes"/>
      <point x="1351" y="290" type="line" smooth="yes"/>
      <point x="1351" y="457"/>
      <point x="1186" y="546"/>
      <point x="924" y="546" type="curve"/>
      <point x="805" y="470" type="line"/>
      <point x="898" y="470"/>
      <point x="943" y="438"/>
      <point x="943" y="384" type="curve" smooth="yes"/>
      <point x="943" y="383" type="line" smooth="yes"/>
      <point x="943" y="308"/>
      <point x="859" y="281"/>
      <point x="688" y="281" type="curve" smooth="yes"/>
      <point x="481" y="281"/>
      <point x="314" y="295"/>
      <point x="154" y="317" type="curve"/>
      <point x="193" y="11" type="line"/>
      <point x="326" y="-14"/>
      <point x="510" y="-36"/>
    </contour>
    <contour>
      <point x="588" y="653" type="curve"/>
      <point x="772" y="725" type="line"/>
      <point x="622" y="727"/>
      <point x="572" y="758"/>
      <point x="572" y="813" type="curve" smooth="yes"/>
      <point x="572" y="815" type="line" smooth="yes"/>
      <point x="572" y="870"/>
      <point x="634" y="913"/>
      <point x="839" y="913" type="curve" smooth="yes"/>
      <point x="981" y="913"/>
      <point x="1131" y="899"/>
      <point x="1250" y="878" type="curve"/>
      <point x="1209" y="1169" type="line"/>
      <point x="1097" y="1202"/>
      <point x="940" y="1226"/>
      <point x="759" y="1226" type="curve" smooth="yes"/>
      <point x="367" y="1226"/>
      <point x="164" y="1120"/>
      <point x="164" y="904" type="curve" smooth="yes"/>
      <point x="164" y="901" type="line" smooth="yes"/>
      <point x="164" y="710"/>
      <point x="342" y="653"/>
    </contour>
    <contour>
      <point x="66" y="384" type="line"/>
      <point x="977" y="470" type="line"/>
      <point x="608" y="688" type="line"/>
      <point x="66" y="678" type="line"/>
    </contour>
    <contour>
      <point x="607" y="-345" type="line"/>
      <point x="1131" y="-345" type="line"/>
      <point x="1131" y="-335" type="line"/>
      <point x="976" y="-199" type="line" smooth="yes"/>
      <point x="906" y="-137"/>
      <point x="775" y="-37"/>
      <point x="526" y="53" type="curve"/>
      <point x="316" y="36" type="line"/>
    </contour>
    <contour>
      <point x="517" y="716" type="line"/>
      <point x="651" y="497" type="line"/>
      <point x="1449" y="530" type="line"/>
      <point x="1449" y="814" type="line"/>
    </contour>
  </outline>
</glyph>
<glyph name="Ba.gj" format="2">
  <advance width="1987"/>
  <unicode hex="0AAC"/>
  <guideline x="70" y="1384" angle="90"/>
  <guideline x="3751" y="1743" angle="90"/>
  <guideline x="2611" y="1743" angle="90"/>
  <guideline x="3308" y="2186" angle="90"/>
  <guideline x="497" y="1175" angle="0"/>
  <guideline x="497" y="1217" angle="0"/>
  <guideline x="1859" y="1339" angle="90"/>
  <anchor x="1619" y="-69" name="Bottom"/>
  <anchor x="1599" y="1264" name="Top"/>
  <anchor x="1663" y="1264" name="Top2"/>
  <outline>
    <contour>
      <point x="1467" y="422" type="line"/>
      <point x="1859" y="422" type="line"/>
      <point x="1859" y="1187" type="line"/>
      <point x="1467" y="1187" type="line"/>
    </contour>
    <contour>
      <point x="1467" y="0" type="line"/>
      <point x="1859" y="0" type="line"/>
      <point x="1859" y="507" type="line"/>
      <point x="1467" y="507" type="line"/>
    </contour>
    <contour>
      <point x="1014" y="469" type="line"/>
      <point x="1680" y="469" type="line"/>
      <point x="1650" y="783" type="line"/>
      <point x="1014" y="783" type="line"/>
    </contour>
    <contour>
      <point x="650" y="84" type="curve" smooth="yes"/>
      <point x="997" y="84"/>
      <point x="1186" y="253"/>
      <point x="1186" y="564" type="curve" smooth="yes"/>
      <point x="1186" y="1020" type="line"/>
      <point x="790" y="1020" type="line"/>
      <point x="790" y="570" type="line" smooth="yes"/>
      <point x="790" y="459"/>
      <point x="742" y="404"/>
      <point x="650" y="404" type="curve" smooth="yes"/>
      <point x="536" y="404"/>
      <point x="483" y="486"/>
      <point x="483" y="650" type="curve" smooth="yes"/>
      <point x="483" y="668" type="line" smooth="yes"/>
      <point x="483" y="849"/>
      <point x="548" y="1002"/>
      <point x="666" y="1187" type="curve"/>
      <point x="255" y="1187" type="line"/>
      <point x="153" y="1063"/>
      <point x="70" y="869"/>
      <point x="70" y="660" type="curve" smooth="yes"/>
      <point x="70" y="643" type="line" smooth="yes"/>
      <point x="70" y="274"/>
      <point x="269" y="84"/>
    </contour>
  </outline>
</glyph>
<glyph name="Bha.gj" format="2">
  <advance width="2097"/>
  <unicode hex="0AAD"/>
  <anchor x="1729" y="-69" name="Bottom"/>
  <anchor x="1709" y="1264" name="Top"/>
  <anchor x="1773" y="1264" name="Top2"/>
  <outline>
    <contour>
      <point x="1577" y="422" type="line"/>
      <point x="1969" y="422" type="line"/>
      <point x="1969" y="1187" type="line"/>
      <point x="1577" y="1187" type="line"/>
    </contour>
    <contour>
      <point x="1577" y="0" type="line"/>
      <point x="1969" y="0" type="line"/>
      <point x="1969" y="507" type="line"/>
      <point x="1577" y="507" type="line"/>
    </contour>
    <contour>
      <point x="1111" y="389" type="line"/>
      <point x="1769" y="389" type="line"/>
      <point x="1739" y="703" type="line"/>
      <point x="1111" y="703" type="line"/>
    </contour>
    <contour>
      <point x="264" y="0" type="curve"/>
      <point x="692" y="0" type="line"/>
      <point x="560" y="178"/>
      <point x="478" y="367"/>
      <point x="478" y="577" type="curve" smooth="yes"/>
      <point x="478" y="587" type="line" smooth="yes"/>
      <point x="478" y="796"/>
      <point x="589" y="906"/>
      <point x="799" y="906" type="curve" smooth="yes"/>
      <point x="836" y="906"/>
      <point x="875" y="901"/>
      <point x="912" y="888" type="curve"/>
      <point x="855" y="986" type="line"/>
      <point x="855" y="604" type="line"/>
      <point x="1247" y="604" type="line"/>
      <point x="1247" y="1165" type="line"/>
      <point x="1108" y="1207"/>
      <point x="951" y="1226"/>
      <point x="802" y="1226" type="curve" smooth="yes"/>
      <point x="304" y="1226"/>
      <point x="65" y="1004"/>
      <point x="65" y="595" type="curve" smooth="yes"/>
      <point x="65" y="577" type="line" smooth="yes"/>
      <point x="65" y="352"/>
      <point x="140" y="137"/>
    </contour>
    <contour>
      <point x="870" y="134" type="curve"/>
      <point x="1240" y="134" type="line"/>
      <point x="1240" y="689" type="line"/>
      <point x="871" y="689" type="line"/>
      <point x="695" y="593" type="line"/>
      <point x="706" y="406"/>
      <point x="775" y="249"/>
    </contour>
  </outline>
</glyph>
<glyph name="Ma.gj" format="2">
  <advance width="1615"/>
  <unicode hex="0AAE"/>
  <anchor x="1247" y="-69" name="Bottom"/>
  <anchor x="1227" y="1264" name="Top"/>
  <anchor x="1291" y="1264" name="Top2"/>
  <outline>
    <contour>
      <point x="263" y="571" type="line"/>
      <point x="655" y="577" type="line"/>
      <point x="655" y="840" type="line" smooth="yes"/>
      <point x="655" y="1093"/>
      <point x="541" y="1202"/>
      <point x="322" y="1202" type="curve" smooth="yes"/>
      <point x="219" y="1202"/>
      <point x="147" y="1189"/>
      <point x="83" y="1169" type="curve"/>
      <point x="60" y="890" type="line"/>
      <point x="92" y="897"/>
      <point x="126" y="902"/>
      <point x="158" y="902" type="curve" smooth="yes"/>
      <point x="236" y="902"/>
      <point x="263" y="860"/>
      <point x="263" y="787" type="curve" smooth="yes"/>
    </contour>
    <contour>
      <point x="272" y="94" type="curve"/>
      <point x="642" y="94" type="line"/>
      <point x="642" y="678" type="line"/>
      <point x="274" y="678" type="line"/>
      <point x="97" y="582" type="line"/>
      <point x="108" y="384"/>
      <point x="178" y="217"/>
    </contour>
    <contour>
      <point x="582" y="385" type="line"/>
      <point x="1291" y="385" type="line"/>
      <point x="1261" y="699" type="line"/>
      <point x="582" y="699" type="line"/>
    </contour>
    <contour>
      <point x="1095" y="422" type="line"/>
      <point x="1487" y="422" type="line"/>
      <point x="1487" y="1187" type="line"/>
      <point x="1095" y="1187" type="line"/>
    </contour>
    <contour>
      <point x="1095" y="0" type="line"/>
      <point x="1487" y="0" type="line"/>
      <point x="1487" y="507" type="line"/>
      <point x="1095" y="507" type="line"/>
    </contour>
  </outline>
</glyph>
<glyph name="Ya.gj" format="2">
  <advance width="1706"/>
  <unicode hex="0AAF"/>
  <guideline x="968" y="817" angle="270"/>
  <guideline x="1338" y="-206" angle="90"/>
  <guideline x="1186" y="-206" angle="90"/>
  <guideline x="1578" y="-206" angle="90"/>
  <anchor x="1338" y="-69" name="Bottom"/>
  <anchor x="1318" y="1264" name="Top"/>
  <anchor x="1382" y="1264" name="Top2"/>
  <outline>
    <contour>
      <point x="715" y="34" type="curve" smooth="yes"/>
      <point x="1013" y="34"/>
      <point x="1135" y="148"/>
      <point x="1175" y="279" type="curve"/>
      <point x="1203" y="279" type="line"/>
      <point x="1194" y="519" type="line"/>
      <point x="1151" y="416"/>
      <point x="1025" y="351"/>
      <point x="824" y="351" type="curve" smooth="yes"/>
      <point x="601" y="351"/>
      <point x="473" y="430"/>
      <point x="473" y="569" type="curve" smooth="yes"/>
      <point x="473" y="597"/>
      <point x="473" y="597"/>
      <point x="475" y="623" type="curve"/>
      <point x="410" y="446" type="line"/>
      <point x="533" y="446" type="line" smooth="yes"/>
      <point x="796" y="446"/>
      <point x="968" y="588"/>
      <point x="968" y="812" type="curve" smooth="yes"/>
      <point x="968" y="830" type="line" smooth="yes"/>
      <point x="968" y="1097"/>
      <point x="767" y="1226"/>
      <point x="457" y="1226" type="curve" smooth="yes"/>
      <point x="330" y="1226"/>
      <point x="222" y="1205"/>
      <point x="152" y="1178" type="curve"/>
      <point x="122" y="883" type="line"/>
      <point x="198" y="902"/>
      <point x="285" y="920"/>
      <point x="383" y="920" type="curve" smooth="yes"/>
      <point x="497" y="920"/>
      <point x="564" y="891"/>
      <point x="564" y="821" type="curve" smooth="yes"/>
      <point x="564" y="810" type="line" smooth="yes"/>
      <point x="564" y="738"/>
      <point x="484" y="710"/>
      <point x="361" y="710" type="curve" smooth="yes"/>
      <point x="96" y="710" type="line"/>
      <point x="89" y="671"/>
      <point x="85" y="629"/>
      <point x="85" y="592" type="curve" smooth="yes"/>
      <point x="85" y="240"/>
      <point x="317" y="34"/>
    </contour>
    <contour>
      <point x="1186" y="422" type="line"/>
      <point x="1578" y="422" type="line"/>
      <point x="1578" y="1187" type="line"/>
      <point x="1186" y="1187" type="line"/>
    </contour>
    <contour>
      <point x="1186" y="0" type="line"/>
      <point x="1578" y="0" type="line"/>
      <point x="1578" y="507" type="line"/>
      <point x="1186" y="507" type="line"/>
    </contour>
  </outline>
</glyph>
<glyph name="Ra.gj" format="2">
  <advance width="1213"/>
  <unicode hex="0AB0"/>
  <guideline x="563" y="1058" angle="90"/>
  <guideline x="723" y="1058" angle="90"/>
  <guideline x="633" y="1518" angle="90"/>
  <guideline x="1135" y="804" angle="270"/>
  <anchor x="896" y="-69" name="Bottom"/>
  <anchor x="723" y="1264" name="Top"/>
  <anchor x="633" y="1264" name="Top2"/>
  <outline>
    <contour>
      <point x="418" y="331" type="line"/>
      <point x="431" y="406" type="line"/>
      <point x="637" y="406" type="line" smooth="yes"/>
      <point x="949" y="406"/>
      <point x="1135" y="557"/>
      <point x="1135" y="794" type="curve" smooth="yes"/>
      <point x="1135" y="813" type="line" smooth="yes"/>
      <point x="1135" y="1093"/>
      <point x="906" y="1226"/>
      <point x="563" y="1226" type="curve" smooth="yes"/>
      <point x="401" y="1226"/>
      <point x="256" y="1205"/>
      <point x="150" y="1171" type="curve"/>
      <point x="119" y="863" type="line"/>
      <point x="233" y="889"/>
      <point x="376" y="909"/>
      <point x="488" y="909" type="curve" smooth="yes"/>
      <point x="641" y="909"/>
      <point x="722" y="879"/>
      <point x="722" y="803" type="curve" smooth="yes"/>
      <point x="722" y="792" type="line" smooth="yes"/>
      <point x="722" y="714"/>
      <point x="634" y="684"/>
      <point x="483" y="684" type="curve" smooth="yes"/>
      <point x="62" y="684" type="line"/>
      <point x="62" y="409" type="line"/>
    </contour>
    <contour>
      <point x="837" y="-36" type="curve" smooth="yes"/>
      <point x="932" y="-36"/>
      <point x="1009" y="-21"/>
      <point x="1085" y="5" type="curve"/>
      <point x="1121" y="315" type="line"/>
      <point x="1080" y="299"/>
      <point x="991" y="281"/>
      <point x="918" y="281" type="curve" smooth="yes"/>
      <point x="763" y="281"/>
      <point x="629" y="325"/>
      <point x="582" y="487" type="curve" smooth="yes"/>
      <point x="559" y="567" type="line"/>
      <point x="200" y="502" type="line"/>
      <point x="224" y="406" type="line" smooth="yes"/>
      <point x="302" y="93"/>
      <point x="548" y="-36"/>
    </contour>
  </outline>
</glyph>
<glyph name="La.gj" format="2">
  <advance width="1871"/>
  <unicode hex="0AB2"/>
  <guideline x="3094" y="1388" angle="90"/>
  <guideline x="1956" y="1784" angle="96.953"/>
  <guideline x="1351" y="1039" angle="90"/>
  <guideline x="1351" y="1039" angle="90"/>
  <guideline x="489" y="896" angle="270"/>
  <anchor x="1503" y="-69" name="Bottom"/>
  <anchor x="1483" y="1264" name="Top"/>
  <anchor x="1547" y="1264" name="Top2"/>
  <outline>
    <contour>
      <point x="1351" y="422" type="line"/>
      <point x="1743" y="422" type="line"/>
      <point x="1743" y="1187" type="line"/>
      <point x="1351" y="1187" type="line"/>
    </contour>
    <contour>
      <point x="1351" y="0" type="line"/>
      <point x="1743" y="0" type="line"/>
      <point x="1743" y="507" type="line"/>
      <point x="1351" y="507" type="line"/>
    </contour>
    <contour>
      <point x="762" y="-4" type="curve" smooth="yes"/>
      <point x="903" y="-4"/>
      <point x="1002" y="14"/>
      <point x="1095" y="45" type="curve"/>
      <point x="1131" y="350" type="line"/>
      <point x="1045" y="327"/>
      <point x="946" y="313"/>
      <point x="835" y="313" type="curve" smooth="yes"/>
      <point x="601" y="313"/>
      <point x="489" y="402"/>
      <point x="489" y="591" type="curve" smooth="yes"/>
      <point x="489" y="600" type="line" smooth="yes"/>
      <point x="489" y="789"/>
      <point x="602" y="877"/>
      <point x="844" y="877" type="curve" smooth="yes"/>
      <point x="956" y="877"/>
      <point x="1045" y="868"/>
      <point x="1122" y="854" type="curve"/>
      <point x="1086" y="1146" type="line"/>
      <point x="999" y="1173"/>
      <point x="874" y="1194"/>
      <point x="735" y="1194" type="curve" smooth="yes"/>
      <point x="302" y="1194"/>
      <point x="76" y="991"/>
      <point x="76" y="603" type="curve" smooth="yes"/>
      <point x="76" y="586" type="line" smooth="yes"/>
      <point x="76" y="199"/>
      <point x="311" y="-4"/>
    </contour>
    <contour>
      <point x="728" y="424" type="line"/>
      <point x="1593" y="571" type="line"/>
      <point x="1598" y="869" type="line"/>
      <point x="758" y="730" type="line"/>
    </contour>
  </outline>
</glyph>
<glyph name="Lla.gj" format="2">
  <advance width="1980"/>
  <unicode hex="0AB3"/>
  <anchor x="1612" y="-69" name="Bottom"/>
  <anchor x="1397" y="1264" name="Top"/>
  <anchor x="1317" y="1264" name="Top2"/>
  <outline>
    <contour>
      <point x="1460" y="0" type="line"/>
      <point x="1852" y="0" type="line"/>
      <point x="1852" y="746" type="line" smooth="yes"/>
      <point x="1852" y="1063"/>
      <point x="1668" y="1226"/>
      <point x="1317" y="1226" type="curve" smooth="yes"/>
      <point x="972" y="1226"/>
      <point x="782" y="1063"/>
      <point x="782" y="760" type="curve" smooth="yes"/>
      <point x="782" y="696"/>
      <point x="789" y="630"/>
      <point x="789" y="566" type="curve" smooth="yes"/>
      <point x="789" y="457"/>
      <point x="739" y="404"/>
      <point x="648" y="404" type="curve" smooth="yes"/>
      <point x="536" y="404"/>
      <point x="483" y="486"/>
      <point x="483" y="650" type="curve" smooth="yes"/>
      <point x="483" y="668" type="line" smooth="yes"/>
      <point x="483" y="849"/>
      <point x="547" y="1002"/>
      <point x="664" y="1187" type="curve"/>
      <point x="256" y="1187" type="line"/>
      <point x="155" y="1061"/>
      <point x="70" y="865"/>
      <point x="70" y="653" type="curve" smooth="yes"/>
      <point x="70" y="635" type="line" smooth="yes"/>
      <point x="70" y="272"/>
      <point x="267" y="84"/>
      <point x="648" y="84" type="curve" smooth="yes"/>
      <point x="993" y="84"/>
      <point x="1184" y="247"/>
      <point x="1184" y="550" type="curve" smooth="yes"/>
      <point x="1184" y="614"/>
      <point x="1177" y="680"/>
      <point x="1177" y="744" type="curve" smooth="yes"/>
      <point x="1177" y="853"/>
      <point x="1227" y="906"/>
      <point x="1317" y="906" type="curve" smooth="yes"/>
      <point x="1408" y="906"/>
      <point x="1460" y="853"/>
      <point x="1460" y="744" type="curve" smooth="yes"/>
    </contour>
  </outline>
</glyph>
<glyph name="Va.gj" format="2">
  <advance width="1565"/>
  <unicode hex="0AB5"/>
  <guideline x="1865" y="821" angle="0"/>
  <guideline x="1197" y="-206" angle="90"/>
  <guideline x="1045" y="-206" angle="90"/>
  <guideline x="1437" y="1494" angle="90"/>
  <guideline x="64" y="1494" angle="90"/>
  <anchor x="1197" y="-69" name="Bottom"/>
  <anchor x="1177" y="1264" name="Top"/>
  <anchor x="1241" y="1264" name="Top2"/>
  <outline>
    <contour>
      <point x="617" y="155" type="curve" smooth="yes"/>
      <point x="865" y="155"/>
      <point x="993" y="240"/>
      <point x="1034" y="379" type="curve"/>
      <point x="1066" y="379" type="line"/>
      <point x="1050" y="629" type="line"/>
      <point x="1027" y="547"/>
      <point x="925" y="479"/>
      <point x="747" y="479" type="curve" smooth="yes"/>
      <point x="569" y="479"/>
      <point x="477" y="541"/>
      <point x="477" y="666" type="curve" smooth="yes"/>
      <point x="477" y="675" type="line" smooth="yes"/>
      <point x="477" y="807"/>
      <point x="565" y="870"/>
      <point x="753" y="870" type="curve" smooth="yes"/>
      <point x="822" y="870"/>
      <point x="877" y="860"/>
      <point x="923" y="844" type="curve"/>
      <point x="886" y="1146" type="line"/>
      <point x="822" y="1169"/>
      <point x="729" y="1187"/>
      <point x="626" y="1187" type="curve" smooth="yes"/>
      <point x="258" y="1187"/>
      <point x="64" y="1013"/>
      <point x="64" y="678" type="curve" smooth="yes"/>
      <point x="64" y="662" type="line" smooth="yes"/>
      <point x="64" y="328"/>
      <point x="260" y="155"/>
    </contour>
    <contour>
      <point x="1045" y="422" type="line"/>
      <point x="1437" y="422" type="line"/>
      <point x="1437" y="1187" type="line"/>
      <point x="1045" y="1187" type="line"/>
    </contour>
    <contour>
      <point x="1045" y="0" type="line"/>
      <point x="1437" y="0" type="line"/>
      <point x="1437" y="507" type="line"/>
      <point x="1045" y="507" type="line"/>
    </contour>
  </outline>
</glyph>
<glyph name="Sha.gj" format="2">
  <advance width="1953"/>
  <unicode hex="0AB6"/>
  <guideline x="2209" y="2658" angle="90"/>
  <guideline x="369" y="2370" angle="90"/>
  <guideline x="169" y="1923" angle="90"/>
  <guideline x="2121" y="285" angle="83.4802"/>
  <anchor x="1585" y="-69" name="Bottom"/>
  <anchor x="1565" y="1264" name="Top"/>
  <anchor x="1629" y="1264" name="Top2"/>
  <outline>
    <contour>
      <point x="1433" y="422" type="line"/>
      <point x="1825" y="422" type="line"/>
      <point x="1825" y="1187" type="line"/>
      <point x="1433" y="1187" type="line"/>
    </contour>
    <contour>
      <point x="1433" y="0" type="line"/>
      <point x="1825" y="0" type="line"/>
      <point x="1825" y="507" type="line"/>
      <point x="1433" y="507" type="line"/>
    </contour>
    <contour>
      <point x="372" y="279" type="line"/>
      <point x="384" y="352" type="line"/>
      <point x="609" y="352" type="line" smooth="yes"/>
      <point x="1006" y="352"/>
      <point x="1242" y="513"/>
      <point x="1242" y="778" type="curve" smooth="yes"/>
      <point x="1242" y="783" type="line" smooth="yes"/>
      <point x="1242" y="1077"/>
      <point x="1048" y="1226"/>
      <point x="671" y="1226" type="curve" smooth="yes"/>
      <point x="315" y="1226"/>
      <point x="123" y="1095"/>
      <point x="123" y="856" type="curve" smooth="yes"/>
      <point x="123" y="853" type="line" smooth="yes"/>
      <point x="123" y="810"/>
      <point x="137" y="753"/>
      <point x="156" y="717" type="curve"/>
      <point x="520" y="717" type="line"/>
      <point x="514" y="735"/>
      <point x="505" y="764"/>
      <point x="505" y="789" type="curve" smooth="yes"/>
      <point x="505" y="790" type="line" smooth="yes"/>
      <point x="505" y="881"/>
      <point x="566" y="927"/>
      <point x="671" y="927" type="curve" smooth="yes"/>
      <point x="776" y="927"/>
      <point x="838" y="883"/>
      <point x="838" y="790" type="curve" smooth="yes"/>
      <point x="838" y="789" type="line" smooth="yes"/>
      <point x="838" y="666"/>
      <point x="726" y="621"/>
      <point x="525" y="621" type="curve" smooth="yes"/>
      <point x="62" y="621" type="line"/>
      <point x="62" y="347" type="line"/>
    </contour>
    <contour>
      <point x="854" y="-36" type="curve" smooth="yes"/>
      <point x="963" y="-36"/>
      <point x="1086" y="-20"/>
      <point x="1166" y="4" type="curve"/>
      <point x="1201" y="308" type="line"/>
      <point x="1095" y="279"/>
      <point x="1027" y="271"/>
      <point x="933" y="271" type="curve" smooth="yes"/>
      <point x="758" y="271"/>
      <point x="633" y="315"/>
      <point x="577" y="482" type="curve" smooth="yes"/>
      <point x="566" y="520" type="line"/>
      <point x="203" y="440" type="line"/>
      <point x="208" y="417" type="line" smooth="yes"/>
      <point x="279" y="92"/>
      <point x="536" y="-36"/>
    </contour>
  </outline>
</glyph>
<glyph name="Ssa.gj" format="2">
  <advance width="1590"/>
  <unicode hex="0AB7"/>
  <guideline x="1222" y="-206" angle="90"/>
  <guideline x="1070" y="-206" angle="90"/>
  <guideline x="1462" y="-206" angle="90"/>
  <anchor x="1222" y="-69" name="Bottom"/>
  <anchor x="1202" y="1264" name="Top"/>
  <anchor x="1266" y="1264" name="Top2"/>
  <outline>
    <contour>
      <point x="1057" y="554" type="line"/>
      <point x="1185" y="748" type="line"/>
      <point x="459" y="1152" type="line"/>
      <point x="417" y="961" type="line"/>
      <point x="498" y="878"/>
      <point x="576" y="803"/>
      <point x="682" y="748" type="curve" smooth="yes"/>
    </contour>
    <contour>
      <point x="670" y="144" type="curve" smooth="yes"/>
      <point x="905" y="144"/>
      <point x="1021" y="242"/>
      <point x="1061" y="375" type="curve"/>
      <point x="1085" y="375" type="line"/>
      <point x="1077" y="625" type="line"/>
      <point x="1055" y="540"/>
      <point x="964" y="468"/>
      <point x="811" y="468" type="curve" smooth="yes"/>
      <point x="653" y="468"/>
      <point x="574" y="545"/>
      <point x="574" y="698" type="curve" smooth="yes"/>
      <point x="574" y="771" type="line"/>
      <point x="182" y="765" type="line"/>
      <point x="182" y="641" type="line" smooth="yes"/>
      <point x="182" y="314"/>
      <point x="352" y="144"/>
    </contour>
    <contour>
      <point x="182" y="749" type="line"/>
      <point x="574" y="749" type="line"/>
      <point x="574" y="858" type="line" smooth="yes"/>
      <point x="574" y="1098"/>
      <point x="468" y="1202"/>
      <point x="265" y="1202" type="curve" smooth="yes"/>
      <point x="174" y="1202"/>
      <point x="110" y="1191"/>
      <point x="55" y="1175" type="curve"/>
      <point x="31" y="895" type="line"/>
      <point x="55" y="899"/>
      <point x="78" y="902"/>
      <point x="101" y="902" type="curve" smooth="yes"/>
      <point x="161" y="902"/>
      <point x="182" y="867"/>
      <point x="182" y="805" type="curve" smooth="yes"/>
    </contour>
    <contour>
      <point x="1070" y="422" type="line"/>
      <point x="1462" y="422" type="line"/>
      <point x="1462" y="1187" type="line"/>
      <point x="1070" y="1187" type="line"/>
    </contour>
    <contour>
      <point x="1070" y="0" type="line"/>
      <point x="1462" y="0" type="line"/>
      <point x="1462" y="507" type="line"/>
      <point x="1070" y="507" type="line"/>
    </contour>
  </outline>
</glyph>
<glyph name="Ha.gj" format="2">
  <advance width="1454"/>
  <unicode hex="0AB9"/>
  <anchor x="833" y="-152" name="Bottom"/>
  <anchor x="921" y="1264" name="Top"/>
  <anchor x="758" y="1264" name="Top2"/>
  <outline>
    <contour>
      <point x="813" y="-119" type="curve" smooth="yes"/>
      <point x="984" y="-119"/>
      <point x="1163" y="-101"/>
      <point x="1321" y="-64" type="curve"/>
      <point x="1356" y="249" type="line"/>
      <point x="1204" y="219"/>
      <point x="1030" y="201"/>
      <point x="866" y="201" type="curve" smooth="yes"/>
      <point x="591" y="201"/>
      <point x="479" y="265"/>
      <point x="479" y="404" type="curve" smooth="yes"/>
      <point x="479" y="417"/>
      <point x="479" y="425"/>
      <point x="479" y="438" type="curve"/>
      <point x="89" y="438" type="line"/>
      <point x="78" y="397"/>
      <point x="71" y="352"/>
      <point x="71" y="312" type="curve" smooth="yes"/>
      <point x="71" y="23"/>
      <point x="294" y="-119"/>
    </contour>
    <contour>
      <point x="960" y="313" type="curve"/>
      <point x="1323" y="313" type="line"/>
      <point x="1357" y="357"/>
      <point x="1376" y="427"/>
      <point x="1376" y="488" type="curve" smooth="yes"/>
      <point x="1376" y="682"/>
      <point x="1229" y="752"/>
      <point x="1000" y="760" type="curve" smooth="yes"/>
      <point x="675" y="771" type="line" smooth="yes"/>
      <point x="570" y="775"/>
      <point x="527" y="790"/>
      <point x="527" y="829" type="curve" smooth="yes"/>
      <point x="527" y="833" type="line" smooth="yes"/>
      <point x="527" y="879"/>
      <point x="584" y="913"/>
      <point x="776" y="913" type="curve" smooth="yes"/>
      <point x="947" y="913"/>
      <point x="1129" y="883"/>
      <point x="1271" y="837" type="curve"/>
      <point x="1228" y="1148" type="line"/>
      <point x="1102" y="1193"/>
      <point x="929" y="1226"/>
      <point x="723" y="1226" type="curve" smooth="yes"/>
      <point x="324" y="1226"/>
      <point x="119" y="1098"/>
      <point x="119" y="833" type="curve" smooth="yes"/>
      <point x="119" y="826" type="line" smooth="yes"/>
      <point x="119" y="586"/>
      <point x="308" y="491"/>
      <point x="605" y="482" type="curve" smooth="yes"/>
      <point x="824" y="475" type="line" smooth="yes"/>
      <point x="937" y="471"/>
      <point x="970" y="447"/>
      <point x="970" y="372" type="curve" smooth="yes"/>
      <point x="970" y="352"/>
      <point x="966" y="335"/>
    </contour>
  </outline>
</glyph>
<glyph name="Nukta.gj" format="2">
  <unicode hex="0ABC"/>
  <anchor x="292" y="-69" name="_Bottom"/>
  <outline>
    <contour>
      <point x="336" y="-457" type="curve" smooth="yes"/>
      <point x="502" y="-457"/>
      <point x="572" y="-380"/>
      <point x="572" y="-266" type="curve" smooth="yes"/>
      <point x="572" y="-259" type="line" smooth="yes"/>
      <point x="572" y="-143"/>
      <point x="495" y="-69"/>
      <point x="336" y="-69" type="curve" smooth="yes"/>
      <point x="177" y="-69"/>
      <point x="100" y="-148"/>
      <point x="100" y="-259" type="curve" smooth="yes"/>
      <point x="100" y="-266" type="line" smooth="yes"/>
      <point x="100" y="-380"/>
      <point x="172" y="-457"/>
    </contour>
  </outline>
</glyph>
<glyph name="Avagraha.gj" format="2">
  <advance width="1438"/>
  <unicode hex="0ABD"/>
  <outline>
    <contour>
      <point x="736" y="-36" type="curve" smooth="yes"/>
      <point x="1103" y="-36"/>
      <point x="1350" y="76"/>
      <point x="1350" y="357" type="curve" smooth="yes"/>
      <point x="1350" y="368" type="line" smooth="yes"/>
      <point x="1350" y="603"/>
      <point x="1209" y="721"/>
      <point x="818" y="749" type="curve" smooth="yes"/>
      <point x="677" y="759" type="line" smooth="yes"/>
      <point x="566" y="767"/>
      <point x="514" y="785"/>
      <point x="514" y="830" type="curve" smooth="yes"/>
      <point x="514" y="832" type="line" smooth="yes"/>
      <point x="514" y="871"/>
      <point x="541" y="893"/>
      <point x="633" y="893" type="curve" smooth="yes"/>
      <point x="1257" y="893" type="line"/>
      <point x="1215" y="1186" type="line"/>
      <point x="619" y="1186" type="line" smooth="yes"/>
      <point x="280" y="1186"/>
      <point x="106" y="1066"/>
      <point x="106" y="816" type="curve" smooth="yes"/>
      <point x="106" y="808" type="line" smooth="yes"/>
      <point x="106" y="592"/>
      <point x="253" y="480"/>
      <point x="611" y="457" type="curve" smooth="yes"/>
      <point x="736" y="449" type="line" smooth="yes"/>
      <point x="905" y="438"/>
      <point x="942" y="417"/>
      <point x="942" y="367" type="curve" smooth="yes"/>
      <point x="942" y="365" type="line" smooth="yes"/>
      <point x="942" y="308"/>
      <point x="866" y="281"/>
      <point x="675" y="281" type="curve" smooth="yes"/>
      <point x="463" y="281"/>
      <point x="255" y="340"/>
      <point x="100" y="401" type="curve"/>
      <point x="143" y="68" type="line"/>
      <point x="293" y="11"/>
      <point x="496" y="-36"/>
    </contour>
  </outline>
</glyph>
<glyph name="MatraA.gj" format="2">
  <advance width="648"/>
  <unicode hex="0ABE"/>
  <guideline x="280" y="-206" angle="90"/>
  <guideline x="128" y="1394" angle="90"/>
  <guideline x="520" y="-206" angle="90"/>
  <guideline x="260" y="1394" angle="90"/>
  <anchor x="280" y="-69" name="Bottom"/>
  <anchor x="260" y="1264" name="Top"/>
  <anchor x="324" y="1264" name="Top2"/>
  <outline>
    <contour>
      <point x="128" y="422" type="line"/>
      <point x="520" y="422" type="line"/>
      <point x="520" y="1187" type="line"/>
      <point x="128" y="1187" type="line"/>
    </contour>
    <contour>
      <point x="128" y="0" type="line"/>
      <point x="520" y="0" type="line"/>
      <point x="520" y="507" type="line"/>
      <point x="128" y="507" type="line"/>
    </contour>
  </outline>
</glyph>
<glyph name="MatraI.gj" format="2">
  <advance width="648"/>
  <unicode hex="0ABF"/>
  <guideline x="1603" y="0" angle="0"/>
  <guideline x="206" y="2760" angle="90"/>
  <guideline x="128" y="891" angle="90"/>
  <guideline x="0" y="891" angle="90"/>
  <guideline x="648" y="891" angle="90"/>
  <guideline x="520" y="891" angle="90"/>
  <guideline x="1843" y="1365" angle="33.2994"/>
  <anchor x="280" y="-69" name="Bottom"/>
  <anchor x="260" y="1264" name="Top"/>
  <anchor x="324" y="1264" name="Top2"/>
  <outline>
    <contour>
      <point x="128" y="1125" type="curve"/>
      <point x="520" y="1125" type="line"/>
      <point x="520" y="1161"/>
      <point x="520" y="1202"/>
      <point x="520" y="1230" type="curve" smooth="yes"/>
      <point x="520" y="1478"/>
      <point x="664" y="1589"/>
      <point x="961" y="1589" type="curve" smooth="yes"/>
      <point x="1305" y="1589"/>
      <point x="1569" y="1403"/>
      <point x="1731" y="1264" type="curve"/>
      <point x="1974" y="1495" type="line"/>
      <point x="1783" y="1682"/>
      <point x="1438" y="1899"/>
      <point x="949" y="1899" type="curve" smooth="yes"/>
      <point x="449" y="1899"/>
      <point x="128" y="1682"/>
      <point x="128" y="1230" type="curve" smooth="yes"/>
      <point x="128" y="1194"/>
      <point x="128" y="1159"/>
    </contour>
    <contour>
      <point x="128" y="422" type="line"/>
      <point x="520" y="422" type="line"/>
      <point x="520" y="1187" type="line"/>
      <point x="128" y="1187" type="line"/>
    </contour>
    <contour>
      <point x="128" y="0" type="line"/>
      <point x="520" y="0" type="line"/>
      <point x="520" y="507" type="line"/>
      <point x="128" y="507" type="line"/>
    </contour>
  </outline>
</glyph>
<glyph name="MatraIi.gj" format="2">
  <advance width="648"/>
  <unicode hex="0AC0"/>
  <guideline x="0" y="1210" angle="90"/>
  <guideline x="-272" y="2351" angle="90"/>
  <guideline x="-228" y="2351" angle="90"/>
  <guideline x="-320" y="2351" angle="90"/>
  <guideline x="-925" y="2446" angle="270"/>
  <guideline x="-982" y="2113" angle="0"/>
  <anchor x="280" y="-69" name="Bottom"/>
  <anchor x="260" y="1264" name="Top"/>
  <anchor x="324" y="1264" name="Top2"/>
  <outline>
    <contour>
      <point x="128" y="1099" type="line"/>
      <point x="520" y="1099" type="line"/>
      <point x="520" y="1427" type="line" smooth="yes"/>
      <point x="520" y="1737"/>
      <point x="297" y="1899"/>
      <point x="0" y="1899" type="curve" smooth="yes"/>
      <point x="-329" y="1899"/>
      <point x="-520" y="1750"/>
      <point x="-520" y="1427" type="curve" smooth="yes"/>
      <point x="-520" y="1264" type="line"/>
      <point x="-128" y="1264" type="line"/>
      <point x="-128" y="1427" type="line" smooth="yes"/>
      <point x="-128" y="1536"/>
      <point x="-93" y="1589"/>
      <point x="0" y="1589" type="curve" smooth="yes"/>
      <point x="93" y="1589"/>
      <point x="128" y="1536"/>
      <point x="128" y="1427" type="curve" smooth="yes"/>
    </contour>
    <contour>
      <point x="128" y="422" type="line"/>
      <point x="520" y="422" type="line"/>
      <point x="520" y="1187" type="line"/>
      <point x="128" y="1187" type="line"/>
    </contour>
    <contour>
      <point x="128" y="0" type="line"/>
      <point x="520" y="0" type="line"/>
      <point x="520" y="507" type="line"/>
      <point x="128" y="507" type="line"/>
    </contour>
  </outline>
</glyph>
<glyph name="MatraU.gj" format="2">
  <unicode hex="0AC1"/>
  <anchor x="983" y="-69" name="_Bottom"/>
  <outline>
    <contour>
      <point x="921" y="-768" type="curve" smooth="yes"/>
      <point x="1260" y="-768"/>
      <point x="1417" y="-630"/>
      <point x="1417" y="-419" type="curve" smooth="yes"/>
      <point x="1417" y="-409" type="line" smooth="yes"/>
      <point x="1417" y="-211"/>
      <point x="1273" y="-69"/>
      <point x="983" y="-69" type="curve" smooth="yes"/>
      <point x="878" y="-69"/>
      <point x="791" y="-83"/>
      <point x="707" y="-112" type="curve"/>
      <point x="671" y="-371" type="line"/>
      <point x="752" y="-343"/>
      <point x="834" y="-323"/>
      <point x="919" y="-323" type="curve" smooth="yes"/>
      <point x="1036" y="-323"/>
      <point x="1079" y="-361"/>
      <point x="1079" y="-413" type="curve" smooth="yes"/>
      <point x="1079" y="-417" type="line" smooth="yes"/>
      <point x="1079" y="-476"/>
      <point x="1025" y="-510"/>
      <point x="913" y="-510" type="curve" smooth="yes"/>
      <point x="714" y="-510"/>
      <point x="567" y="-431"/>
      <point x="495" y="-220" type="curve"/>
      <point x="115" y="-220" type="line"/>
      <point x="244" y="-600"/>
      <point x="530" y="-768"/>
    </contour>
  </outline>
</glyph>
<glyph name="MatraUu.gj" format="2">
  <unicode hex="0AC2"/>
  <anchor x="600" y="-69" name="_Bottom"/>
  <outline>
    <contour>
      <point x="1014" y="-759" type="curve"/>
      <point x="1385" y="-759" type="line"/>
      <point x="1251" y="-347"/>
      <point x="1048" y="-69"/>
      <point x="600" y="-69" type="curve" smooth="yes"/>
      <point x="290" y="-69"/>
      <point x="116" y="-195"/>
      <point x="116" y="-417" type="curve" smooth="yes"/>
      <point x="116" y="-427" type="line" smooth="yes"/>
      <point x="116" y="-649"/>
      <point x="296" y="-768"/>
      <point x="552" y="-768" type="curve" smooth="yes"/>
      <point x="637" y="-768"/>
      <point x="707" y="-759"/>
      <point x="760" y="-740" type="curve"/>
      <point x="795" y="-487" type="line"/>
      <point x="739" y="-503"/>
      <point x="683" y="-514"/>
      <point x="616" y="-514" type="curve" smooth="yes"/>
      <point x="505" y="-514"/>
      <point x="454" y="-484"/>
      <point x="454" y="-424" type="curve" smooth="yes"/>
      <point x="454" y="-419" type="line" smooth="yes"/>
      <point x="454" y="-361"/>
      <point x="509" y="-327"/>
      <point x="621" y="-327" type="curve" smooth="yes"/>
      <point x="823" y="-327"/>
      <point x="925" y="-468"/>
    </contour>
  </outline>
</glyph>
<glyph name="MatraRu.gj" format="2">
  <unicode hex="0AC3"/>
  <anchor x="676" y="-69" name="_Bottom"/>
  <outline>
    <contour>
      <point x="626" y="-768" type="curve" smooth="yes"/>
      <point x="773" y="-768"/>
      <point x="892" y="-746"/>
      <point x="988" y="-702" type="curve"/>
      <point x="1014" y="-439" type="line"/>
      <point x="911" y="-483"/>
      <point x="788" y="-510"/>
      <point x="662" y="-510" type="curve" smooth="yes"/>
      <point x="510" y="-510"/>
      <point x="454" y="-476"/>
      <point x="454" y="-417" type="curve" smooth="yes"/>
      <point x="454" y="-413" type="line" smooth="yes"/>
      <point x="454" y="-353"/>
      <point x="496" y="-321"/>
      <point x="622" y="-321" type="curve" smooth="yes"/>
      <point x="916" y="-321" type="line"/>
      <point x="916" y="-69" type="line"/>
      <point x="569" y="-69" type="line" smooth="yes"/>
      <point x="272" y="-69"/>
      <point x="116" y="-174"/>
      <point x="116" y="-410" type="curve" smooth="yes"/>
      <point x="116" y="-420" type="line" smooth="yes"/>
      <point x="116" y="-649"/>
      <point x="312" y="-768"/>
    </contour>
  </outline>
</glyph>
<glyph name="MatraRuu.gj" format="2">
  <unicode hex="0AC4"/>
  <anchor x="605" y="-69" name="_Bottom"/>
  <outline>
    <contour>
      <point x="562" y="-662" type="curve" smooth="yes"/>
      <point x="695" y="-662"/>
      <point x="803" y="-643"/>
      <point x="889" y="-606" type="curve"/>
      <point x="911" y="-373" type="line"/>
      <point x="818" y="-410"/>
      <point x="707" y="-433"/>
      <point x="593" y="-433" type="curve" smooth="yes"/>
      <point x="457" y="-433"/>
      <point x="407" y="-408"/>
      <point x="407" y="-364" type="curve" smooth="yes"/>
      <point x="407" y="-361" type="line" smooth="yes"/>
      <point x="407" y="-317"/>
      <point x="446" y="-293"/>
      <point x="559" y="-293" type="curve" smooth="yes"/>
      <point x="828" y="-293" type="line"/>
      <point x="828" y="-69" type="line"/>
      <point x="514" y="-69" type="line" smooth="yes"/>
      <point x="243" y="-69"/>
      <point x="100" y="-156"/>
      <point x="100" y="-353" type="curve" smooth="yes"/>
      <point x="100" y="-362" type="line" smooth="yes"/>
      <point x="100" y="-478"/>
      <point x="173" y="-557"/>
      <point x="298" y="-597" type="curve"/>
      <point x="400" y="-647" type="line"/>
      <point x="448" y="-657"/>
      <point x="503" y="-662"/>
    </contour>
    <contour>
      <point x="572" y="-1031" type="curve" smooth="yes"/>
      <point x="705" y="-1031"/>
      <point x="813" y="-1012"/>
      <point x="899" y="-975" type="curve"/>
      <point x="921" y="-742" type="line"/>
      <point x="828" y="-779"/>
      <point x="717" y="-802"/>
      <point x="603" y="-802" type="curve" smooth="yes"/>
      <point x="467" y="-802"/>
      <point x="417" y="-774"/>
      <point x="417" y="-727" type="curve" smooth="yes"/>
      <point x="417" y="-725" type="line" smooth="yes"/>
      <point x="417" y="-683"/>
      <point x="448" y="-659"/>
      <point x="541" y="-656" type="curve"/>
      <point x="266" y="-562" type="line"/>
      <point x="266" y="-602" type="line"/>
      <point x="179" y="-624"/>
      <point x="110" y="-688"/>
      <point x="110" y="-782" type="curve" smooth="yes"/>
      <point x="110" y="-786" type="line" smooth="yes"/>
      <point x="110" y="-947"/>
      <point x="289" y="-1031"/>
    </contour>
  </outline>
</glyph>
<glyph name="MatraChandraE.gj" format="2">
  <unicode hex="0AC5"/>
  <guideline x="181" y="1749" angle="241.6898"/>
  <guideline x="181" y="1749" angle="241.6898"/>
  <guideline x="180" y="1768" angle="238.7045"/>
  <guideline x="829" y="1481" angle="90"/>
  <guideline x="697" y="1481" angle="90"/>
  <guideline x="1089" y="1481" angle="90"/>
  <anchor x="829" y="1264" name="_Top"/>
  <outline>
    <contour>
      <point x="923" y="1272" type="curve" smooth="yes"/>
      <point x="1033" y="1272"/>
      <point x="1112" y="1295"/>
      <point x="1169" y="1331" type="curve"/>
      <point x="1169" y="1640" type="line"/>
      <point x="1131" y="1617"/>
      <point x="1072" y="1589"/>
      <point x="978" y="1589" type="curve" smooth="yes"/>
      <point x="873" y="1589"/>
      <point x="772" y="1632"/>
      <point x="640" y="1721" type="curve" smooth="yes"/>
      <point x="320" y="1938" type="line"/>
      <point x="100" y="1609" type="line"/>
      <point x="391" y="1446" type="line" smooth="yes"/>
      <point x="620" y="1318"/>
      <point x="770" y="1272"/>
    </contour>
  </outline>
</glyph>
<glyph name="MatraE.gj" format="2">
  <unicode hex="0AC7"/>
  <anchor x="907" y="1264" name="_Top"/>
  <outline>
    <contour>
      <point x="907" y="1264" type="curve"/>
      <point x="1043" y="1512" type="line"/>
      <point x="792" y="1652"/>
      <point x="545" y="1792"/>
      <point x="295" y="1930" type="curve"/>
      <point x="100" y="1568" type="line"/>
      <point x="369" y="1465"/>
      <point x="638" y="1362"/>
    </contour>
  </outline>
</glyph>
<glyph name="MatraAi.gj" format="2">
  <unicode hex="0AC8"/>
  <anchor x="954" y="1264" name="_Top"/>
  <outline>
    <contour>
      <point x="952" y="1264" type="line"/>
      <point x="1121" y="1528" type="line"/>
      <point x="557" y="2150" type="line"/>
      <point x="330" y="1909" type="line"/>
      <point x="809" y="1533" type="line"/>
      <point x="806" y="1525" type="line"/>
      <point x="195" y="1742" type="line"/>
      <point x="100" y="1429" type="line"/>
    </contour>
  </outline>
</glyph>
<glyph name="MatraChandraO.gj" format="2">
  <advance width="648"/>
  <unicode hex="0AC9"/>
  <anchor x="280" y="-69" name="Bottom"/>
  <anchor x="260" y="1264" name="Top"/>
  <anchor x="324" y="1264" name="Top2"/>
  <outline>
    <contour>
      <point x="128" y="422" type="line"/>
      <point x="520" y="422" type="line"/>
      <point x="520" y="1187" type="line"/>
      <point x="128" y="1187" type="line"/>
    </contour>
    <contour>
      <point x="128" y="0" type="line"/>
      <point x="520" y="0" type="line"/>
      <point x="520" y="507" type="line"/>
      <point x="128" y="507" type="line"/>
    </contour>
    <contour>
      <point x="358" y="1272" type="curve" smooth="yes"/>
      <point x="468" y="1272"/>
      <point x="547" y="1295"/>
      <point x="604" y="1331" type="curve"/>
      <point x="604" y="1640" type="line"/>
      <point x="566" y="1617"/>
      <point x="507" y="1589"/>
      <point x="413" y="1589" type="curve" smooth="yes"/>
      <point x="308" y="1589"/>
      <point x="207" y="1632"/>
      <point x="75" y="1721" type="curve" smooth="yes"/>
      <point x="-245" y="1938" type="line"/>
      <point x="-465" y="1609" type="line"/>
      <point x="-174" y="1446" type="line" smooth="yes"/>
      <point x="55" y="1318"/>
      <point x="205" y="1272"/>
    </contour>
  </outline>
</glyph>
<glyph name="MatraO.gj" format="2">
  <advance width="648"/>
  <unicode hex="0ACB"/>
  <guideline x="0" y="1163" angle="90"/>
  <guideline x="128" y="1394" angle="90"/>
  <guideline x="260" y="1394" angle="90"/>
  <anchor x="280" y="-69" name="Bottom"/>
  <anchor x="260" y="1264" name="Top"/>
  <anchor x="324" y="1264" name="Top2"/>
  <outline>
    <contour>
      <point x="128" y="422" type="line"/>
      <point x="520" y="422" type="line"/>
      <point x="520" y="1187" type="line"/>
      <point x="128" y="1187" type="line"/>
    </contour>
    <contour>
      <point x="128" y="0" type="line"/>
      <point x="520" y="0" type="line"/>
      <point x="520" y="507" type="line"/>
      <point x="128" y="507" type="line"/>
    </contour>
    <contour>
      <point x="260" y="1264" type="curve"/>
      <point x="396" y="1512" type="line"/>
      <point x="145" y="1652"/>
      <point x="-102" y="1792"/>
      <point x="-352" y="1930" type="curve"/>
      <point x="-547" y="1568" type="line"/>
      <point x="-278" y="1465"/>
      <point x="-9" y="1362"/>
    </contour>
  </outline>
</glyph>
<glyph name="MatraAu.gj" format="2">
  <advance width="648"/>
  <unicode hex="0ACC"/>
  <anchor x="280" y="-69" name="Bottom"/>
  <anchor x="260" y="1264" name="Top"/>
  <anchor x="324" y="1264" name="Top2"/>
  <outline>
    <contour>
      <point x="128" y="422" type="line"/>
      <point x="520" y="422" type="line"/>
      <point x="520" y="1187" type="line"/>
      <point x="128" y="1187" type="line"/>
    </contour>
    <contour>
      <point x="128" y="0" type="line"/>
      <point x="520" y="0" type="line"/>
      <point x="520" y="507" type="line"/>
      <point x="128" y="507" type="line"/>
    </contour>
    <contour>
      <point x="260" y="1264" type="line"/>
      <point x="429" y="1528" type="line"/>
      <point x="-135" y="2150" type="line"/>
      <point x="-362" y="1909" type="line"/>
      <point x="117" y="1533" type="line"/>
      <point x="114" y="1525" type="line"/>
      <point x="-497" y="1742" type="line"/>
      <point x="-592" y="1429" type="line"/>
    </contour>
  </outline>
</glyph>
<glyph name="Halant.gj" format="2">
  <unicode hex="0ACD"/>
  <guideline x="-1129" y="-741" angle="62.1643"/>
  <guideline x="-1158" y="-691" angle="232.229"/>
  <anchor x="239" y="-69" name="_Bottom"/>
  <outline>
    <contour>
      <point x="706" y="-763" type="line"/>
      <point x="876" y="-555" type="line"/>
      <point x="317" y="-92" type="line"/>
      <point x="100" y="-357" type="line"/>
    </contour>
  </outline>
</glyph>
<glyph name="Om.gj" format="2">
  <advance width="2469"/>
  <unicode hex="0AD0"/>
  <anchor x="1644" y="1048" name="_Top2"/>
  <outline>
    <contour>
      <point x="1889" y="7" type="curve" smooth="yes"/>
      <point x="2260" y="7"/>
      <point x="2423" y="173"/>
      <point x="2423" y="497" type="curve" smooth="yes"/>
      <point x="2423" y="525" type="line" smooth="yes"/>
      <point x="2423" y="847"/>
      <point x="2255" y="1042"/>
      <point x="1870" y="1042" type="curve" smooth="yes"/>
      <point x="1609" y="1042"/>
      <point x="1484" y="944"/>
      <point x="1382" y="734" type="curve" smooth="yes"/>
      <point x="1364" y="697" type="line" smooth="yes"/>
      <point x="1321" y="609"/>
      <point x="1274" y="557"/>
      <point x="1184" y="554" type="curve" smooth="yes"/>
      <point x="1137" y="552"/>
      <point x="1086" y="560"/>
      <point x="1025" y="570" type="curve"/>
      <point x="1065" y="360" type="line"/>
      <point x="1198" y="306"/>
      <point x="1269" y="275"/>
      <point x="1375" y="275" type="curve" smooth="yes"/>
      <point x="1525" y="275"/>
      <point x="1606" y="378"/>
      <point x="1673" y="521" type="curve" smooth="yes"/>
      <point x="1687" y="551" type="line" smooth="yes"/>
      <point x="1747" y="679"/>
      <point x="1790" y="727"/>
      <point x="1870" y="727" type="curve" smooth="yes"/>
      <point x="1965" y="727"/>
      <point x="2011" y="669"/>
      <point x="2011" y="518" type="curve" smooth="yes"/>
      <point x="2011" y="513" type="line" smooth="yes"/>
      <point x="2011" y="388"/>
      <point x="1953" y="314"/>
      <point x="1814" y="314" type="curve" smooth="yes"/>
      <point x="1745" y="314"/>
      <point x="1676" y="326"/>
      <point x="1615" y="344" type="curve"/>
      <point x="1650" y="43" type="line"/>
      <point x="1721" y="20"/>
      <point x="1806" y="7"/>
    </contour>
    <contour>
      <point x="1644" y="1108" type="curve" smooth="yes"/>
      <point x="1983" y="1108"/>
      <point x="2153" y="1236"/>
      <point x="2153" y="1471" type="curve" smooth="yes"/>
      <point x="2153" y="1483"/>
      <point x="2153" y="1500"/>
      <point x="2149" y="1528" type="curve"/>
      <point x="1872" y="1528" type="line"/>
      <point x="1872" y="1512" type="line" smooth="yes"/>
      <point x="1872" y="1404"/>
      <point x="1796" y="1343"/>
      <point x="1644" y="1343" type="curve" smooth="yes"/>
      <point x="1485" y="1343"/>
      <point x="1416" y="1408"/>
      <point x="1416" y="1512" type="curve" smooth="yes"/>
      <point x="1416" y="1528" type="line"/>
      <point x="1139" y="1528" type="line"/>
      <point x="1135" y="1500"/>
      <point x="1135" y="1483"/>
      <point x="1135" y="1471" type="curve" smooth="yes"/>
      <point x="1135" y="1236"/>
      <point x="1297" y="1108"/>
    </contour>
    <contour>
      <point x="1644" y="1407" type="curve" smooth="yes"/>
      <point x="1749" y="1407"/>
      <point x="1799" y="1469"/>
      <point x="1799" y="1554" type="curve" smooth="yes"/>
      <point x="1799" y="1561" type="line" smooth="yes"/>
      <point x="1799" y="1647"/>
      <point x="1749" y="1709"/>
      <point x="1644" y="1709" type="curve" smooth="yes"/>
      <point x="1539" y="1709"/>
      <point x="1489" y="1647"/>
      <point x="1489" y="1561" type="curve" smooth="yes"/>
      <point x="1489" y="1554" type="line" smooth="yes"/>
      <point x="1489" y="1469"/>
      <point x="1539" y="1407"/>
    </contour>
    <contour>
      <point x="622" y="-36" type="curve" smooth="yes"/>
      <point x="1016" y="-36"/>
      <point x="1259" y="75"/>
      <point x="1259" y="312" type="curve" smooth="yes"/>
      <point x="1259" y="313" type="line" smooth="yes"/>
      <point x="1259" y="486"/>
      <point x="1154" y="573"/>
      <point x="928" y="595" type="curve"/>
      <point x="928" y="602" type="line"/>
      <point x="1156" y="619"/>
      <point x="1247" y="701"/>
      <point x="1247" y="876" type="curve" smooth="yes"/>
      <point x="1247" y="878" type="line" smooth="yes"/>
      <point x="1247" y="1111"/>
      <point x="1011" y="1226"/>
      <point x="627" y="1226" type="curve" smooth="yes"/>
      <point x="429" y="1226"/>
      <point x="263" y="1200"/>
      <point x="143" y="1166" type="curve"/>
      <point x="100" y="847" type="line"/>
      <point x="238" y="886"/>
      <point x="414" y="911"/>
      <point x="579" y="911" type="curve" smooth="yes"/>
      <point x="754" y="911"/>
      <point x="835" y="886"/>
      <point x="835" y="826" type="curve" smooth="yes"/>
      <point x="835" y="824" type="line" smooth="yes"/>
      <point x="835" y="781"/>
      <point x="796" y="755"/>
      <point x="678" y="753" type="curve" smooth="yes"/>
      <point x="265" y="745" type="line"/>
      <point x="265" y="455" type="line"/>
      <point x="673" y="441" type="line" smooth="yes"/>
      <point x="806" y="436"/>
      <point x="847" y="413"/>
      <point x="847" y="360" type="curve" smooth="yes"/>
      <point x="847" y="358" type="line" smooth="yes"/>
      <point x="847" y="303"/>
      <point x="761" y="279"/>
      <point x="574" y="279" type="curve" smooth="yes"/>
      <point x="386" y="279"/>
      <point x="236" y="308"/>
      <point x="78" y="354" type="curve"/>
      <point x="114" y="50" type="line"/>
      <point x="240" y="-2"/>
      <point x="423" y="-36"/>
    </contour>
  </outline>
</glyph>
<glyph name="VowelRuu.gj" format="2">
  <advance width="2399"/>
  <unicode hex="0AE0"/>
  <guideline x="1549" y="1857" angle="0"/>
  <guideline x="336" y="387" angle="90"/>
  <guideline x="4005" y="92" angle="0"/>
  <anchor x="1166" y="-69" name="Bottom"/>
  <anchor x="1146" y="1264" name="Top"/>
  <anchor x="1210" y="1264" name="Top2"/>
  <outline>
    <contour>
      <point x="2047" y="-16" type="curve" smooth="yes"/>
      <point x="2148" y="-16"/>
      <point x="2234" y="-2"/>
      <point x="2298" y="23" type="curve"/>
      <point x="2317" y="285" type="line"/>
      <point x="2251" y="264"/>
      <point x="2189" y="253"/>
      <point x="2109" y="253" type="curve" smooth="yes"/>
      <point x="2009" y="253"/>
      <point x="1965" y="269"/>
      <point x="1965" y="305" type="curve" smooth="yes"/>
      <point x="1965" y="308" type="line" smooth="yes"/>
      <point x="1965" y="353"/>
      <point x="2017" y="370"/>
      <point x="2260" y="370" type="curve"/>
      <point x="2260" y="599" type="line"/>
      <point x="2151" y="649"/>
      <point x="2069" y="709"/>
      <point x="2006" y="794" type="curve"/>
      <point x="1721" y="675" type="line"/>
      <point x="1779" y="611"/>
      <point x="1858" y="557"/>
      <point x="1915" y="528" type="curve"/>
      <point x="1915" y="519" type="line"/>
      <point x="1717" y="493"/>
      <point x="1616" y="419"/>
      <point x="1616" y="264" type="curve" smooth="yes"/>
      <point x="1616" y="258" type="line" smooth="yes"/>
      <point x="1616" y="86"/>
      <point x="1776" y="-16"/>
    </contour>
    <contour>
      <point x="326" y="441" type="curve"/>
      <point x="684" y="482" type="line"/>
      <point x="671" y="539" type="line"/>
      <point x="772" y="590"/>
      <point x="842" y="648"/>
      <point x="842" y="771" type="curve" smooth="yes"/>
      <point x="842" y="775" type="line" smooth="yes"/>
      <point x="842" y="944"/>
      <point x="724" y="1059"/>
      <point x="470" y="1059" type="curve" smooth="yes"/>
      <point x="336" y="1059"/>
      <point x="215" y="1031"/>
      <point x="142" y="999" type="curve"/>
      <point x="110" y="696" type="line"/>
      <point x="167" y="723"/>
      <point x="237" y="744"/>
      <point x="312" y="744" type="curve" smooth="yes"/>
      <point x="408" y="744"/>
      <point x="449" y="696"/>
      <point x="449" y="619" type="curve" smooth="yes"/>
      <point x="449" y="616" type="line" smooth="yes"/>
      <point x="449" y="546"/>
      <point x="415" y="490"/>
    </contour>
    <contour>
      <point x="100" y="69" type="line"/>
      <point x="1064" y="352" type="line"/>
      <point x="1064" y="659" type="line"/>
      <point x="831" y="582" type="line" smooth="yes"/>
      <point x="765" y="560"/>
      <point x="694" y="536"/>
      <point x="618" y="507" type="curve"/>
      <point x="611" y="532" type="line"/>
      <point x="100" y="393" type="line"/>
    </contour>
    <contour>
      <point x="1349" y="423" type="line"/>
      <point x="1956" y="619" type="line"/>
      <point x="1873" y="883" type="line"/>
      <point x="1349" y="720" type="line"/>
    </contour>
    <contour>
      <point x="1689" y="636" type="line"/>
      <point x="2070" y="689" type="line"/>
      <point x="2177" y="801" type="line"/>
      <point x="2159" y="894"/>
      <point x="2116" y="987"/>
      <point x="2052" y="1061" type="curve"/>
      <point x="1689" y="1061" type="line"/>
    </contour>
    <contour>
      <point x="1014" y="422" type="line"/>
      <point x="1406" y="422" type="line"/>
      <point x="1406" y="1187" type="line"/>
      <point x="1014" y="1187" type="line"/>
    </contour>
    <contour>
      <point x="1014" y="0" type="line"/>
      <point x="1406" y="0" type="line"/>
      <point x="1406" y="507" type="line"/>
      <point x="1014" y="507" type="line"/>
    </contour>
  </outline>
</glyph>
<glyph name="VowelLruu.gj" format="2">
  <advance width="2013"/>
  <unicode hex="0AE1"/>
  <anchor x="1453" y="1264" name="Top2"/>
  <outline>
    <contour>
      <point x="1514" y="-1017" type="curve" smooth="yes"/>
      <point x="1643" y="-1017"/>
      <point x="1754" y="-995"/>
      <point x="1840" y="-957" type="curve"/>
      <point x="1879" y="-635" type="line"/>
      <point x="1789" y="-681"/>
      <point x="1702" y="-707"/>
      <point x="1607" y="-707" type="curve" smooth="yes"/>
      <point x="1521" y="-707"/>
      <point x="1476" y="-677"/>
      <point x="1476" y="-624" type="curve" smooth="yes"/>
      <point x="1476" y="-622" type="line" smooth="yes"/>
      <point x="1476" y="-585"/>
      <point x="1502" y="-552"/>
      <point x="1553" y="-544" type="curve"/>
      <point x="1268" y="-465" type="line"/>
      <point x="1268" y="-495" type="line"/>
      <point x="1133" y="-528"/>
      <point x="1074" y="-609"/>
      <point x="1074" y="-719" type="curve" smooth="yes"/>
      <point x="1074" y="-724" type="line" smooth="yes"/>
      <point x="1074" y="-902"/>
      <point x="1234" y="-1017"/>
    </contour>
    <contour>
      <point x="1559" y="-546" type="curve" smooth="yes"/>
      <point x="1686" y="-546"/>
      <point x="1785" y="-522"/>
      <point x="1865" y="-484" type="curve"/>
      <point x="1904" y="-162" type="line"/>
      <point x="1815" y="-206"/>
      <point x="1721" y="-237"/>
      <point x="1629" y="-237" type="curve" smooth="yes"/>
      <point x="1533" y="-237"/>
      <point x="1491" y="-208"/>
      <point x="1491" y="-158" type="curve" smooth="yes"/>
      <point x="1491" y="-154" type="line" smooth="yes"/>
      <point x="1491" y="-4"/>
      <point x="1929" y="55"/>
      <point x="1929" y="488" type="curve" smooth="yes"/>
      <point x="1929" y="495" type="line" smooth="yes"/>
      <point x="1929" y="770"/>
      <point x="1752" y="961"/>
      <point x="1423" y="961" type="curve" smooth="yes"/>
      <point x="1156" y="961"/>
      <point x="1042" y="842"/>
      <point x="1017" y="691" type="curve"/>
      <point x="978" y="691" type="line"/>
      <point x="978" y="274" type="line"/>
      <point x="1201" y="274" type="line"/>
      <point x="1210" y="454" type="line" smooth="yes"/>
      <point x="1217" y="587"/>
      <point x="1273" y="641"/>
      <point x="1370" y="641" type="curve" smooth="yes"/>
      <point x="1473" y="641"/>
      <point x="1521" y="583"/>
      <point x="1521" y="480" type="curve" smooth="yes"/>
      <point x="1521" y="478" type="line" smooth="yes"/>
      <point x="1521" y="215"/>
      <point x="1089" y="175"/>
      <point x="1089" y="-168" type="curve" smooth="yes"/>
      <point x="1089" y="-172" type="line" smooth="yes"/>
      <point x="1089" y="-418"/>
      <point x="1278" y="-546"/>
    </contour>
    <contour>
      <point x="314" y="0" type="curve"/>
      <point x="771" y="0" type="line"/>
      <point x="771" y="7" type="line"/>
      <point x="588" y="165"/>
      <point x="507" y="305"/>
      <point x="507" y="453" type="curve" smooth="yes"/>
      <point x="507" y="459" type="line" smooth="yes"/>
      <point x="507" y="573"/>
      <point x="566" y="641"/>
      <point x="668" y="641" type="curve" smooth="yes"/>
      <point x="761" y="641"/>
      <point x="809" y="598"/>
      <point x="815" y="454" type="curve" smooth="yes"/>
      <point x="823" y="274" type="line"/>
      <point x="1055" y="274" type="line"/>
      <point x="1007" y="691" type="line"/>
      <point x="981" y="841"/>
      <point x="868" y="961"/>
      <point x="605" y="961" type="curve" smooth="yes"/>
      <point x="284" y="961"/>
      <point x="97" y="774"/>
      <point x="97" y="495" type="curve" smooth="yes"/>
      <point x="97" y="486" type="line" smooth="yes"/>
      <point x="97" y="292"/>
      <point x="159" y="142"/>
    </contour>
    <contour>
      <point x="1258" y="755" type="line"/>
      <point x="1648" y="755" type="line"/>
      <point x="1648" y="1187" type="line"/>
      <point x="1258" y="1187" type="line"/>
    </contour>
  </outline>
</glyph>
<glyph name="MatraLru.gj" format="2">
  <unicode hex="0AE2"/>
  <anchor x="1063" y="-69" name="_Bottom"/>
  <outline>
    <contour>
      <point x="251" y="-689" type="curve"/>
      <point x="599" y="-689" type="line"/>
      <point x="472" y="-584"/>
      <point x="413" y="-488"/>
      <point x="413" y="-407" type="curve" smooth="yes"/>
      <point x="413" y="-402" type="line" smooth="yes"/>
      <point x="413" y="-333"/>
      <point x="449" y="-299"/>
      <point x="506" y="-299" type="curve" smooth="yes"/>
      <point x="561" y="-299"/>
      <point x="584" y="-329"/>
      <point x="588" y="-402" type="curve" smooth="yes"/>
      <point x="595" y="-516" type="line"/>
      <point x="882" y="-516" type="line"/>
      <point x="887" y="-404" type="line" smooth="yes"/>
      <point x="890" y="-327"/>
      <point x="921" y="-299"/>
      <point x="978" y="-299" type="curve" smooth="yes"/>
      <point x="1031" y="-299"/>
      <point x="1061" y="-333"/>
      <point x="1061" y="-381" type="curve" smooth="yes"/>
      <point x="1061" y="-391" type="line"/>
      <point x="1389" y="-369" type="line"/>
      <point x="1389" y="-356" type="line" smooth="yes"/>
      <point x="1389" y="-195"/>
      <point x="1278" y="-69"/>
      <point x="1053" y="-69" type="curve" smooth="yes"/>
      <point x="873" y="-69"/>
      <point x="779" y="-131"/>
      <point x="743" y="-235" type="curve"/>
      <point x="736" y="-235" type="line"/>
      <point x="702" y="-129"/>
      <point x="615" y="-69"/>
      <point x="435" y="-69" type="curve" smooth="yes"/>
      <point x="230" y="-69"/>
      <point x="100" y="-194"/>
      <point x="100" y="-381" type="curve" smooth="yes"/>
      <point x="100" y="-386" type="line" smooth="yes"/>
      <point x="100" y="-509"/>
      <point x="155" y="-605"/>
    </contour>
    <contour>
      <point x="1184" y="-954" type="curve" smooth="yes"/>
      <point x="1264" y="-954"/>
      <point x="1321" y="-943"/>
      <point x="1373" y="-922" type="curve"/>
      <point x="1389" y="-699" type="line"/>
      <point x="1348" y="-722"/>
      <point x="1300" y="-739"/>
      <point x="1241" y="-739" type="curve" smooth="yes"/>
      <point x="1187" y="-739"/>
      <point x="1159" y="-722"/>
      <point x="1159" y="-694" type="curve" smooth="yes"/>
      <point x="1159" y="-662"/>
      <point x="1180" y="-647"/>
      <point x="1268" y="-580" type="curve" smooth="yes"/>
      <point x="1347" y="-520"/>
      <point x="1389" y="-456"/>
      <point x="1389" y="-365" type="curve" smooth="yes"/>
      <point x="1389" y="-360" type="line"/>
      <point x="1061" y="-384" type="line"/>
      <point x="1061" y="-386" type="line"/>
      <point x="1061" y="-436"/>
      <point x="1037" y="-462"/>
      <point x="967" y="-523" type="curve" smooth="yes"/>
      <point x="888" y="-591"/>
      <point x="860" y="-642"/>
      <point x="860" y="-726" type="curve" smooth="yes"/>
      <point x="860" y="-868"/>
      <point x="988" y="-954"/>
    </contour>
  </outline>
</glyph>
<glyph name="MatraLruu.gj" format="2">
  <unicode hex="0AE3"/>
  <anchor x="1063" y="-69" name="_Bottom"/>
  <outline>
    <contour>
      <point x="251" y="-689" type="curve"/>
      <point x="599" y="-689" type="line"/>
      <point x="472" y="-584"/>
      <point x="413" y="-488"/>
      <point x="413" y="-407" type="curve" smooth="yes"/>
      <point x="413" y="-402" type="line" smooth="yes"/>
      <point x="413" y="-333"/>
      <point x="449" y="-299"/>
      <point x="506" y="-299" type="curve" smooth="yes"/>
      <point x="561" y="-299"/>
      <point x="584" y="-329"/>
      <point x="588" y="-402" type="curve" smooth="yes"/>
      <point x="595" y="-516" type="line"/>
      <point x="882" y="-516" type="line"/>
      <point x="887" y="-404" type="line" smooth="yes"/>
      <point x="890" y="-327"/>
      <point x="921" y="-299"/>
      <point x="978" y="-299" type="curve" smooth="yes"/>
      <point x="1031" y="-299"/>
      <point x="1061" y="-333"/>
      <point x="1061" y="-381" type="curve" smooth="yes"/>
      <point x="1061" y="-391" type="line"/>
      <point x="1389" y="-369" type="line"/>
      <point x="1389" y="-356" type="line" smooth="yes"/>
      <point x="1389" y="-195"/>
      <point x="1275" y="-69"/>
      <point x="1043" y="-69" type="curve" smooth="yes"/>
      <point x="869" y="-69"/>
      <point x="778" y="-131"/>
      <point x="743" y="-235" type="curve"/>
      <point x="736" y="-235" type="line"/>
      <point x="703" y="-129"/>
      <point x="619" y="-69"/>
      <point x="445" y="-69" type="curve" smooth="yes"/>
      <point x="234" y="-69"/>
      <point x="100" y="-194"/>
      <point x="100" y="-381" type="curve" smooth="yes"/>
      <point x="100" y="-386" type="line" smooth="yes"/>
      <point x="100" y="-509"/>
      <point x="155" y="-605"/>
    </contour>
    <contour>
      <point x="1177" y="-940" type="curve" smooth="yes"/>
      <point x="1258" y="-940"/>
      <point x="1326" y="-928"/>
      <point x="1372" y="-907" type="curve"/>
      <point x="1388" y="-686" type="line"/>
      <point x="1347" y="-707"/>
      <point x="1297" y="-725"/>
      <point x="1235" y="-725" type="curve" smooth="yes"/>
      <point x="1183" y="-726"/>
      <point x="1159" y="-710"/>
      <point x="1159" y="-684" type="curve" smooth="yes"/>
      <point x="1159" y="-654"/>
      <point x="1190" y="-639"/>
      <point x="1280" y="-569" type="curve" smooth="yes"/>
      <point x="1352" y="-513"/>
      <point x="1389" y="-450"/>
      <point x="1389" y="-367" type="curve" smooth="yes"/>
      <point x="1389" y="-361" type="line"/>
      <point x="1062" y="-384" type="line"/>
      <point x="1062" y="-389" type="line" smooth="yes"/>
      <point x="1062" y="-435"/>
      <point x="1040" y="-466"/>
      <point x="965" y="-524" type="curve" smooth="yes"/>
      <point x="885" y="-587"/>
      <point x="849" y="-640"/>
      <point x="849" y="-718" type="curve" smooth="yes"/>
      <point x="848" y="-861"/>
      <point x="984" y="-939"/>
    </contour>
    <contour>
      <point x="1172" y="-1251" type="curve" smooth="yes"/>
      <point x="1262" y="-1251"/>
      <point x="1329" y="-1234"/>
      <point x="1374" y="-1213" type="curve"/>
      <point x="1387" y="-1000" type="line"/>
      <point x="1330" y="-1027"/>
      <point x="1282" y="-1037"/>
      <point x="1225" y="-1037" type="curve" smooth="yes"/>
      <point x="1162" y="-1037"/>
      <point x="1131" y="-1016"/>
      <point x="1131" y="-985" type="curve" smooth="yes"/>
      <point x="1131" y="-959"/>
      <point x="1150" y="-940"/>
      <point x="1187" y="-934" type="curve"/>
      <point x="967" y="-879" type="line"/>
      <point x="967" y="-904" type="line"/>
      <point x="889" y="-923"/>
      <point x="852" y="-975"/>
      <point x="852" y="-1047" type="curve" smooth="yes"/>
      <point x="853" y="-1175"/>
      <point x="979" y="-1251"/>
    </contour>
  </outline>
</glyph>
<glyph name="Zero.gj" format="2">
  <advance width="1617"/>
  <unicode hex="0AE6"/>
  <outline>
    <contour>
      <point x="808" y="1226" type="curve" smooth="yes"/>
      <point x="371" y="1226"/>
      <point x="102" y="1013"/>
      <point x="102" y="605" type="curve" smooth="yes"/>
      <point x="102" y="593" type="line"/>
      <point x="515" y="593" type="line"/>
      <point x="515" y="602" type="line" smooth="yes"/>
      <point x="515" y="801"/>
      <point x="622" y="906"/>
      <point x="808" y="906" type="curve" smooth="yes"/>
      <point x="995" y="906"/>
      <point x="1102" y="801"/>
      <point x="1102" y="602" type="curve" smooth="yes"/>
      <point x="1102" y="593" type="line"/>
      <point x="1515" y="593" type="line"/>
      <point x="1515" y="605" type="line" smooth="yes"/>
      <point x="1515" y="1013"/>
      <point x="1245" y="1226"/>
    </contour>
    <contour>
      <point x="808" y="-36" type="curve" smooth="yes"/>
      <point x="1245" y="-36"/>
      <point x="1515" y="178"/>
      <point x="1515" y="586" type="curve" smooth="yes"/>
      <point x="1515" y="598" type="line"/>
      <point x="1102" y="598" type="line"/>
      <point x="1102" y="589" type="line" smooth="yes"/>
      <point x="1102" y="389"/>
      <point x="995" y="284"/>
      <point x="808" y="284" type="curve" smooth="yes"/>
      <point x="622" y="284"/>
      <point x="515" y="389"/>
      <point x="515" y="589" type="curve" smooth="yes"/>
      <point x="515" y="598" type="line"/>
      <point x="102" y="598" type="line"/>
      <point x="102" y="586" type="line" smooth="yes"/>
      <point x="102" y="178"/>
      <point x="371" y="-36"/>
    </contour>
  </outline>
</glyph>
<glyph name="One.gj" format="2">
  <advance width="1438"/>
  <unicode hex="0AE7"/>
  <outline>
    <contour>
      <point x="536" y="328" type="curve" smooth="yes"/>
      <point x="731" y="328"/>
      <point x="835" y="405"/>
      <point x="868" y="532" type="curve"/>
      <point x="900" y="532" type="line"/>
      <point x="884" y="748" type="line"/>
      <point x="867" y="693"/>
      <point x="794" y="648"/>
      <point x="666" y="648" type="curve" smooth="yes"/>
      <point x="544" y="648"/>
      <point x="481" y="689"/>
      <point x="481" y="775" type="curve" smooth="yes"/>
      <point x="481" y="779" type="line" smooth="yes"/>
      <point x="481" y="866"/>
      <point x="548" y="906"/>
      <point x="666" y="906" type="curve" smooth="yes"/>
      <point x="807" y="906"/>
      <point x="878" y="857"/>
      <point x="878" y="738" type="curve" smooth="yes"/>
      <point x="878" y="570" type="line"/>
      <point x="1270" y="589" type="line"/>
      <point x="1270" y="728" type="line" smooth="yes"/>
      <point x="1270" y="1051"/>
      <point x="1074" y="1226"/>
      <point x="652" y="1226" type="curve" smooth="yes"/>
      <point x="269" y="1226"/>
      <point x="68" y="1067"/>
      <point x="68" y="779" type="curve" smooth="yes"/>
      <point x="68" y="775" type="line" smooth="yes"/>
      <point x="68" y="479"/>
      <point x="234" y="328"/>
    </contour>
    <contour>
      <point x="1188" y="-19" type="curve" smooth="yes"/>
      <point x="1279" y="-19"/>
      <point x="1343" y="-8"/>
      <point x="1398" y="8" type="curve"/>
      <point x="1422" y="288" type="line"/>
      <point x="1398" y="284"/>
      <point x="1375" y="281"/>
      <point x="1352" y="281" type="curve" smooth="yes"/>
      <point x="1292" y="281"/>
      <point x="1271" y="316"/>
      <point x="1271" y="378" type="curve" smooth="yes"/>
      <point x="1271" y="639" type="line"/>
      <point x="879" y="639" type="line"/>
      <point x="879" y="325" type="line" smooth="yes"/>
      <point x="879" y="85"/>
      <point x="985" y="-19"/>
    </contour>
  </outline>
</glyph>
<glyph name="Two.gj" format="2">
  <advance width="1279"/>
  <unicode hex="0AE8"/>
  <guideline x="1171" y="789" angle="270"/>
  <outline>
    <contour>
      <point x="454" y="271" type="line"/>
      <point x="467" y="346" type="line"/>
      <point x="673" y="346" type="line" smooth="yes"/>
      <point x="1004" y="346"/>
      <point x="1201" y="525"/>
      <point x="1201" y="764" type="curve" smooth="yes"/>
      <point x="1201" y="783" type="line" smooth="yes"/>
      <point x="1201" y="1084"/>
      <point x="952" y="1226"/>
      <point x="579" y="1226" type="curve" smooth="yes"/>
      <point x="377" y="1226"/>
      <point x="232" y="1205"/>
      <point x="126" y="1171" type="curve"/>
      <point x="95" y="862" type="line"/>
      <point x="215" y="888"/>
      <point x="366" y="908"/>
      <point x="484" y="908" type="curve" smooth="yes"/>
      <point x="683" y="908"/>
      <point x="788" y="869"/>
      <point x="788" y="773" type="curve" smooth="yes"/>
      <point x="788" y="762" type="line" smooth="yes"/>
      <point x="788" y="654"/>
      <point x="689" y="624"/>
      <point x="519" y="624" type="curve" smooth="yes"/>
      <point x="78" y="624" type="line"/>
      <point x="78" y="349" type="line"/>
    </contour>
    <contour>
      <point x="651" y="0" type="line"/>
      <point x="1190" y="0" type="line"/>
      <point x="1190" y="16" type="line"/>
      <point x="925" y="212" type="line" smooth="yes"/>
      <point x="847" y="270"/>
      <point x="711" y="345"/>
      <point x="554" y="414" type="curve"/>
      <point x="185" y="364" type="line"/>
    </contour>
  </outline>
</glyph>
<glyph name="Three.gj" format="2">
  <advance width="1347"/>
  <unicode hex="0AE9"/>
  <outline>
    <contour>
      <point x="622" y="-36" type="curve" smooth="yes"/>
      <point x="1016" y="-36"/>
      <point x="1259" y="75"/>
      <point x="1259" y="312" type="curve" smooth="yes"/>
      <point x="1259" y="313" type="line" smooth="yes"/>
      <point x="1259" y="486"/>
      <point x="1154" y="573"/>
      <point x="928" y="595" type="curve"/>
      <point x="928" y="602" type="line"/>
      <point x="1156" y="619"/>
      <point x="1247" y="701"/>
      <point x="1247" y="876" type="curve" smooth="yes"/>
      <point x="1247" y="878" type="line" smooth="yes"/>
      <point x="1247" y="1111"/>
      <point x="1011" y="1226"/>
      <point x="627" y="1226" type="curve" smooth="yes"/>
      <point x="429" y="1226"/>
      <point x="263" y="1200"/>
      <point x="143" y="1166" type="curve"/>
      <point x="100" y="847" type="line"/>
      <point x="238" y="886"/>
      <point x="414" y="911"/>
      <point x="579" y="911" type="curve" smooth="yes"/>
      <point x="754" y="911"/>
      <point x="835" y="886"/>
      <point x="835" y="826" type="curve" smooth="yes"/>
      <point x="835" y="824" type="line" smooth="yes"/>
      <point x="835" y="781"/>
      <point x="796" y="755"/>
      <point x="678" y="753" type="curve" smooth="yes"/>
      <point x="265" y="745" type="line"/>
      <point x="265" y="455" type="line"/>
      <point x="673" y="441" type="line" smooth="yes"/>
      <point x="806" y="436"/>
      <point x="847" y="413"/>
      <point x="847" y="360" type="curve" smooth="yes"/>
      <point x="847" y="358" type="line" smooth="yes"/>
      <point x="847" y="303"/>
      <point x="761" y="279"/>
      <point x="574" y="279" type="curve" smooth="yes"/>
      <point x="386" y="279"/>
      <point x="236" y="308"/>
      <point x="78" y="354" type="curve"/>
      <point x="114" y="50" type="line"/>
      <point x="240" y="-2"/>
      <point x="423" y="-36"/>
    </contour>
  </outline>
</glyph>
<glyph name="Four.gj" format="2">
  <advance width="1611"/>
  <unicode hex="0AEA"/>
  <outline>
    <contour>
      <point x="814" y="-36" type="curve" smooth="yes"/>
      <point x="1167" y="-36"/>
      <point x="1377" y="100"/>
      <point x="1377" y="339" type="curve" smooth="yes"/>
      <point x="1377" y="342" type="line" smooth="yes"/>
      <point x="1377" y="501"/>
      <point x="1272" y="616"/>
      <point x="1137" y="712" type="curve" smooth="yes"/>
      <point x="992" y="815" type="line"/>
      <point x="753" y="613" type="line"/>
      <point x="823" y="564" type="line" smooth="yes"/>
      <point x="914" y="500"/>
      <point x="964" y="451"/>
      <point x="964" y="382" type="curve" smooth="yes"/>
      <point x="964" y="375" type="line" smooth="yes"/>
      <point x="964" y="306"/>
      <point x="903" y="271"/>
      <point x="814" y="271" type="curve" smooth="yes"/>
      <point x="724" y="271"/>
      <point x="663" y="314"/>
      <point x="663" y="382" type="curve" smooth="yes"/>
      <point x="663" y="386" type="line" smooth="yes"/>
      <point x="663" y="455"/>
      <point x="712" y="505"/>
      <point x="802" y="573" type="curve" smooth="yes"/>
      <point x="919" y="662" type="line"/>
      <point x="681" y="863" type="line"/>
      <point x="508" y="730" type="line" smooth="yes"/>
      <point x="347" y="607"/>
      <point x="250" y="515"/>
      <point x="250" y="342" type="curve" smooth="yes"/>
      <point x="250" y="339" type="line" smooth="yes"/>
      <point x="250" y="100"/>
      <point x="460" y="-36"/>
    </contour>
    <contour>
      <point x="627" y="623" type="line"/>
      <point x="907" y="789" type="line"/>
      <point x="469" y="1187" type="line"/>
      <point x="-10" y="1187" type="line"/>
      <point x="-10" y="1157" type="line"/>
    </contour>
    <contour>
      <point x="983" y="623" type="line"/>
      <point x="1621" y="1157" type="line"/>
      <point x="1621" y="1187" type="line"/>
      <point x="1142" y="1187" type="line"/>
      <point x="704" y="789" type="line"/>
    </contour>
  </outline>
</glyph>
<glyph name="Five.gj" format="2">
  <advance width="1579"/>
  <unicode hex="0AEB"/>
  <outline>
    <contour>
      <point x="642" y="276" type="curve" smooth="yes"/>
      <point x="863" y="276"/>
      <point x="974" y="371"/>
      <point x="1012" y="499" type="curve"/>
      <point x="1036" y="499" type="line"/>
      <point x="1025" y="749" type="line"/>
      <point x="1005" y="668"/>
      <point x="922" y="600"/>
      <point x="783" y="600" type="curve" smooth="yes"/>
      <point x="641" y="600"/>
      <point x="570" y="675"/>
      <point x="570" y="802" type="curve" smooth="yes"/>
      <point x="570" y="821" type="line"/>
      <point x="178" y="815" type="line"/>
      <point x="178" y="745" type="line" smooth="yes"/>
      <point x="178" y="444"/>
      <point x="340" y="276"/>
    </contour>
    <contour>
      <point x="1330" y="-18" type="curve" smooth="yes"/>
      <point x="1421" y="-18"/>
      <point x="1485" y="-7"/>
      <point x="1540" y="9" type="curve"/>
      <point x="1563" y="289" type="line"/>
      <point x="1540" y="285"/>
      <point x="1517" y="282"/>
      <point x="1494" y="282" type="curve" smooth="yes"/>
      <point x="1434" y="282"/>
      <point x="1412" y="317"/>
      <point x="1412" y="379" type="curve" smooth="yes"/>
      <point x="1412" y="618" type="line"/>
      <point x="1023" y="618" type="line"/>
      <point x="1023" y="326" type="line" smooth="yes"/>
      <point x="1023" y="86"/>
      <point x="1129" y="-18"/>
    </contour>
    <contour>
      <point x="1020" y="558" type="line"/>
      <point x="1412" y="558" type="line"/>
      <point x="1412" y="1187" type="line"/>
      <point x="1020" y="1187" type="line"/>
    </contour>
    <contour>
      <point x="177" y="749" type="line"/>
      <point x="569" y="749" type="line"/>
      <point x="569" y="858" type="line" smooth="yes"/>
      <point x="569" y="1098"/>
      <point x="463" y="1202"/>
      <point x="260" y="1202" type="curve" smooth="yes"/>
      <point x="169" y="1202"/>
      <point x="105" y="1191"/>
      <point x="50" y="1175" type="curve"/>
      <point x="26" y="895" type="line"/>
      <point x="50" y="899"/>
      <point x="73" y="902"/>
      <point x="96" y="902" type="curve" smooth="yes"/>
      <point x="156" y="902"/>
      <point x="177" y="867"/>
      <point x="177" y="805" type="curve" smooth="yes"/>
    </contour>
  </outline>
</glyph>
<glyph name="Six.gj" format="2">
  <advance width="1458"/>
  <unicode hex="0AEC"/>
  <outline>
    <contour>
      <point x="665" y="-37" type="curve" smooth="yes"/>
      <point x="1151" y="-37"/>
      <point x="1360" y="141"/>
      <point x="1360" y="497" type="curve" smooth="yes"/>
      <point x="1360" y="800" type="line"/>
      <point x="978" y="800" type="line"/>
      <point x="978" y="645" type="line"/>
      <point x="988" y="543" type="line"/>
      <point x="988" y="538" type="line" smooth="yes"/>
      <point x="988" y="347"/>
      <point x="906" y="258"/>
      <point x="617" y="258" type="curve" smooth="yes"/>
      <point x="463" y="258"/>
      <point x="319" y="283"/>
      <point x="156" y="337" type="curve"/>
      <point x="189" y="40" type="line"/>
      <point x="312" y="-6"/>
      <point x="502" y="-37"/>
    </contour>
    <contour>
      <point x="581" y="370" type="curve" smooth="yes"/>
      <point x="795" y="370"/>
      <point x="937" y="430"/>
      <point x="976" y="534" type="curve"/>
      <point x="1004" y="534" type="line"/>
      <point x="998" y="720" type="line"/>
      <point x="962" y="693"/>
      <point x="845" y="666"/>
      <point x="736" y="666" type="curve" smooth="yes"/>
      <point x="559" y="666"/>
      <point x="489" y="705"/>
      <point x="489" y="780" type="curve" smooth="yes"/>
      <point x="489" y="781" type="line"/>
      <point x="76" y="778" type="line"/>
      <point x="76" y="776" type="line" smooth="yes"/>
      <point x="76" y="513"/>
      <point x="261" y="370"/>
    </contour>
    <contour>
      <point x="76" y="778" type="line" smooth="yes"/>
      <point x="489" y="781" type="line"/>
      <point x="489" y="783" type="line" smooth="yes"/>
      <point x="489" y="860"/>
      <point x="564" y="924"/>
      <point x="837" y="924" type="curve" smooth="yes"/>
      <point x="1001" y="924"/>
      <point x="1138" y="904"/>
      <point x="1272" y="874" type="curve"/>
      <point x="1247" y="1162" type="line"/>
      <point x="1121" y="1200"/>
      <point x="947" y="1226"/>
      <point x="752" y="1226" type="curve" smooth="yes"/>
      <point x="302" y="1226"/>
      <point x="76" y="1072"/>
      <point x="76" y="780" type="curve" smooth="yes"/>
    </contour>
  </outline>
</glyph>
<glyph name="Seven.gj" format="2">
  <advance width="1715"/>
  <unicode hex="0AED"/>
  <guideline x="1497" y="234" angle="90"/>
  <outline>
    <contour>
      <point x="833" y="-36" type="curve" smooth="yes"/>
      <point x="1331" y="-36"/>
      <point x="1620" y="197"/>
      <point x="1620" y="633" type="curve" smooth="yes"/>
      <point x="1620" y="638" type="line"/>
      <point x="1217" y="641" type="line"/>
      <point x="1217" y="607" type="line" smooth="yes"/>
      <point x="1217" y="422"/>
      <point x="1131" y="276"/>
      <point x="834" y="276" type="curve" smooth="yes"/>
      <point x="592" y="276"/>
      <point x="438" y="386"/>
      <point x="438" y="635" type="curve" smooth="yes"/>
      <point x="438" y="653"/>
      <point x="438" y="664"/>
      <point x="438" y="695" type="curve"/>
      <point x="93" y="695" type="line"/>
      <point x="85" y="654"/>
      <point x="82" y="607"/>
      <point x="82" y="564" type="curve" smooth="yes"/>
      <point x="82" y="180"/>
      <point x="330" y="-36"/>
    </contour>
    <contour>
      <point x="903" y="431" type="curve" smooth="yes"/>
      <point x="1072" y="431"/>
      <point x="1168" y="499"/>
      <point x="1204" y="586" type="curve"/>
      <point x="1229" y="586" type="line"/>
      <point x="1228" y="752" type="line"/>
      <point x="1195" y="726"/>
      <point x="1132" y="704"/>
      <point x="1065" y="704" type="curve" smooth="yes"/>
      <point x="961" y="704"/>
      <point x="910" y="739"/>
      <point x="910" y="808" type="curve" smooth="yes"/>
      <point x="910" y="810" type="line" smooth="yes"/>
      <point x="910" y="879"/>
      <point x="962" y="915"/>
      <point x="1048" y="915" type="curve" smooth="yes"/>
      <point x="1160" y="915"/>
      <point x="1222" y="859"/>
      <point x="1222" y="731" type="curve" smooth="yes"/>
      <point x="1222" y="636" type="line"/>
      <point x="1620" y="637" type="line"/>
      <point x="1620" y="642" type="line" smooth="yes"/>
      <point x="1620" y="1031"/>
      <point x="1426" y="1226"/>
      <point x="1042" y="1226" type="curve" smooth="yes"/>
      <point x="701" y="1226"/>
      <point x="519" y="1081"/>
      <point x="519" y="807" type="curve" smooth="yes"/>
      <point x="519" y="801" type="line" smooth="yes"/>
      <point x="519" y="555"/>
      <point x="678" y="431"/>
    </contour>
  </outline>
</glyph>
<glyph name="Eight.gj" format="2">
  <advance width="1330"/>
  <unicode hex="0AEE"/>
  <outline>
    <contour>
      <point x="736" y="-36" type="curve" smooth="yes"/>
      <point x="906" y="-36"/>
      <point x="1066" y="-5"/>
      <point x="1210" y="52" type="curve"/>
      <point x="1250" y="393" type="line"/>
      <point x="1123" y="331"/>
      <point x="944" y="291"/>
      <point x="816" y="291" type="curve" smooth="yes"/>
      <point x="579" y="291"/>
      <point x="497" y="353"/>
      <point x="497" y="468" type="curve" smooth="yes"/>
      <point x="497" y="470" type="line" smooth="yes"/>
      <point x="497" y="569"/>
      <point x="568" y="657"/>
      <point x="753" y="800" type="curve" smooth="yes"/>
      <point x="1254" y="1187" type="line"/>
      <point x="683" y="1187" type="line"/>
      <point x="457" y="1013" type="line" smooth="yes"/>
      <point x="203" y="818"/>
      <point x="84" y="658"/>
      <point x="84" y="454" type="curve" smooth="yes"/>
      <point x="84" y="448" type="line" smooth="yes"/>
      <point x="84" y="131"/>
      <point x="299" y="-36"/>
    </contour>
  </outline>
</glyph>
<glyph name="Nine.gj" format="2">
  <advance width="1499"/>
  <unicode hex="0AEF"/>
  <outline>
    <contour>
      <point x="816" y="-36" type="curve" smooth="yes"/>
      <point x="986" y="-36"/>
      <point x="1146" y="-5"/>
      <point x="1290" y="52" type="curve"/>
      <point x="1330" y="383" type="line"/>
      <point x="1191" y="327"/>
      <point x="996" y="281"/>
      <point x="856" y="281" type="curve" smooth="yes"/>
      <point x="613" y="281"/>
      <point x="497" y="364"/>
      <point x="497" y="498" type="curve" smooth="yes"/>
      <point x="497" y="500" type="line" smooth="yes"/>
      <point x="497" y="622"/>
      <point x="549" y="714"/>
      <point x="823" y="906" type="curve" smooth="yes"/>
      <point x="1224" y="1187" type="line"/>
      <point x="636" y="1187" type="line"/>
      <point x="451" y="1051" type="line" smooth="yes"/>
      <point x="189" y="859"/>
      <point x="84" y="706"/>
      <point x="84" y="484" type="curve" smooth="yes"/>
      <point x="84" y="478" type="line" smooth="yes"/>
      <point x="84" y="158"/>
      <point x="325" y="-36"/>
    </contour>
    <contour>
      <point x="767" y="413" type="line"/>
      <point x="802" y="413" type="line"/>
      <point x="1439" y="671" type="line"/>
      <point x="1431" y="989" type="line"/>
      <point x="759" y="714" type="line"/>
    </contour>
  </outline>
</glyph>
<glyph name="AbbreviationSign.gj" format="2">
  <advance width="1324"/>
  <unicode hex="0AF0"/>
  <outline>
    <contour>
      <point x="662" y="848" type="curve" smooth="yes"/>
      <point x="314" y="848"/>
      <point x="104" y="680"/>
      <point x="104" y="412" type="curve" smooth="yes"/>
      <point x="104" y="403" type="line"/>
      <point x="495" y="403" type="line"/>
      <point x="495" y="409" type="line" smooth="yes"/>
      <point x="495" y="494"/>
      <point x="559" y="550"/>
      <point x="662" y="550" type="curve" smooth="yes"/>
      <point x="765" y="550"/>
      <point x="829" y="494"/>
      <point x="829" y="409" type="curve" smooth="yes"/>
      <point x="829" y="403" type="line"/>
      <point x="1220" y="403" type="line"/>
      <point x="1220" y="412" type="line" smooth="yes"/>
      <point x="1220" y="680"/>
      <point x="1010" y="848"/>
    </contour>
    <contour>
      <point x="662" y="-36" type="curve" smooth="yes"/>
      <point x="1010" y="-36"/>
      <point x="1220" y="134"/>
      <point x="1220" y="400" type="curve" smooth="yes"/>
      <point x="1220" y="411" type="line"/>
      <point x="829" y="411" type="line"/>
      <point x="829" y="403" type="line" smooth="yes"/>
      <point x="829" y="318"/>
      <point x="765" y="262"/>
      <point x="662" y="262" type="curve" smooth="yes"/>
      <point x="559" y="262"/>
      <point x="495" y="318"/>
      <point x="495" y="403" type="curve" smooth="yes"/>
      <point x="495" y="411" type="line"/>
      <point x="104" y="411" type="line"/>
      <point x="104" y="400" type="line" smooth="yes"/>
      <point x="104" y="134"/>
      <point x="314" y="-36"/>
    </contour>
  </outline>
</glyph>
<glyph name="RupeeSign.gj" format="2">
  <advance width="2534"/>
  <unicode hex="0AF1"/>
  <anchor x="771" y="-378" name="Bottom"/>
  <anchor x="701" y="1264" name="Top"/>
  <anchor x="661" y="1264" name="Top2"/>
  <outline>
    <contour>
      <point x="1872" y="848" type="curve" smooth="yes"/>
      <point x="1524" y="848"/>
      <point x="1314" y="680"/>
      <point x="1314" y="412" type="curve" smooth="yes"/>
      <point x="1314" y="403" type="line"/>
      <point x="1705" y="403" type="line"/>
      <point x="1705" y="409" type="line" smooth="yes"/>
      <point x="1705" y="494"/>
      <point x="1769" y="550"/>
      <point x="1872" y="550" type="curve" smooth="yes"/>
      <point x="1975" y="550"/>
      <point x="2039" y="494"/>
      <point x="2039" y="409" type="curve" smooth="yes"/>
      <point x="2039" y="403" type="line"/>
      <point x="2430" y="403" type="line"/>
      <point x="2430" y="412" type="line" smooth="yes"/>
      <point x="2430" y="680"/>
      <point x="2220" y="848"/>
    </contour>
    <contour>
      <point x="1872" y="-36" type="curve" smooth="yes"/>
      <point x="2220" y="-36"/>
      <point x="2430" y="134"/>
      <point x="2430" y="400" type="curve" smooth="yes"/>
      <point x="2430" y="411" type="line"/>
      <point x="2039" y="411" type="line"/>
      <point x="2039" y="403" type="line" smooth="yes"/>
      <point x="2039" y="318"/>
      <point x="1975" y="262"/>
      <point x="1872" y="262" type="curve" smooth="yes"/>
      <point x="1769" y="262"/>
      <point x="1705" y="318"/>
      <point x="1705" y="403" type="curve" smooth="yes"/>
      <point x="1705" y="411" type="line"/>
      <point x="1314" y="411" type="line"/>
      <point x="1314" y="400" type="line" smooth="yes"/>
      <point x="1314" y="134"/>
      <point x="1524" y="-36"/>
    </contour>
    <contour>
      <point x="596" y="-36" type="curve" smooth="yes"/>
      <point x="990" y="-36"/>
      <point x="1233" y="75"/>
      <point x="1233" y="312" type="curve" smooth="yes"/>
      <point x="1233" y="313" type="line" smooth="yes"/>
      <point x="1233" y="486"/>
      <point x="1128" y="573"/>
      <point x="902" y="595" type="curve"/>
      <point x="902" y="602" type="line"/>
      <point x="1130" y="619"/>
      <point x="1221" y="701"/>
      <point x="1221" y="876" type="curve" smooth="yes"/>
      <point x="1221" y="878" type="line" smooth="yes"/>
      <point x="1221" y="1111"/>
      <point x="985" y="1226"/>
      <point x="601" y="1226" type="curve" smooth="yes"/>
      <point x="415" y="1226"/>
      <point x="260" y="1200"/>
      <point x="147" y="1166" type="curve"/>
      <point x="104" y="847" type="line"/>
      <point x="233" y="886"/>
      <point x="398" y="911"/>
      <point x="553" y="911" type="curve" smooth="yes"/>
      <point x="728" y="911"/>
      <point x="809" y="886"/>
      <point x="809" y="826" type="curve" smooth="yes"/>
      <point x="809" y="824" type="line" smooth="yes"/>
      <point x="809" y="781"/>
      <point x="770" y="755"/>
      <point x="652" y="753" type="curve" smooth="yes"/>
      <point x="269" y="745" type="line"/>
      <point x="269" y="455" type="line"/>
      <point x="647" y="441" type="line" smooth="yes"/>
      <point x="780" y="436"/>
      <point x="821" y="413"/>
      <point x="821" y="360" type="curve" smooth="yes"/>
      <point x="821" y="358" type="line" smooth="yes"/>
      <point x="821" y="303"/>
      <point x="735" y="279"/>
      <point x="548" y="279" type="curve" smooth="yes"/>
      <point x="371" y="279"/>
      <point x="230" y="308"/>
      <point x="82" y="354" type="curve"/>
      <point x="118" y="50" type="line"/>
      <point x="237" y="-2"/>
      <point x="409" y="-36"/>
    </contour>
    <contour>
      <point x="509" y="-345" type="line"/>
      <point x="1033" y="-345" type="line"/>
      <point x="1033" y="-335" type="line"/>
      <point x="878" y="-199" type="line" smooth="yes"/>
      <point x="808" y="-137"/>
      <point x="677" y="-37"/>
      <point x="428" y="53" type="curve"/>
      <point x="218" y="36" type="line"/>
    </contour>
  </outline>
</glyph>
<glyph name="Zha.gj" format="2">
  <advance width="1979"/>
  <unicode hex="0AF9"/>
  <anchor x="1227" y="-69" name="Bottom"/>
  <anchor x="1491" y="1264" name="Top"/>
  <anchor x="1735" y="1264" name="Top2"/>
  <outline>
    <contour>
      <point x="1394" y="680" type="line"/>
      <point x="1985" y="1157" type="line"/>
      <point x="1985" y="1187" type="line"/>
      <point x="1497" y="1187" type="line"/>
      <point x="1114" y="846" type="line"/>
    </contour>
    <contour>
      <point x="526" y="306" type="line"/>
      <point x="526" y="783" type="line" smooth="yes"/>
      <point x="526" y="867"/>
      <point x="557" y="913"/>
      <point x="628" y="913" type="curve" smooth="yes"/>
      <point x="679" y="913"/>
      <point x="716" y="889"/>
      <point x="793" y="833" type="curve" smooth="yes"/>
      <point x="1114" y="598" type="line"/>
      <point x="1469" y="730" type="line"/>
      <point x="1075" y="1036" type="line" smooth="yes"/>
      <point x="917" y="1159"/>
      <point x="789" y="1226"/>
      <point x="587" y="1226" type="curve" smooth="yes"/>
      <point x="288" y="1226"/>
      <point x="135" y="1064"/>
      <point x="135" y="790" type="curve" smooth="yes"/>
      <point x="135" y="377" type="line"/>
    </contour>
    <contour>
      <point x="1217" y="-36" type="curve" smooth="yes"/>
      <point x="1575" y="-36"/>
      <point x="1779" y="87"/>
      <point x="1779" y="324" type="curve" smooth="yes"/>
      <point x="1779" y="328" type="line" smooth="yes"/>
      <point x="1779" y="502"/>
      <point x="1691" y="598"/>
      <point x="1525" y="714" type="curve" smooth="yes"/>
      <point x="1465" y="756" type="line"/>
      <point x="1114" y="624" type="line"/>
      <point x="1229" y="546" type="line" smooth="yes"/>
      <point x="1322" y="483"/>
      <point x="1374" y="447"/>
      <point x="1374" y="379" type="curve" smooth="yes"/>
      <point x="1374" y="376" type="line" smooth="yes"/>
      <point x="1374" y="306"/>
      <point x="1318" y="271"/>
      <point x="1217" y="271" type="curve" smooth="yes"/>
      <point x="1110" y="271"/>
      <point x="1053" y="306"/>
      <point x="1053" y="376" type="curve" smooth="yes"/>
      <point x="1053" y="379" type="line" smooth="yes"/>
      <point x="1053" y="447"/>
      <point x="1108" y="490"/>
      <point x="1197" y="554" type="curve" smooth="yes"/>
      <point x="1343" y="660" type="line"/>
      <point x="1089" y="862" type="line"/>
      <point x="904" y="721" type="line" smooth="yes"/>
      <point x="744" y="599"/>
      <point x="647" y="506"/>
      <point x="647" y="333" type="curve" smooth="yes"/>
      <point x="647" y="329" type="line" smooth="yes"/>
      <point x="647" y="89"/>
      <point x="854" y="-36"/>
    </contour>
    <contour>
      <point x="747" y="-390" type="curve" smooth="yes"/>
      <point x="895" y="-390"/>
      <point x="958" y="-321"/>
      <point x="958" y="-219" type="curve" smooth="yes"/>
      <point x="958" y="-213" type="line" smooth="yes"/>
      <point x="958" y="-109"/>
      <point x="889" y="-43"/>
      <point x="747" y="-43" type="curve" smooth="yes"/>
      <point x="605" y="-43"/>
      <point x="536" y="-114"/>
      <point x="536" y="-213" type="curve" smooth="yes"/>
      <point x="536" y="-219" type="line" smooth="yes"/>
      <point x="536" y="-321"/>
      <point x="601" y="-390"/>
    </contour>
    <contour>
      <point x="316" y="-142" type="curve" smooth="yes"/>
      <point x="464" y="-142"/>
      <point x="527" y="-73"/>
      <point x="527" y="29" type="curve" smooth="yes"/>
      <point x="527" y="35" type="line" smooth="yes"/>
      <point x="527" y="139"/>
      <point x="458" y="205"/>
      <point x="316" y="205" type="curve" smooth="yes"/>
      <point x="174" y="205"/>
      <point x="105" y="134"/>
      <point x="105" y="35" type="curve" smooth="yes"/>
      <point x="105" y="29" type="line" smooth="yes"/>
      <point x="105" y="-73"/>
      <point x="170" y="-142"/>
    </contour>
    <contour>
      <point x="295" y="-641" type="curve" smooth="yes"/>
      <point x="443" y="-641"/>
      <point x="506" y="-572"/>
      <point x="506" y="-470" type="curve" smooth="yes"/>
      <point x="506" y="-464" type="line" smooth="yes"/>
      <point x="506" y="-360"/>
      <point x="437" y="-294"/>
      <point x="295" y="-294" type="curve" smooth="yes"/>
      <point x="153" y="-294"/>
      <point x="84" y="-365"/>
      <point x="84" y="-464" type="curve" smooth="yes"/>
      <point x="84" y="-470" type="line" smooth="yes"/>
      <point x="84" y="-572"/>
      <point x="149" y="-641"/>
    </contour>
  </outline>
</glyph>
<glyph name="foursuperior" format="2">
  <advance width="911"/>
  <unicode hex="2074"/>
  <outline>
    <contour>
      <point x="534" y="751" type="line"/>
      <point x="786" y="751" type="line"/>
      <point x="786" y="1425" type="line"/>
      <point x="394" y="1425" type="line"/>
      <point x="32" y="1067" type="line"/>
      <point x="32" y="846" type="line"/>
      <point x="889" y="846" type="line"/>
      <point x="889" y="1045" type="line"/>
      <point x="199" y="1045" type="line"/>
      <point x="313" y="961" type="line"/>
      <point x="313" y="1052" type="line"/>
      <point x="524" y="1258" type="line"/>
      <point x="536" y="1258" type="line"/>
      <point x="534" y="1121" type="line"/>
    </contour>
  </outline>
</glyph>
<glyph name="BaBa.gj" format="2">
  <advance width="3356"/>
  <anchor x="2988" y="-69" name="Bottom"/>
  <anchor x="2968" y="1264" name="Top"/>
  <anchor x="3032" y="1264" name="Top2"/>
  <outline>
    <contour>
      <point x="1014" y="469" type="line"/>
      <point x="1684" y="469" type="line"/>
      <point x="1654" y="783" type="line"/>
      <point x="1014" y="783" type="line"/>
    </contour>
    <contour>
      <point x="650" y="84" type="curve" smooth="yes"/>
      <point x="997" y="84"/>
      <point x="1186" y="253"/>
      <point x="1186" y="564" type="curve" smooth="yes"/>
      <point x="1186" y="1020" type="line"/>
      <point x="790" y="1020" type="line"/>
      <point x="790" y="570" type="line" smooth="yes"/>
      <point x="790" y="459"/>
      <point x="742" y="404"/>
      <point x="650" y="404" type="curve" smooth="yes"/>
      <point x="536" y="404"/>
      <point x="483" y="486"/>
      <point x="483" y="650" type="curve" smooth="yes"/>
      <point x="483" y="668" type="line" smooth="yes"/>
      <point x="483" y="849"/>
      <point x="548" y="1002"/>
      <point x="666" y="1187" type="curve"/>
      <point x="255" y="1187" type="line"/>
      <point x="153" y="1063"/>
      <point x="70" y="869"/>
      <point x="70" y="660" type="curve" smooth="yes"/>
      <point x="70" y="643" type="line" smooth="yes"/>
      <point x="70" y="274"/>
      <point x="269" y="84"/>
    </contour>
    <contour>
      <point x="2836" y="422" type="line"/>
      <point x="3228" y="422" type="line"/>
      <point x="3228" y="1187" type="line"/>
      <point x="2836" y="1187" type="line"/>
    </contour>
    <contour>
      <point x="2836" y="0" type="line"/>
      <point x="3228" y="0" type="line"/>
      <point x="3228" y="507" type="line"/>
      <point x="2836" y="507" type="line"/>
    </contour>
    <contour>
      <point x="2383" y="469" type="line"/>
      <point x="3049" y="469" type="line"/>
      <point x="3019" y="783" type="line"/>
      <point x="2383" y="783" type="line"/>
    </contour>
    <contour>
      <point x="2019" y="84" type="curve" smooth="yes"/>
      <point x="2366" y="84"/>
      <point x="2555" y="253"/>
      <point x="2555" y="564" type="curve" smooth="yes"/>
      <point x="2555" y="1020" type="line"/>
      <point x="2159" y="1020" type="line"/>
      <point x="2159" y="570" type="line" smooth="yes"/>
      <point x="2159" y="459"/>
      <point x="2111" y="404"/>
      <point x="2019" y="404" type="curve" smooth="yes"/>
      <point x="1905" y="404"/>
      <point x="1852" y="486"/>
      <point x="1852" y="650" type="curve" smooth="yes"/>
      <point x="1852" y="668" type="line" smooth="yes"/>
      <point x="1852" y="849"/>
      <point x="1917" y="1002"/>
      <point x="2035" y="1187" type="curve"/>
      <point x="1624" y="1187" type="line"/>
      <point x="1522" y="1063"/>
      <point x="1439" y="869"/>
      <point x="1439" y="660" type="curve" smooth="yes"/>
      <point x="1439" y="643" type="line" smooth="yes"/>
      <point x="1439" y="274"/>
      <point x="1638" y="84"/>
    </contour>
  </outline>
</glyph>
<glyph name="BaBha.gj" format="2">
  <advance width="3417"/>
  <anchor x="3049" y="-69" name="Bottom"/>
  <anchor x="3029" y="1264" name="Top"/>
  <anchor x="3093" y="1264" name="Top2"/>
  <outline>
    <contour>
      <point x="1014" y="469" type="line"/>
      <point x="1616" y="469" type="line"/>
      <point x="1586" y="783" type="line"/>
      <point x="1014" y="783" type="line"/>
    </contour>
    <contour>
      <point x="650" y="84" type="curve" smooth="yes"/>
      <point x="997" y="84"/>
      <point x="1186" y="253"/>
      <point x="1186" y="564" type="curve" smooth="yes"/>
      <point x="1186" y="1020" type="line"/>
      <point x="790" y="1020" type="line"/>
      <point x="790" y="570" type="line" smooth="yes"/>
      <point x="790" y="459"/>
      <point x="742" y="404"/>
      <point x="650" y="404" type="curve" smooth="yes"/>
      <point x="536" y="404"/>
      <point x="483" y="486"/>
      <point x="483" y="650" type="curve" smooth="yes"/>
      <point x="483" y="668" type="line" smooth="yes"/>
      <point x="483" y="849"/>
      <point x="548" y="1002"/>
      <point x="666" y="1187" type="curve"/>
      <point x="255" y="1187" type="line"/>
      <point x="153" y="1063"/>
      <point x="70" y="869"/>
      <point x="70" y="660" type="curve" smooth="yes"/>
      <point x="70" y="643" type="line" smooth="yes"/>
      <point x="70" y="274"/>
      <point x="269" y="84"/>
    </contour>
    <contour>
      <point x="2897" y="422" type="line"/>
      <point x="3289" y="422" type="line"/>
      <point x="3289" y="1187" type="line"/>
      <point x="2897" y="1187" type="line"/>
    </contour>
    <contour>
      <point x="2897" y="0" type="line"/>
      <point x="3289" y="0" type="line"/>
      <point x="3289" y="507" type="line"/>
      <point x="2897" y="507" type="line"/>
    </contour>
    <contour>
      <point x="2431" y="389" type="line"/>
      <point x="3089" y="389" type="line"/>
      <point x="3059" y="703" type="line"/>
      <point x="2431" y="703" type="line"/>
    </contour>
    <contour>
      <point x="1584" y="0" type="curve"/>
      <point x="2012" y="0" type="line"/>
      <point x="1880" y="178"/>
      <point x="1798" y="367"/>
      <point x="1798" y="577" type="curve" smooth="yes"/>
      <point x="1798" y="587" type="line" smooth="yes"/>
      <point x="1798" y="796"/>
      <point x="1909" y="906"/>
      <point x="2119" y="906" type="curve" smooth="yes"/>
      <point x="2156" y="906"/>
      <point x="2195" y="901"/>
      <point x="2232" y="888" type="curve"/>
      <point x="2175" y="986" type="line"/>
      <point x="2175" y="604" type="line"/>
      <point x="2567" y="604" type="line"/>
      <point x="2567" y="1165" type="line"/>
      <point x="2428" y="1207"/>
      <point x="2271" y="1226"/>
      <point x="2122" y="1226" type="curve" smooth="yes"/>
      <point x="1624" y="1226"/>
      <point x="1385" y="1004"/>
      <point x="1385" y="595" type="curve" smooth="yes"/>
      <point x="1385" y="577" type="line" smooth="yes"/>
      <point x="1385" y="352"/>
      <point x="1460" y="137"/>
    </contour>
    <contour>
      <point x="2190" y="134" type="curve"/>
      <point x="2560" y="134" type="line"/>
      <point x="2560" y="689" type="line"/>
      <point x="2191" y="689" type="line"/>
      <point x="2015" y="593" type="line"/>
      <point x="2026" y="406"/>
      <point x="2095" y="249"/>
    </contour>
  </outline>
</glyph>
<glyph name="BaDa.gj" format="2">
  <advance width="2637"/>
  <anchor x="2065" y="-69" name="Bottom"/>
  <anchor x="2212" y="1264" name="Top"/>
  <anchor x="2052" y="1264" name="Top2"/>
  <outline>
    <contour>
      <point x="1014" y="385" type="line"/>
      <point x="1822" y="385" type="line"/>
      <point x="1792" y="699" type="line"/>
      <point x="1014" y="699" type="line"/>
    </contour>
    <contour>
      <point x="650" y="84" type="curve" smooth="yes"/>
      <point x="997" y="84"/>
      <point x="1186" y="253"/>
      <point x="1186" y="564" type="curve" smooth="yes"/>
      <point x="1186" y="1020" type="line"/>
      <point x="790" y="1020" type="line"/>
      <point x="790" y="570" type="line" smooth="yes"/>
      <point x="790" y="459"/>
      <point x="742" y="404"/>
      <point x="650" y="404" type="curve" smooth="yes"/>
      <point x="536" y="404"/>
      <point x="483" y="486"/>
      <point x="483" y="650" type="curve" smooth="yes"/>
      <point x="483" y="668" type="line" smooth="yes"/>
      <point x="483" y="849"/>
      <point x="548" y="1002"/>
      <point x="666" y="1187" type="curve"/>
      <point x="255" y="1187" type="line"/>
      <point x="153" y="1063"/>
      <point x="70" y="869"/>
      <point x="70" y="660" type="curve" smooth="yes"/>
      <point x="70" y="643" type="line" smooth="yes"/>
      <point x="70" y="274"/>
      <point x="269" y="84"/>
    </contour>
    <contour>
      <point x="2037" y="-36" type="curve" smooth="yes"/>
      <point x="2228" y="-36"/>
      <point x="2404" y="-2"/>
      <point x="2525" y="50" type="curve"/>
      <point x="2561" y="354" type="line"/>
      <point x="2409" y="308"/>
      <point x="2265" y="279"/>
      <point x="2085" y="279" type="curve" smooth="yes"/>
      <point x="1912" y="279"/>
      <point x="1832" y="303"/>
      <point x="1832" y="358" type="curve" smooth="yes"/>
      <point x="1832" y="360" type="line" smooth="yes"/>
      <point x="1832" y="413"/>
      <point x="1873" y="436"/>
      <point x="2006" y="441" type="curve" smooth="yes"/>
      <point x="2384" y="455" type="line"/>
      <point x="2384" y="745" type="line"/>
      <point x="2001" y="753" type="line" smooth="yes"/>
      <point x="1883" y="755"/>
      <point x="1844" y="781"/>
      <point x="1844" y="824" type="curve" smooth="yes"/>
      <point x="1844" y="826" type="line" smooth="yes"/>
      <point x="1844" y="886"/>
      <point x="1919" y="911"/>
      <point x="2080" y="911" type="curve" smooth="yes"/>
      <point x="2238" y="911"/>
      <point x="2407" y="886"/>
      <point x="2539" y="847" type="curve"/>
      <point x="2496" y="1166" type="line"/>
      <point x="2381" y="1200"/>
      <point x="2222" y="1226"/>
      <point x="2032" y="1226" type="curve" smooth="yes"/>
      <point x="1660" y="1226"/>
      <point x="1432" y="1111"/>
      <point x="1432" y="878" type="curve" smooth="yes"/>
      <point x="1432" y="876" type="line" smooth="yes"/>
      <point x="1432" y="701"/>
      <point x="1523" y="619"/>
      <point x="1751" y="602" type="curve"/>
      <point x="1751" y="595" type="line"/>
      <point x="1525" y="573"/>
      <point x="1420" y="486"/>
      <point x="1420" y="313" type="curve" smooth="yes"/>
      <point x="1420" y="312" type="line" smooth="yes"/>
      <point x="1420" y="75"/>
      <point x="1655" y="-36"/>
    </contour>
  </outline>
</glyph>
<glyph name="BaDda.gj" format="2">
  <advance width="2759"/>
  <anchor x="2094" y="-69" name="Bottom"/>
  <anchor x="2230" y="1264" name="Top"/>
  <anchor x="2055" y="1264" name="Top2"/>
  <outline>
    <contour>
      <point x="1014" y="500" type="line"/>
      <point x="1803" y="500" type="line"/>
      <point x="1773" y="814" type="line"/>
      <point x="1014" y="814" type="line"/>
    </contour>
    <contour>
      <point x="650" y="84" type="curve" smooth="yes"/>
      <point x="997" y="84"/>
      <point x="1186" y="253"/>
      <point x="1186" y="564" type="curve" smooth="yes"/>
      <point x="1186" y="1020" type="line"/>
      <point x="790" y="1020" type="line"/>
      <point x="790" y="570" type="line" smooth="yes"/>
      <point x="790" y="459"/>
      <point x="742" y="404"/>
      <point x="650" y="404" type="curve" smooth="yes"/>
      <point x="536" y="404"/>
      <point x="483" y="486"/>
      <point x="483" y="650" type="curve" smooth="yes"/>
      <point x="483" y="668" type="line" smooth="yes"/>
      <point x="483" y="849"/>
      <point x="548" y="1002"/>
      <point x="666" y="1187" type="curve"/>
      <point x="255" y="1187" type="line"/>
      <point x="153" y="1063"/>
      <point x="70" y="869"/>
      <point x="70" y="660" type="curve" smooth="yes"/>
      <point x="70" y="643" type="line" smooth="yes"/>
      <point x="70" y="274"/>
      <point x="269" y="84"/>
    </contour>
    <contour>
      <point x="2057" y="-36" type="curve" smooth="yes"/>
      <point x="2424" y="-36"/>
      <point x="2671" y="76"/>
      <point x="2671" y="357" type="curve" smooth="yes"/>
      <point x="2671" y="368" type="line" smooth="yes"/>
      <point x="2671" y="603"/>
      <point x="2530" y="721"/>
      <point x="2139" y="749" type="curve" smooth="yes"/>
      <point x="1998" y="759" type="line" smooth="yes"/>
      <point x="1887" y="767"/>
      <point x="1835" y="786"/>
      <point x="1835" y="831" type="curve" smooth="yes"/>
      <point x="1835" y="833" type="line" smooth="yes"/>
      <point x="1835" y="879"/>
      <point x="1892" y="913"/>
      <point x="2084" y="913" type="curve" smooth="yes"/>
      <point x="2254" y="913"/>
      <point x="2436" y="881"/>
      <point x="2578" y="831" type="curve"/>
      <point x="2536" y="1148" type="line"/>
      <point x="2409" y="1193"/>
      <point x="2237" y="1226"/>
      <point x="2030" y="1226" type="curve" smooth="yes"/>
      <point x="1631" y="1226"/>
      <point x="1427" y="1099"/>
      <point x="1427" y="836" type="curve" smooth="yes"/>
      <point x="1427" y="828" type="line" smooth="yes"/>
      <point x="1427" y="600"/>
      <point x="1574" y="480"/>
      <point x="1932" y="457" type="curve" smooth="yes"/>
      <point x="2057" y="449" type="line" smooth="yes"/>
      <point x="2226" y="438"/>
      <point x="2263" y="417"/>
      <point x="2263" y="367" type="curve" smooth="yes"/>
      <point x="2263" y="365" type="line" smooth="yes"/>
      <point x="2263" y="308"/>
      <point x="2187" y="281"/>
      <point x="1996" y="281" type="curve" smooth="yes"/>
      <point x="1784" y="281"/>
      <point x="1576" y="340"/>
      <point x="1421" y="401" type="curve"/>
      <point x="1464" y="68" type="line"/>
      <point x="1614" y="11"/>
      <point x="1817" y="-36"/>
    </contour>
  </outline>
</glyph>
<glyph name="BaDha.gj" format="2">
  <advance width="2979"/>
  <anchor x="2611" y="-69" name="Bottom"/>
  <anchor x="2591" y="1264" name="Top"/>
  <anchor x="2655" y="1264" name="Top2"/>
  <outline>
    <contour>
      <point x="1014" y="404" type="line"/>
      <point x="1802" y="404" type="line"/>
      <point x="1772" y="718" type="line"/>
      <point x="1014" y="718" type="line"/>
    </contour>
    <contour>
      <point x="650" y="84" type="curve" smooth="yes"/>
      <point x="997" y="84"/>
      <point x="1186" y="253"/>
      <point x="1186" y="564" type="curve" smooth="yes"/>
      <point x="1186" y="1020" type="line"/>
      <point x="790" y="1020" type="line"/>
      <point x="790" y="570" type="line" smooth="yes"/>
      <point x="790" y="459"/>
      <point x="742" y="404"/>
      <point x="650" y="404" type="curve" smooth="yes"/>
      <point x="536" y="404"/>
      <point x="483" y="486"/>
      <point x="483" y="650" type="curve" smooth="yes"/>
      <point x="483" y="668" type="line" smooth="yes"/>
      <point x="483" y="849"/>
      <point x="548" y="1002"/>
      <point x="666" y="1187" type="curve"/>
      <point x="255" y="1187" type="line"/>
      <point x="153" y="1063"/>
      <point x="70" y="869"/>
      <point x="70" y="660" type="curve" smooth="yes"/>
      <point x="70" y="643" type="line" smooth="yes"/>
      <point x="70" y="274"/>
      <point x="269" y="84"/>
    </contour>
    <contour>
      <point x="1957" y="36" type="curve" smooth="yes"/>
      <point x="2253" y="36"/>
      <point x="2382" y="128"/>
      <point x="2448" y="265" type="curve"/>
      <point x="2483" y="265" type="line"/>
      <point x="2466" y="505" type="line"/>
      <point x="2440" y="424"/>
      <point x="2304" y="346"/>
      <point x="2092" y="346" type="curve" smooth="yes"/>
      <point x="1903" y="346"/>
      <point x="1839" y="377"/>
      <point x="1839" y="449" type="curve" smooth="yes"/>
      <point x="1839" y="450" type="line" smooth="yes"/>
      <point x="1839" y="509"/>
      <point x="1876" y="538"/>
      <point x="1987" y="541" type="curve" smooth="yes"/>
      <point x="2279" y="548" type="line"/>
      <point x="2279" y="826" type="line"/>
      <point x="1978" y="835" type="line" smooth="yes"/>
      <point x="1876" y="838"/>
      <point x="1839" y="863"/>
      <point x="1839" y="913" type="curve" smooth="yes"/>
      <point x="1839" y="915" type="line" smooth="yes"/>
      <point x="1839" y="1007"/>
      <point x="1969" y="1105"/>
      <point x="2171" y="1250" type="curve"/>
      <point x="2171" y="1266" type="line"/>
      <point x="1671" y="1266" type="line"/>
      <point x="1494" y="1146"/>
      <point x="1427" y="1056"/>
      <point x="1427" y="933" type="curve" smooth="yes"/>
      <point x="1427" y="931" type="line" smooth="yes"/>
      <point x="1427" y="787"/>
      <point x="1512" y="710"/>
      <point x="1727" y="692" type="curve"/>
      <point x="1727" y="685" type="line"/>
      <point x="1521" y="666"/>
      <point x="1427" y="575"/>
      <point x="1427" y="401" type="curve" smooth="yes"/>
      <point x="1427" y="392" type="line" smooth="yes"/>
      <point x="1427" y="172"/>
      <point x="1601" y="36"/>
    </contour>
    <contour>
      <point x="2459" y="422" type="line"/>
      <point x="2851" y="422" type="line"/>
      <point x="2851" y="1187" type="line"/>
      <point x="2459" y="1187" type="line"/>
    </contour>
    <contour>
      <point x="2459" y="0" type="line"/>
      <point x="2851" y="0" type="line"/>
      <point x="2851" y="507" type="line"/>
      <point x="2459" y="507" type="line"/>
    </contour>
  </outline>
</glyph>
<glyph name="BaDhaVa.gj" format="2">
  <advance width="3930"/>
  <anchor x="3562" y="-69" name="Bottom"/>
  <anchor x="3542" y="1264" name="Top"/>
  <anchor x="3606" y="1264" name="Top2"/>
  <outline>
    <contour>
      <point x="1014" y="404" type="line"/>
      <point x="1794" y="404" type="line"/>
      <point x="1764" y="718" type="line"/>
      <point x="1014" y="718" type="line"/>
    </contour>
    <contour>
      <point x="650" y="84" type="curve" smooth="yes"/>
      <point x="997" y="84"/>
      <point x="1186" y="253"/>
      <point x="1186" y="564" type="curve" smooth="yes"/>
      <point x="1186" y="1020" type="line"/>
      <point x="790" y="1020" type="line"/>
      <point x="790" y="570" type="line" smooth="yes"/>
      <point x="790" y="459"/>
      <point x="742" y="404"/>
      <point x="650" y="404" type="curve" smooth="yes"/>
      <point x="536" y="404"/>
      <point x="483" y="486"/>
      <point x="483" y="650" type="curve" smooth="yes"/>
      <point x="483" y="668" type="line" smooth="yes"/>
      <point x="483" y="849"/>
      <point x="548" y="1002"/>
      <point x="666" y="1187" type="curve"/>
      <point x="255" y="1187" type="line"/>
      <point x="153" y="1063"/>
      <point x="70" y="869"/>
      <point x="70" y="660" type="curve" smooth="yes"/>
      <point x="70" y="643" type="line" smooth="yes"/>
      <point x="70" y="274"/>
      <point x="269" y="84"/>
    </contour>
    <contour>
      <point x="1997" y="36" type="curve" smooth="yes"/>
      <point x="2396" y="36"/>
      <point x="2542" y="172"/>
      <point x="2587" y="442" type="curve"/>
      <point x="2461" y="493" type="line"/>
      <point x="2426" y="416"/>
      <point x="2293" y="346"/>
      <point x="2092" y="346" type="curve" smooth="yes"/>
      <point x="1903" y="346"/>
      <point x="1839" y="377"/>
      <point x="1839" y="449" type="curve" smooth="yes"/>
      <point x="1839" y="450" type="line" smooth="yes"/>
      <point x="1839" y="509"/>
      <point x="1876" y="538"/>
      <point x="1987" y="541" type="curve" smooth="yes"/>
      <point x="2279" y="548" type="line"/>
      <point x="2279" y="826" type="line"/>
      <point x="1978" y="835" type="line" smooth="yes"/>
      <point x="1876" y="838"/>
      <point x="1839" y="863"/>
      <point x="1839" y="913" type="curve" smooth="yes"/>
      <point x="1839" y="915" type="line" smooth="yes"/>
      <point x="1839" y="1007"/>
      <point x="1969" y="1105"/>
      <point x="2171" y="1250" type="curve"/>
      <point x="2171" y="1266" type="line"/>
      <point x="1671" y="1266" type="line"/>
      <point x="1494" y="1146"/>
      <point x="1427" y="1056"/>
      <point x="1427" y="933" type="curve" smooth="yes"/>
      <point x="1427" y="931" type="line" smooth="yes"/>
      <point x="1427" y="787"/>
      <point x="1512" y="710"/>
      <point x="1727" y="692" type="curve"/>
      <point x="1727" y="685" type="line"/>
      <point x="1521" y="666"/>
      <point x="1427" y="575"/>
      <point x="1427" y="401" type="curve" smooth="yes"/>
      <point x="1427" y="392" type="line" smooth="yes"/>
      <point x="1427" y="172"/>
      <point x="1591" y="36"/>
    </contour>
    <contour>
      <point x="2982" y="155" type="curve" smooth="yes"/>
      <point x="3230" y="155"/>
      <point x="3358" y="240"/>
      <point x="3399" y="379" type="curve"/>
      <point x="3431" y="379" type="line"/>
      <point x="3415" y="629" type="line"/>
      <point x="3392" y="547"/>
      <point x="3290" y="479"/>
      <point x="3112" y="479" type="curve" smooth="yes"/>
      <point x="2934" y="479"/>
      <point x="2842" y="541"/>
      <point x="2842" y="666" type="curve" smooth="yes"/>
      <point x="2842" y="675" type="line" smooth="yes"/>
      <point x="2842" y="807"/>
      <point x="2930" y="870"/>
      <point x="3118" y="870" type="curve" smooth="yes"/>
      <point x="3187" y="870"/>
      <point x="3242" y="860"/>
      <point x="3288" y="844" type="curve"/>
      <point x="3251" y="1146" type="line"/>
      <point x="3187" y="1169"/>
      <point x="3094" y="1187"/>
      <point x="2991" y="1187" type="curve" smooth="yes"/>
      <point x="2623" y="1187"/>
      <point x="2429" y="1013"/>
      <point x="2429" y="678" type="curve" smooth="yes"/>
      <point x="2429" y="662" type="line" smooth="yes"/>
      <point x="2429" y="328"/>
      <point x="2625" y="155"/>
    </contour>
    <contour>
      <point x="3410" y="422" type="line"/>
      <point x="3802" y="422" type="line"/>
      <point x="3802" y="1187" type="line"/>
      <point x="3410" y="1187" type="line"/>
    </contour>
    <contour>
      <point x="3410" y="0" type="line"/>
      <point x="3802" y="0" type="line"/>
      <point x="3802" y="507" type="line"/>
      <point x="3410" y="507" type="line"/>
    </contour>
  </outline>
</glyph>
<glyph name="BaHa.gj" format="2">
  <advance width="2820"/>
  <anchor x="2199" y="-152" name="Bottom"/>
  <anchor x="2287" y="1264" name="Top"/>
  <anchor x="2124" y="1264" name="Top2"/>
  <outline>
    <contour>
      <point x="1014" y="518" type="line"/>
      <point x="1792" y="518" type="line"/>
      <point x="1762" y="832" type="line"/>
      <point x="1014" y="832" type="line"/>
    </contour>
    <contour>
      <point x="650" y="84" type="curve" smooth="yes"/>
      <point x="997" y="84"/>
      <point x="1186" y="253"/>
      <point x="1186" y="564" type="curve" smooth="yes"/>
      <point x="1186" y="1020" type="line"/>
      <point x="790" y="1020" type="line"/>
      <point x="790" y="570" type="line" smooth="yes"/>
      <point x="790" y="459"/>
      <point x="742" y="404"/>
      <point x="650" y="404" type="curve" smooth="yes"/>
      <point x="536" y="404"/>
      <point x="483" y="486"/>
      <point x="483" y="650" type="curve" smooth="yes"/>
      <point x="483" y="668" type="line" smooth="yes"/>
      <point x="483" y="849"/>
      <point x="548" y="1002"/>
      <point x="666" y="1187" type="curve"/>
      <point x="255" y="1187" type="line"/>
      <point x="153" y="1063"/>
      <point x="70" y="869"/>
      <point x="70" y="660" type="curve" smooth="yes"/>
      <point x="70" y="643" type="line" smooth="yes"/>
      <point x="70" y="274"/>
      <point x="269" y="84"/>
    </contour>
    <contour>
      <point x="2179" y="-119" type="curve" smooth="yes"/>
      <point x="2350" y="-119"/>
      <point x="2529" y="-101"/>
      <point x="2687" y="-64" type="curve"/>
      <point x="2722" y="249" type="line"/>
      <point x="2570" y="219"/>
      <point x="2396" y="201"/>
      <point x="2232" y="201" type="curve" smooth="yes"/>
      <point x="1957" y="201"/>
      <point x="1845" y="265"/>
      <point x="1845" y="404" type="curve" smooth="yes"/>
      <point x="1845" y="417"/>
      <point x="1845" y="425"/>
      <point x="1845" y="438" type="curve"/>
      <point x="1455" y="438" type="line"/>
      <point x="1444" y="397"/>
      <point x="1437" y="352"/>
      <point x="1437" y="312" type="curve" smooth="yes"/>
      <point x="1437" y="23"/>
      <point x="1660" y="-119"/>
    </contour>
    <contour>
      <point x="2326" y="313" type="curve"/>
      <point x="2689" y="313" type="line"/>
      <point x="2723" y="357"/>
      <point x="2742" y="427"/>
      <point x="2742" y="488" type="curve" smooth="yes"/>
      <point x="2742" y="682"/>
      <point x="2595" y="752"/>
      <point x="2366" y="760" type="curve" smooth="yes"/>
      <point x="2041" y="771" type="line" smooth="yes"/>
      <point x="1936" y="775"/>
      <point x="1893" y="790"/>
      <point x="1893" y="829" type="curve" smooth="yes"/>
      <point x="1893" y="833" type="line" smooth="yes"/>
      <point x="1893" y="879"/>
      <point x="1950" y="913"/>
      <point x="2142" y="913" type="curve" smooth="yes"/>
      <point x="2313" y="913"/>
      <point x="2495" y="883"/>
      <point x="2637" y="837" type="curve"/>
      <point x="2594" y="1148" type="line"/>
      <point x="2468" y="1193"/>
      <point x="2295" y="1226"/>
      <point x="2089" y="1226" type="curve" smooth="yes"/>
      <point x="1690" y="1226"/>
      <point x="1485" y="1098"/>
      <point x="1485" y="833" type="curve" smooth="yes"/>
      <point x="1485" y="826" type="line" smooth="yes"/>
      <point x="1485" y="586"/>
      <point x="1674" y="491"/>
      <point x="1971" y="482" type="curve" smooth="yes"/>
      <point x="2190" y="475" type="line" smooth="yes"/>
      <point x="2303" y="471"/>
      <point x="2336" y="447"/>
      <point x="2336" y="372" type="curve" smooth="yes"/>
      <point x="2336" y="352"/>
      <point x="2332" y="335"/>
    </contour>
  </outline>
</glyph>
<glyph name="BaHalf_alt.gj" format="2">
  <advance width="1332"/>
  <outline>
    <contour>
      <point x="1014" y="489" type="line"/>
      <point x="1483" y="489" type="line"/>
      <point x="1453" y="803" type="line"/>
      <point x="1014" y="803" type="line"/>
    </contour>
    <contour>
      <point x="650" y="110" type="curve" smooth="yes"/>
      <point x="997" y="110"/>
      <point x="1186" y="278"/>
      <point x="1186" y="586" type="curve" smooth="yes"/>
      <point x="1186" y="1024" type="line"/>
      <point x="790" y="1024" type="line"/>
      <point x="790" y="592" type="line" smooth="yes"/>
      <point x="790" y="484"/>
      <point x="742" y="430"/>
      <point x="650" y="430" type="curve" smooth="yes"/>
      <point x="536" y="430"/>
      <point x="483" y="509"/>
      <point x="483" y="668" type="curve" smooth="yes"/>
      <point x="483" y="684" type="line" smooth="yes"/>
      <point x="483" y="859"/>
      <point x="548" y="1008"/>
      <point x="666" y="1187" type="curve"/>
      <point x="255" y="1187" type="line"/>
      <point x="153" y="1067"/>
      <point x="70" y="879"/>
      <point x="70" y="676" type="curve" smooth="yes"/>
      <point x="70" y="661" type="line" smooth="yes"/>
      <point x="70" y="297"/>
      <point x="269" y="110"/>
    </contour>
  </outline>
</glyph>
<glyph name="BaJaYa.gj" format="2">
  <advance width="4770"/>
  <anchor x="4402" y="-69" name="Bottom"/>
  <anchor x="4382" y="1264" name="Top"/>
  <anchor x="4446" y="1264" name="Top2"/>
  <outline>
    <contour>
      <point x="1014" y="469" type="line"/>
      <point x="1589" y="469" type="line"/>
      <point x="1559" y="783" type="line"/>
      <point x="1014" y="783" type="line"/>
    </contour>
    <contour>
      <point x="650" y="84" type="curve" smooth="yes"/>
      <point x="997" y="84"/>
      <point x="1186" y="253"/>
      <point x="1186" y="564" type="curve" smooth="yes"/>
      <point x="1186" y="1020" type="line"/>
      <point x="790" y="1020" type="line"/>
      <point x="790" y="570" type="line" smooth="yes"/>
      <point x="790" y="459"/>
      <point x="742" y="404"/>
      <point x="650" y="404" type="curve" smooth="yes"/>
      <point x="536" y="404"/>
      <point x="483" y="486"/>
      <point x="483" y="650" type="curve" smooth="yes"/>
      <point x="483" y="668" type="line" smooth="yes"/>
      <point x="483" y="849"/>
      <point x="548" y="1002"/>
      <point x="666" y="1187" type="curve"/>
      <point x="255" y="1187" type="line"/>
      <point x="153" y="1063"/>
      <point x="70" y="869"/>
      <point x="70" y="660" type="curve" smooth="yes"/>
      <point x="70" y="643" type="line" smooth="yes"/>
      <point x="70" y="274"/>
      <point x="269" y="84"/>
    </contour>
    <contour>
      <point x="1793" y="306" type="line"/>
      <point x="1793" y="783" type="line" smooth="yes"/>
      <point x="1793" y="867"/>
      <point x="1824" y="913"/>
      <point x="1895" y="913" type="curve" smooth="yes"/>
      <point x="1946" y="913"/>
      <point x="1983" y="889"/>
      <point x="2060" y="833" type="curve" smooth="yes"/>
      <point x="2381" y="598" type="line"/>
      <point x="2736" y="730" type="line"/>
      <point x="2342" y="1036" type="line" smooth="yes"/>
      <point x="2184" y="1159"/>
      <point x="2056" y="1226"/>
      <point x="1854" y="1226" type="curve" smooth="yes"/>
      <point x="1555" y="1226"/>
      <point x="1402" y="1064"/>
      <point x="1402" y="790" type="curve" smooth="yes"/>
      <point x="1402" y="377" type="line"/>
    </contour>
    <contour>
      <point x="2484" y="-36" type="curve" smooth="yes"/>
      <point x="2842" y="-36"/>
      <point x="3046" y="87"/>
      <point x="3046" y="324" type="curve" smooth="yes"/>
      <point x="3046" y="328" type="line" smooth="yes"/>
      <point x="3046" y="502"/>
      <point x="2958" y="598"/>
      <point x="2792" y="714" type="curve" smooth="yes"/>
      <point x="2732" y="756" type="line"/>
      <point x="2381" y="624" type="line"/>
      <point x="2496" y="546" type="line" smooth="yes"/>
      <point x="2589" y="483"/>
      <point x="2641" y="447"/>
      <point x="2641" y="379" type="curve" smooth="yes"/>
      <point x="2641" y="376" type="line" smooth="yes"/>
      <point x="2641" y="306"/>
      <point x="2585" y="271"/>
      <point x="2484" y="271" type="curve" smooth="yes"/>
      <point x="2377" y="271"/>
      <point x="2320" y="306"/>
      <point x="2320" y="376" type="curve" smooth="yes"/>
      <point x="2320" y="379" type="line" smooth="yes"/>
      <point x="2320" y="447"/>
      <point x="2375" y="490"/>
      <point x="2464" y="554" type="curve" smooth="yes"/>
      <point x="2610" y="660" type="line"/>
      <point x="2356" y="862" type="line"/>
      <point x="2171" y="721" type="line" smooth="yes"/>
      <point x="2011" y="599"/>
      <point x="1914" y="506"/>
      <point x="1914" y="333" type="curve" smooth="yes"/>
      <point x="1914" y="329" type="line" smooth="yes"/>
      <point x="1914" y="89"/>
      <point x="2121" y="-36"/>
    </contour>
    <contour>
      <point x="2649" y="558" type="line"/>
      <point x="3238" y="558" type="line"/>
      <point x="3210" y="831" type="line"/>
      <point x="2889" y="831" type="line"/>
      <point x="2222" y="795" type="line"/>
      <point x="2222" y="587" type="line"/>
    </contour>
    <contour>
      <point x="3779" y="34" type="curve" smooth="yes"/>
      <point x="4077" y="34"/>
      <point x="4199" y="148"/>
      <point x="4239" y="279" type="curve"/>
      <point x="4267" y="279" type="line"/>
      <point x="4258" y="519" type="line"/>
      <point x="4215" y="416"/>
      <point x="4089" y="351"/>
      <point x="3888" y="351" type="curve" smooth="yes"/>
      <point x="3665" y="351"/>
      <point x="3537" y="430"/>
      <point x="3537" y="569" type="curve" smooth="yes"/>
      <point x="3537" y="597"/>
      <point x="3537" y="597"/>
      <point x="3539" y="623" type="curve"/>
      <point x="3474" y="446" type="line"/>
      <point x="3597" y="446" type="line" smooth="yes"/>
      <point x="3860" y="446"/>
      <point x="4032" y="588"/>
      <point x="4032" y="812" type="curve" smooth="yes"/>
      <point x="4032" y="830" type="line" smooth="yes"/>
      <point x="4032" y="1097"/>
      <point x="3831" y="1226"/>
      <point x="3521" y="1226" type="curve" smooth="yes"/>
      <point x="3394" y="1226"/>
      <point x="3286" y="1205"/>
      <point x="3216" y="1178" type="curve"/>
      <point x="3186" y="883" type="line"/>
      <point x="3262" y="902"/>
      <point x="3349" y="920"/>
      <point x="3447" y="920" type="curve" smooth="yes"/>
      <point x="3561" y="920"/>
      <point x="3628" y="891"/>
      <point x="3628" y="821" type="curve" smooth="yes"/>
      <point x="3628" y="810" type="line" smooth="yes"/>
      <point x="3628" y="738"/>
      <point x="3548" y="710"/>
      <point x="3425" y="710" type="curve" smooth="yes"/>
      <point x="3160" y="710" type="line"/>
      <point x="3153" y="671"/>
      <point x="3149" y="629"/>
      <point x="3149" y="592" type="curve" smooth="yes"/>
      <point x="3149" y="240"/>
      <point x="3381" y="34"/>
    </contour>
    <contour>
      <point x="4250" y="422" type="line"/>
      <point x="4642" y="422" type="line"/>
      <point x="4642" y="1187" type="line"/>
      <point x="4250" y="1187" type="line"/>
    </contour>
    <contour>
      <point x="4250" y="0" type="line"/>
      <point x="4642" y="0" type="line"/>
      <point x="4642" y="507" type="line"/>
      <point x="4250" y="507" type="line"/>
    </contour>
  </outline>
</glyph>
<glyph name="BaJha.gj" format="2">
  <advance width="3305"/>
  <anchor x="2750" y="-69" name="Bottom"/>
  <anchor x="2759" y="1264" name="Top"/>
  <anchor x="2982" y="1264" name="Top2"/>
  <outline>
    <contour>
      <point x="1014" y="443" type="line"/>
      <point x="1522" y="443" type="line"/>
      <point x="1492" y="757" type="line"/>
      <point x="1014" y="757" type="line"/>
    </contour>
    <contour>
      <point x="650" y="84" type="curve" smooth="yes"/>
      <point x="997" y="84"/>
      <point x="1186" y="253"/>
      <point x="1186" y="564" type="curve" smooth="yes"/>
      <point x="1186" y="1020" type="line"/>
      <point x="790" y="1020" type="line"/>
      <point x="790" y="570" type="line" smooth="yes"/>
      <point x="790" y="459"/>
      <point x="742" y="404"/>
      <point x="650" y="404" type="curve" smooth="yes"/>
      <point x="536" y="404"/>
      <point x="483" y="486"/>
      <point x="483" y="650" type="curve" smooth="yes"/>
      <point x="483" y="668" type="line" smooth="yes"/>
      <point x="483" y="849"/>
      <point x="548" y="1002"/>
      <point x="666" y="1187" type="curve"/>
      <point x="255" y="1187" type="line"/>
      <point x="153" y="1063"/>
      <point x="70" y="869"/>
      <point x="70" y="660" type="curve" smooth="yes"/>
      <point x="70" y="643" type="line" smooth="yes"/>
      <point x="70" y="274"/>
      <point x="269" y="84"/>
    </contour>
    <contour>
      <point x="1853" y="88" type="curve" smooth="yes"/>
      <point x="2219" y="88"/>
      <point x="2454" y="257"/>
      <point x="2454" y="650" type="curve" smooth="yes"/>
      <point x="2454" y="664" type="line" smooth="yes"/>
      <point x="2454" y="1056"/>
      <point x="2219" y="1226"/>
      <point x="1853" y="1226" type="curve" smooth="yes"/>
      <point x="1737" y="1226"/>
      <point x="1611" y="1202"/>
      <point x="1518" y="1159" type="curve"/>
      <point x="1488" y="844" type="line"/>
      <point x="1573" y="879"/>
      <point x="1671" y="906"/>
      <point x="1771" y="906" type="curve" smooth="yes"/>
      <point x="1952" y="906"/>
      <point x="2041" y="826"/>
      <point x="2041" y="664" type="curve" smooth="yes"/>
      <point x="2041" y="651" type="line" smooth="yes"/>
      <point x="2041" y="491"/>
      <point x="1954" y="408"/>
      <point x="1774" y="408" type="curve" smooth="yes"/>
      <point x="1661" y="408"/>
      <point x="1568" y="431"/>
      <point x="1470" y="468" type="curve"/>
      <point x="1504" y="167" type="line"/>
      <point x="1589" y="120"/>
      <point x="1718" y="88"/>
    </contour>
    <contour>
      <point x="2730" y="-36" type="curve" smooth="yes"/>
      <point x="3076" y="-36"/>
      <point x="3229" y="103"/>
      <point x="3229" y="374" type="curve" smooth="yes"/>
      <point x="3229" y="381" type="line" smooth="yes"/>
      <point x="3229" y="639"/>
      <point x="3053" y="783"/>
      <point x="2739" y="783" type="curve"/>
      <point x="2688" y="797" type="line"/>
      <point x="2394" y="797" type="line"/>
      <point x="2394" y="523" type="line"/>
      <point x="2641" y="523" type="line" smooth="yes"/>
      <point x="2766" y="523"/>
      <point x="2834" y="488"/>
      <point x="2834" y="399" type="curve" smooth="yes"/>
      <point x="2834" y="390" type="line" smooth="yes"/>
      <point x="2834" y="315"/>
      <point x="2784" y="271"/>
      <point x="2663" y="271" type="curve" smooth="yes"/>
      <point x="2593" y="271"/>
      <point x="2522" y="283"/>
      <point x="2460" y="301" type="curve"/>
      <point x="2495" y="0" type="line"/>
      <point x="2565" y="-23"/>
      <point x="2648" y="-36"/>
    </contour>
    <contour>
      <point x="2766" y="687" type="line"/>
      <point x="2851" y="739"/>
      <point x="2922" y="802"/>
      <point x="2983" y="876" type="curve" smooth="yes"/>
      <point x="3225" y="1166" type="line"/>
      <point x="3225" y="1187" type="line"/>
      <point x="2739" y="1187" type="line"/>
      <point x="2472" y="732" type="line"/>
    </contour>
  </outline>
</glyph>
